<svg xmlns="http://www.w3.org/2000/svg" xmlns:xlink="http://www.w3.org/1999/xlink" width="600" zoomAndPan="magnify" viewBox="0 0 450 168.749997" height="225" preserveAspectRatio="xMidYMid meet" version="1.0"><defs><g/><clipPath id="id1"><path d="M 0.332031 0 L 449.667969 0 L 449.667969 168.5 L 0.332031 168.5 Z M 0.332031 0 " clip-rule="nonzero"/></clipPath><clipPath id="id2"><path d="M 182.476562 76 L 216 76 L 216 91.738281 L 182.476562 91.738281 Z M 182.476562 76 " clip-rule="nonzero"/></clipPath></defs><g clip-path="url(#id1)"><path fill="#ffffff" d="M 0.332031 0 L 449.667969 0 L 449.667969 175.242188 L 0.332031 175.242188 Z M 0.332031 0 " fill-opacity="1" fill-rule="nonzero"/><path fill="#000000" d="M 0.332031 0 L 449.667969 0 L 449.667969 168.5 L 0.332031 168.5 Z M 0.332031 0 " fill-opacity="1" fill-rule="nonzero"/><path fill="#ffffff" d="M 0.332031 0 L 449.667969 0 L 449.667969 168.5 L 0.332031 168.5 Z M 0.332031 0 " fill-opacity="1" fill-rule="nonzero"/><path fill="#000000" d="M 0.332031 0 L 449.667969 0 L 449.667969 168.5 L 0.332031 168.5 Z M 0.332031 0 " fill-opacity="1" fill-rule="nonzero"/></g><path fill="#f0a87f" d="M 234.6875 77.25 C 234.6875 77.25 234.332031 75.4375 231.167969 75.652344 L 231.117188 78.371094 L 233.082031 79.363281 L 234.6875 77.25 " fill-opacity="1" fill-rule="nonzero"/><path fill="#f9ae84" d="M 230.972656 64.808594 C 230.972656 64.808594 230.515625 62.6875 226.960938 62.929688 L 226.902344 65.984375 L 230.46875 65.484375 L 230.972656 64.808594 " fill-opacity="1" fill-rule="nonzero"/><path fill="#f0a87f" d="M 232.84375 67.84375 C 232.84375 67.84375 232.445312 65.808594 228.890625 66.054688 L 228.425781 69.867188 L 231.042969 70.214844 L 232.84375 67.84375 " fill-opacity="1" fill-rule="nonzero"/><path fill="#f0a87f" d="M 233.953125 73.164062 C 233.953125 73.164062 233.554688 71.128906 230 71.371094 L 229.945312 74.425781 L 232.152344 75.535156 L 233.953125 73.164062 " fill-opacity="1" fill-rule="nonzero"/><path fill="#f9a67a" d="M 227.542969 75.726562 C 226.625 74.109375 225.78125 72.28125 224.511719 70.9375 C 223.160156 69.503906 220.113281 68.671875 218.597656 70.367188 C 217.679688 71.394531 217.613281 72.761719 216.972656 73.929688 C 216.128906 75.46875 215.136719 76.988281 214.164062 78.453125 C 212.921875 80.328125 207.578125 84.15625 205.296875 85.164062 C 206.070312 86.878906 206.933594 88.550781 208.015625 90.078125 C 209.136719 89.429688 212.628906 87.328125 213.261719 86.929688 C 214.304688 86.277344 215.339844 85.867188 216.46875 85.472656 C 218.449219 84.78125 220.289062 84.105469 222.46875 84.257812 C 224.605469 84.40625 226.675781 84.21875 228.289062 82.789062 C 230.273438 81.03125 228.625 77.636719 227.542969 75.726562 " fill-opacity="1" fill-rule="nonzero"/><path fill="#f5c116" d="M 215.042969 66.78125 C 217.289062 69.121094 218.917969 71.320312 220.03125 73.140625 C 221.230469 75.101562 222.503906 76.878906 223.402344 79.019531 C 223.835938 80.054688 224.304688 81.25 224.503906 82.667969 C 224.648438 83.683594 224.695312 85.238281 225.769531 85.757812 C 226.527344 86.128906 227.550781 86.003906 228.351562 85.882812 C 229.113281 85.765625 229.855469 85.5625 230.601562 85.382812 C 233.378906 84.730469 234.941406 84.359375 234.40625 82.195312 C 233.910156 80.195312 233.019531 78.015625 231.800781 75.152344 C 231.628906 74.746094 231.132812 74.363281 230.964844 73.964844 C 230.789062 73.539062 230.914062 73.144531 230.824219 72.722656 C 230.621094 71.804688 229.640625 71.476562 229.414062 70.566406 C 229.3125 70.164062 229.398438 69.75 229.230469 69.355469 C 229.054688 68.933594 228.628906 68.652344 228.550781 68.167969 C 228.492188 67.789062 228.636719 67.347656 228.625 66.96875 C 228.609375 66.429688 228.375 65.96875 228.3125 65.441406 C 228.3125 65.441406 213.742188 65.425781 215.042969 66.78125 " fill-opacity="1" fill-rule="nonzero"/><path fill="#f8a31b" d="M 222.734375 73.511719 C 223.707031 75.675781 224.832031 77.769531 225.679688 79.988281 C 226.105469 81.097656 226.6875 82.957031 227.515625 83.636719 C 228.625 84.550781 230.113281 83.371094 229.789062 81.800781 C 229.421875 80.003906 228.847656 78.4375 227.898438 75.890625 C 227.070312 73.6875 226.464844 72.230469 225.828125 70.8125 C 225.296875 69.632812 223.671875 68.257812 222.394531 69.328125 C 221.195312 70.339844 222.238281 72.402344 222.734375 73.511719 " fill-opacity="1" fill-rule="nonzero"/><path fill="#f46b1c" d="M 210.796875 61.597656 C 211.683594 63.175781 214.15625 66.933594 215.335938 67.179688 C 217.929688 67.714844 223.875 67.695312 225.023438 67.523438 C 226.273438 67.339844 228.636719 67.15625 228.859375 65.953125 C 229.164062 64.28125 227.703125 62.453125 227.625 60.308594 C 227.609375 59.832031 210.0625 60.285156 210.796875 61.597656 " fill-opacity="1" fill-rule="nonzero"/><path fill="#f57b19" d="M 213.164062 52.191406 C 214.679688 56.332031 212.558594 60.921875 208.421875 62.4375 C 204.285156 63.957031 199.703125 61.832031 198.1875 57.6875 C 196.671875 53.546875 198.792969 48.957031 202.929688 47.441406 C 207.066406 45.921875 211.648438 48.046875 213.164062 52.191406 " fill-opacity="1" fill-rule="nonzero"/><path fill="#f9ad1a" d="M 241.324219 18.222656 C 232.796875 21.355469 219 38.609375 202.515625 47.628906 C 201.527344 48.171875 202.027344 52.726562 203.496094 56.5625 C 204.808594 59.984375 206.996094 62.765625 207.980469 62.5625 C 226.378906 58.773438 248.042969 63.011719 256.570312 59.878906 C 258.078125 59.328125 242.832031 17.667969 241.324219 18.222656 " fill-opacity="1" fill-rule="nonzero"/><path fill="#f57b19" d="M 241.324219 18.222656 C 237.605469 19.585938 232.890625 23.636719 227.382812 28.515625 C 227.117188 32.945312 228.195312 39.203125 230.605469 45.785156 C 233.082031 52.558594 236.351562 57.941406 239.476562 61.054688 C 246.746094 61.210938 252.886719 61.234375 256.570312 59.878906 C 258.078125 59.328125 242.832031 17.667969 241.324219 18.222656 " fill-opacity="1" fill-rule="nonzero"/><path fill="#f46b1c" d="M 255.949219 36.480469 C 260.15625 47.984375 260.316406 58.507812 256.300781 59.980469 C 252.285156 61.457031 245.613281 53.324219 241.402344 41.820312 C 237.191406 30.320312 237.035156 19.796875 241.050781 18.324219 C 245.066406 16.847656 251.738281 24.976562 255.949219 36.480469 " fill-opacity="1" fill-rule="nonzero"/><path fill="#f9ad1a" d="M 254.859375 36.878906 C 258.878906 47.859375 259.367188 57.773438 255.949219 59.027344 C 252.535156 60.28125 246.507812 52.398438 242.492188 41.421875 C 238.472656 30.445312 237.984375 20.527344 241.402344 19.273438 C 244.816406 18.023438 250.84375 25.902344 254.859375 36.878906 " fill-opacity="1" fill-rule="nonzero"/><path fill="#d0e7d3" d="M 242.492188 41.421875 C 243.457031 44.058594 244.535156 46.511719 245.667969 48.703125 L 251.96875 44.726562 L 247.59375 32.765625 L 240.214844 33.808594 C 240.769531 36.214844 241.527344 38.789062 242.492188 41.421875 " fill-opacity="1" fill-rule="nonzero"/><path fill="#d9f2e5" d="M 252.074219 37.902344 C 253.28125 41.207031 253.238281 44.261719 251.96875 44.726562 C 250.703125 45.191406 248.699219 42.890625 247.488281 39.585938 C 246.28125 36.285156 246.328125 33.230469 247.59375 32.765625 C 248.859375 32.300781 250.867188 34.601562 252.074219 37.902344 " fill-opacity="1" fill-rule="nonzero"/><path fill="#f9ae84" d="M 224.101562 63.679688 C 224.03125 62.894531 223.730469 61.3125 222.710938 61.410156 C 221.214844 61.554688 220.796875 62.773438 218.921875 64.582031 C 217.535156 65.914062 215.230469 66.773438 214 68.617188 C 213.371094 69.554688 212.785156 70.851562 212.410156 71.90625 C 212.015625 73.03125 212.070312 74.976562 211.605469 75.945312 C 210.910156 77.398438 204.292969 80.808594 203.609375 81.140625 C 204.367188 83 205.121094 84.886719 206.019531 86.691406 C 208.0625 85.742188 215.671875 81.96875 216.75 81.292969 C 218.09375 80.453125 219.65625 78.621094 219.886719 76.832031 C 220.058594 75.511719 219.859375 73.507812 220.035156 72.449219 C 220.550781 69.335938 221.445312 68.609375 223 66.519531 C 223.640625 65.660156 224.195312 64.765625 224.101562 63.679688 " fill-opacity="1" fill-rule="nonzero"/><path fill="#f9ae84" d="M 227.222656 71.226562 C 226.476562 71.53125 225.210938 71.730469 224.53125 72.394531 C 223.746094 73.167969 224.210938 74.457031 224.984375 74.835938 C 225.929688 75.304688 226.273438 74.945312 227.671875 74.640625 C 229.164062 74.316406 229.734375 73.828125 230.351562 73.328125 C 231.578125 72.335938 231.742188 72.15625 232.3125 71.375 C 232.839844 70.660156 233.023438 70.148438 233.058594 69.152344 C 233.105469 67.847656 232.242188 66.25 231.628906 67.035156 C 231.414062 67.316406 231.160156 67.792969 230.742188 68.308594 C 230.078125 69.132812 229.640625 69.789062 229.148438 70.179688 C 228.476562 70.722656 228.035156 70.898438 227.222656 71.226562 " fill-opacity="1" fill-rule="nonzero"/><path fill="#f9ae84" d="M 228.828125 64.78125 C 227.09375 67.308594 226.0625 67.648438 224.753906 68.382812 C 223.871094 68.882812 223.050781 68.992188 222.898438 69.742188 C 222.660156 70.910156 223.34375 72.023438 224.410156 71.765625 C 225.609375 71.476562 227.328125 70.976562 228.300781 70.246094 C 229.109375 69.644531 229.800781 68.875 230.414062 67.945312 C 231.246094 66.6875 231.40625 65.695312 230.878906 64.585938 C 230.480469 63.761719 228.828125 64.78125 228.828125 64.78125 " fill-opacity="1" fill-rule="nonzero"/><path fill="#f9ae84" d="M 231.4375 72.96875 C 230.714844 73.71875 229.738281 74.394531 228.746094 74.894531 C 227.816406 75.363281 226.390625 75.683594 225.957031 76.753906 C 225.660156 77.480469 226.460938 78.546875 227.546875 78.578125 C 228.261719 78.597656 228.746094 78.484375 229.78125 78.082031 C 231.898438 77.261719 235.25 75.804688 233.878906 72.945312 C 233.125 71.375 231.445312 72.957031 231.4375 72.96875 " fill-opacity="1" fill-rule="nonzero"/><path fill="#f9ae84" d="M 232.472656 77.042969 C 231.828125 77.710938 231.027344 78.398438 230.144531 78.84375 C 229.316406 79.261719 228.011719 79.519531 227.5625 80.445312 C 227.109375 81.382812 228.015625 82.128906 228.980469 82.070312 C 229.949219 82.011719 229.769531 81.980469 230.773438 81.691406 C 232.714844 81.125 235.84375 79.601562 234.621094 77.054688 C 233.949219 75.65625 232.480469 77.035156 232.472656 77.042969 " fill-opacity="1" fill-rule="nonzero"/><g clip-path="url(#id2)"><path fill="#173747" d="M 207.054688 91.742188 L 215.90625 87.109375 L 209.605469 76.109375 L 182.539062 91.742188 L 207.054688 91.742188 " fill-opacity="1" fill-rule="nonzero"/></g><path fill="#e9e9e9" d="M 215.753906 86.839844 L 217.050781 86.113281 L 211.085938 75.722656 L 209.792969 76.449219 L 215.753906 86.839844 " fill-opacity="1" fill-rule="nonzero"/><g fill="#ffb1b1" fill-opacity="0.302"><g transform="translate(56.724284, 145.694677)"><g><path d="M 23.5625 0.078125 L 25.082031 -0.0390625 L 25.839844 0.0390625 L 27.078125 0 L 28.195312 -0.199219 L 28.316406 -1.160156 L 28.035156 -2.078125 L 27.4375 -3.554688 L 26.359375 -5.632812 L 25.800781 -7.109375 L 25 -8.546875 L 23.484375 -12.179688 L 23.085938 -12.78125 L 22.683594 -13.539062 L 22.445312 -14.417969 L 22.085938 -15.015625 L 21.847656 -15.65625 L 21.007812 -17.132812 L 20.726562 -17.972656 L 18.09375 -23.523438 L 17.851562 -24.324219 L 17.414062 -25.042969 L 17.171875 -25.761719 L 16.414062 -27.15625 L 15.734375 -27.878906 L 14.417969 -28.277344 L 13.140625 -27.835938 L 12.421875 -27.15625 L 12.0625 -26.480469 L 11.78125 -25.679688 L 11.421875 -25.121094 L 9.824219 -21.445312 L 9.386719 -20.847656 L 9.1875 -20.050781 L 8.746094 -19.289062 L 8.507812 -18.570312 L 4.433594 -10.023438 L 4.195312 -9.144531 L 3.792969 -8.546875 L 3.515625 -7.746094 L 2.796875 -6.46875 L 2.195312 -4.871094 L 1.757812 -4.3125 L 1.558594 -3.59375 L 0.757812 -1.996094 L 0.519531 -1.199219 L 0.71875 -0.199219 L 1.519531 0.0390625 L 3.074219 -0.0390625 L 3.875 0.0390625 L 6.109375 -0.0390625 L 7.027344 -0.320312 L 7.789062 -1.039062 L 8.507812 -2.355469 L 9.265625 -3.113281 L 10.105469 -3.554688 L 10.863281 -3.433594 L 12.539062 -3.59375 L 13.257812 -3.476562 L 17.171875 -3.515625 L 17.890625 -3.433594 L 18.769531 -3.554688 L 19.648438 -3.113281 L 20.410156 -2.476562 L 20.769531 -1.71875 L 21.007812 -1 L 21.804688 -0.398438 L 22.726562 0 Z M 14.496094 -9.863281 L 13.699219 -10.023438 L 12.78125 -9.945312 L 12.140625 -10.222656 L 12.101562 -10.984375 L 13.976562 -15.296875 L 14.417969 -15.65625 L 14.976562 -15.335938 L 16.855469 -10.941406 L 16.695312 -10.222656 L 16.09375 -9.90625 Z M 14.496094 -9.863281 "/></g></g></g><g fill="#ffb1b1" fill-opacity="0.302"><g transform="translate(85.718444, 145.694677)"><g><path d="M 2.996094 -1.238281 L 3.476562 -0.359375 L 4.113281 0 L 5.03125 0 L 5.871094 0.121094 L 6.667969 0.121094 L 7.507812 0 L 14.699219 -0.0390625 L 17.253906 -0.398438 L 19.570312 -1.117188 L 22.964844 -3.394531 L 24.5625 -5.230469 L 25.800781 -7.230469 L 26 -7.988281 L 26.398438 -8.746094 L 26.558594 -9.546875 L 26.839844 -10.265625 L 26.957031 -11.101562 L 27.15625 -11.941406 L 27.117188 -12.621094 L 27.277344 -15.175781 L 26.679688 -17.453125 L 26.597656 -18.292969 L 26.398438 -19.011719 L 25.800781 -20.609375 L 24.882812 -21.964844 L 24.5625 -22.644531 L 23.523438 -23.882812 L 22.84375 -24.402344 L 21.726562 -25.480469 L 20.25 -26.398438 L 19.449219 -26.796875 L 17.253906 -27.515625 L 15.617188 -27.835938 L 9.945312 -27.878906 L 9.144531 -27.957031 L 6.589844 -27.878906 L 5.792969 -27.957031 L 5.070312 -27.917969 L 4.234375 -27.957031 L 3.515625 -27.515625 L 2.914062 -26.757812 L 2.914062 -25.121094 L 2.996094 -24.324219 L 2.957031 -23.523438 L 3.035156 -22.007812 L 2.914062 -21.128906 L 3.035156 -20.328125 L 2.914062 -19.53125 L 3.074219 -16.335938 L 2.957031 -14.816406 L 3.074219 -13.101562 L 2.957031 -12.339844 L 3.074219 -11.503906 L 2.957031 -9.945312 L 3.035156 -6.75 L 2.957031 -5.949219 L 3.074219 -2.753906 Z M 11.460938 -6.429688 L 10.503906 -6.789062 L 10.144531 -7.667969 L 10.222656 -8.46875 L 10.066406 -9.1875 L 10.183594 -9.984375 L 10.183594 -20.25 L 10.664062 -20.96875 L 11.820312 -21.40625 L 12.660156 -21.367188 L 13.5 -21.40625 L 14.699219 -21.328125 L 16.292969 -20.847656 L 17.652344 -19.96875 L 18.652344 -18.851562 L 19.089844 -18.09375 L 19.609375 -17.453125 L 20.089844 -15.097656 L 20.207031 -13.859375 L 20.007812 -11.902344 L 19.769531 -11.144531 L 19.171875 -9.703125 L 18.652344 -8.984375 L 18.132812 -8.425781 L 17.652344 -7.789062 L 17.015625 -7.386719 L 16.214844 -6.988281 L 14.777344 -6.589844 Z M 11.460938 -6.429688 "/></g></g></g><g fill="#ffb1b1" fill-opacity="0.302"><g transform="translate(114.752543, 145.694677)"><g><path d="M 2.996094 -1.238281 L 3.476562 -0.359375 L 4.113281 0 L 5.03125 0 L 5.871094 0.121094 L 6.667969 0.121094 L 7.507812 0 L 14.699219 -0.0390625 L 17.253906 -0.398438 L 19.570312 -1.117188 L 22.964844 -3.394531 L 24.5625 -5.230469 L 25.800781 -7.230469 L 26 -7.988281 L 26.398438 -8.746094 L 26.558594 -9.546875 L 26.839844 -10.265625 L 26.957031 -11.101562 L 27.15625 -11.941406 L 27.117188 -12.621094 L 27.277344 -15.175781 L 26.679688 -17.453125 L 26.597656 -18.292969 L 26.398438 -19.011719 L 25.800781 -20.609375 L 24.882812 -21.964844 L 24.5625 -22.644531 L 23.523438 -23.882812 L 22.84375 -24.402344 L 21.726562 -25.480469 L 20.25 -26.398438 L 19.449219 -26.796875 L 17.253906 -27.515625 L 15.617188 -27.835938 L 9.945312 -27.878906 L 9.144531 -27.957031 L 6.589844 -27.878906 L 5.792969 -27.957031 L 5.070312 -27.917969 L 4.234375 -27.957031 L 3.515625 -27.515625 L 2.914062 -26.757812 L 2.914062 -25.121094 L 2.996094 -24.324219 L 2.957031 -23.523438 L 3.035156 -22.007812 L 2.914062 -21.128906 L 3.035156 -20.328125 L 2.914062 -19.53125 L 3.074219 -16.335938 L 2.957031 -14.816406 L 3.074219 -13.101562 L 2.957031 -12.339844 L 3.074219 -11.503906 L 2.957031 -9.945312 L 3.035156 -6.75 L 2.957031 -5.949219 L 3.074219 -2.753906 Z M 11.460938 -6.429688 L 10.503906 -6.789062 L 10.144531 -7.667969 L 10.222656 -8.46875 L 10.066406 -9.1875 L 10.183594 -9.984375 L 10.183594 -20.25 L 10.664062 -20.96875 L 11.820312 -21.40625 L 12.660156 -21.367188 L 13.5 -21.40625 L 14.699219 -21.328125 L 16.292969 -20.847656 L 17.652344 -19.96875 L 18.652344 -18.851562 L 19.089844 -18.09375 L 19.609375 -17.453125 L 20.089844 -15.097656 L 20.207031 -13.859375 L 20.007812 -11.902344 L 19.769531 -11.144531 L 19.171875 -9.703125 L 18.652344 -8.984375 L 18.132812 -8.425781 L 17.652344 -7.789062 L 17.015625 -7.386719 L 16.214844 -6.988281 L 14.777344 -6.589844 Z M 11.460938 -6.429688 "/></g></g></g><g fill="#ffb1b1" fill-opacity="0.302"><g transform="translate(143.786641, 145.694677)"><g/></g></g><g fill="#ffb1b1" fill-opacity="0.302"><g transform="translate(154.609535, 145.694677)"><g><path d="M 5.351562 0.121094 L 7.308594 0.0390625 L 8.027344 0.078125 L 8.945312 0 L 9.785156 -0.320312 L 10.144531 -1.160156 L 10.105469 -1.957031 L 10.144531 -2.835938 L 10.066406 -4.3125 L 10.144531 -5.070312 L 10.105469 -5.992188 L 10.464844 -6.710938 L 11.382812 -7.148438 L 12.261719 -7.230469 L 13.101562 -7.070312 L 17.214844 -7.386719 L 21.007812 -8.90625 L 21.605469 -9.386719 L 22.164062 -10.023438 L 22.683594 -10.542969 L 23.203125 -11.144531 L 24.042969 -12.421875 L 24.722656 -13.976562 L 24.839844 -14.855469 L 25.082031 -15.496094 L 25.160156 -18.769531 L 25 -19.449219 L 24.882812 -20.328125 L 24.402344 -21.804688 L 23.644531 -23.164062 L 22.683594 -24.480469 L 20.886719 -26.039062 L 19.570312 -26.917969 L 17.972656 -27.398438 L 17.292969 -27.675781 L 16.496094 -27.675781 L 15.695312 -27.957031 L 14.496094 -27.996094 L 13.21875 -27.957031 L 12.339844 -27.835938 L 9.90625 -27.878906 L 9.105469 -27.996094 L 6.628906 -27.835938 L 5.75 -27.878906 L 5.03125 -27.996094 L 4.195312 -27.835938 L 3.355469 -27.398438 L 2.996094 -26.757812 L 3.035156 -21.925781 L 2.875 -20.328125 L 2.957031 -19.570312 L 2.914062 -9.226562 L 2.996094 -8.46875 L 2.957031 -1.078125 L 3.394531 -0.320312 L 4.632812 0.078125 Z M 11.34375 -13.539062 L 10.542969 -14.019531 L 10.183594 -14.699219 L 10.066406 -17.933594 L 10.144531 -18.769531 L 10.144531 -20.410156 L 10.542969 -21.167969 L 11.382812 -21.566406 L 15.535156 -21.445312 L 16.335938 -21.085938 L 16.972656 -20.648438 L 17.492188 -20.128906 L 17.890625 -19.332031 L 18.011719 -18.609375 L 18.09375 -17.492188 L 18.011719 -16.414062 L 17.734375 -15.695312 L 17.375 -15.058594 L 16.855469 -14.417969 L 16.214844 -13.9375 L 15.574219 -13.738281 L 14.335938 -13.578125 L 12.300781 -13.617188 Z M 11.34375 -13.539062 "/></g></g></g><g fill="#ffb1b1" fill-opacity="0.302"><g transform="translate(180.887985, 145.694677)"><g><path d="M 3.074219 -1.277344 L 3.355469 -0.398438 L 4.152344 0 L 4.914062 0.0390625 L 6.550781 -0.078125 L 7.386719 0 L 8.585938 0 L 9.824219 -0.398438 L 10.105469 -1.160156 L 10.183594 -1.996094 L 10.023438 -2.835938 L 10.144531 -4.554688 L 10.066406 -7.027344 L 10.425781 -7.828125 L 11.222656 -8.226562 L 11.941406 -8.226562 L 12.660156 -8.265625 L 13.660156 -7.949219 L 14.296875 -7.269531 L 15.335938 -5.871094 L 15.617188 -5.113281 L 16.734375 -3.113281 L 17.253906 -2.355469 L 17.613281 -1.675781 L 18.09375 -1.039062 L 18.890625 -0.320312 L 19.890625 -0.078125 L 21.328125 0 L 22.207031 -0.078125 L 23.003906 0 L 24.601562 0 L 25.480469 -0.078125 L 26.320312 -0.28125 L 26.480469 -1.117188 L 25.960938 -2.117188 L 24.683594 -4.074219 L 24.324219 -4.753906 L 23.84375 -5.472656 L 23.445312 -6.191406 L 22.925781 -6.828125 L 21.726562 -8.90625 L 21.605469 -9.863281 L 22.046875 -10.703125 L 23.164062 -11.78125 L 23.644531 -12.460938 L 23.921875 -13.21875 L 24.363281 -13.9375 L 24.640625 -14.617188 L 25.082031 -16.136719 L 25.121094 -19.289062 L 24.921875 -20.050781 L 24.800781 -20.808594 L 24.601562 -21.605469 L 23.523438 -23.804688 L 22.964844 -24.402344 L 22.605469 -25 L 20.609375 -26.519531 L 19.210938 -27.238281 L 15.894531 -27.917969 L 14.898438 -27.996094 L 13.738281 -27.957031 L 12.859375 -27.996094 L 12.0625 -27.917969 L 11.183594 -27.996094 L 10.503906 -27.917969 L 8.109375 -27.996094 L 7.347656 -27.878906 L 5.710938 -28.035156 L 4.953125 -27.917969 L 4.074219 -27.957031 L 3.316406 -27.597656 L 2.996094 -26.757812 L 2.875 -15.574219 L 2.996094 -14.417969 L 2.996094 -12.421875 L 2.914062 -11.582031 L 2.875 -10.066406 L 2.996094 -9.1875 L 2.875 -7.546875 L 3.035156 -5.230469 L 2.957031 -4.394531 Z M 11.222656 -14.699219 L 10.542969 -15.058594 L 10.144531 -15.894531 L 10.023438 -20.367188 L 10.503906 -21.167969 L 11.300781 -21.566406 L 11.941406 -21.605469 L 14.136719 -21.566406 L 15.976562 -21.328125 L 17.214844 -20.566406 L 17.613281 -19.96875 L 17.890625 -19.332031 L 17.972656 -18.171875 L 17.851562 -17.09375 L 17.53125 -16.292969 L 17.09375 -15.617188 L 16.613281 -15.136719 L 16.015625 -14.855469 L 12.898438 -14.578125 L 12.101562 -14.699219 Z M 11.222656 -14.699219 "/></g></g></g><g fill="#ffb1b1" fill-opacity="0.302"><g transform="translate(208.564229, 145.694677)"><g><path d="M 14.9375 0.480469 L 17.171875 0.4375 L 19.570312 0.121094 L 22.566406 -0.878906 L 23.882812 -1.597656 L 24.480469 -2.078125 L 25.242188 -2.4375 L 26.359375 -3.394531 L 26.878906 -4.113281 L 27.4375 -4.671875 L 29.195312 -7.347656 L 29.792969 -8.867188 L 30.113281 -10.382812 L 30.152344 -11.101562 L 30.351562 -11.902344 L 30.394531 -12.742188 L 30.554688 -13.898438 L 30.433594 -15.894531 L 30.152344 -17.53125 L 29.15625 -20.527344 L 28.394531 -22.007812 L 27.515625 -23.203125 L 26.398438 -24.441406 L 25.242188 -25.441406 L 24.324219 -26.078125 L 23.125 -26.597656 L 22.523438 -27.039062 L 19.449219 -27.996094 L 17.132812 -28.394531 L 16.054688 -28.4375 L 11.820312 -27.835938 L 8.828125 -26.71875 L 8.226562 -26.28125 L 7.507812 -25.921875 L 6.152344 -24.921875 L 4.195312 -22.644531 L 2.957031 -20.527344 L 2.355469 -19.011719 L 1.675781 -15.933594 L 1.558594 -12.699219 L 1.675781 -11.863281 L 1.878906 -11.144531 L 1.957031 -10.382812 L 2.316406 -8.867188 L 4.152344 -5.230469 L 4.632812 -4.753906 L 5.152344 -4.113281 L 5.75 -3.554688 L 6.191406 -3.035156 L 7.507812 -1.996094 L 10.625 -0.398438 L 11.78125 0 L 12.660156 0.078125 L 14.097656 0.398438 Z M 17.171875 -6.589844 L 14.976562 -6.589844 L 14.097656 -6.710938 L 12.660156 -7.308594 L 12.019531 -7.667969 L 10.941406 -8.546875 L 10.425781 -9.105469 L 9.863281 -9.863281 L 9.664062 -10.503906 L 9.304688 -11.222656 L 8.984375 -12.699219 L 8.984375 -15.136719 L 9.1875 -15.855469 L 9.304688 -16.613281 L 9.625 -17.332031 L 9.863281 -18.050781 L 10.824219 -19.332031 L 12.820312 -20.6875 L 13.339844 -20.886719 L 14.898438 -21.289062 L 16.015625 -21.367188 L 17.933594 -21.128906 L 18.652344 -20.96875 L 19.371094 -20.648438 L 20.609375 -19.769531 L 22.164062 -18.132812 L 22.644531 -16.613281 L 23.003906 -15.855469 L 23.125 -15.136719 L 23.042969 -12.699219 L 22.726562 -11.222656 L 22.445312 -10.503906 L 22.007812 -9.785156 L 21.765625 -9.1875 L 21.207031 -8.546875 L 19.289062 -7.230469 L 18.570312 -7.027344 L 17.972656 -6.75 Z M 17.171875 -6.589844 "/></g></g></g><g fill="#ffb1b1" fill-opacity="0.302"><g transform="translate(240.593592, 145.694677)"><g><path d="M 2.957031 -1.238281 L 3.273438 -0.398438 L 4.113281 -0.078125 L 4.914062 0 L 7.269531 -0.0390625 L 8.148438 0.0390625 L 8.984375 0.0390625 L 9.785156 -0.398438 L 10.144531 -1.238281 L 10.183594 -2.835938 L 10.105469 -3.59375 L 10.222656 -4.3125 L 10.144531 -5.191406 L 10.144531 -6.03125 L 10.425781 -6.710938 L 11.503906 -7.109375 L 12.382812 -7.230469 L 13.578125 -7.109375 L 15.65625 -7.148438 L 17.292969 -7.46875 L 19.609375 -8.148438 L 20.96875 -8.984375 L 21.605469 -9.464844 L 22.804688 -10.625 L 24.082031 -12.539062 L 24.441406 -13.257812 L 24.722656 -13.976562 L 25.082031 -15.617188 L 25.160156 -16.335938 L 25.199219 -18.691406 L 24.480469 -21.804688 L 23.683594 -23.242188 L 23.164062 -23.921875 L 22.644531 -24.480469 L 22.207031 -25.082031 L 21.527344 -25.679688 L 20.328125 -26.480469 L 18.890625 -27.238281 L 18.050781 -27.398438 L 17.253906 -27.71875 L 16.535156 -27.878906 L 4.59375 -27.917969 L 3.515625 -27.558594 L 3.113281 -26.796875 L 3.035156 -25.960938 L 3.035156 -24.324219 L 2.914062 -23.605469 L 2.914062 -22.84375 L 3.035156 -22.007812 L 3.035156 -17.933594 L 2.957031 -17.132812 L 3.035156 -16.414062 L 2.957031 -15.535156 L 3.074219 -13.898438 L 2.914062 -12.820312 L 3.035156 -11.621094 L 2.957031 -10.863281 L 2.957031 -9.1875 L 3.074219 -8.425781 L 2.957031 -6.828125 L 3.074219 -4.3125 L 2.875 -3.515625 L 3.035156 -2.753906 L 2.914062 -1.996094 Z M 11.421875 -13.617188 L 10.664062 -13.976562 L 10.183594 -14.777344 L 10.105469 -20.328125 L 10.582031 -21.207031 L 11.382812 -21.527344 L 12.382812 -21.605469 L 15.574219 -21.445312 L 16.253906 -21.085938 L 16.855469 -20.648438 L 17.492188 -20.050781 L 17.890625 -19.371094 L 18.25 -17.492188 L 17.8125 -15.65625 L 16.894531 -14.539062 L 16.253906 -14.097656 L 15.617188 -13.738281 L 12.339844 -13.539062 Z M 11.421875 -13.617188 "/></g></g></g><g fill="#ffb1b1" fill-opacity="0.302"><g transform="translate(266.872031, 145.694677)"><g><path d="M 14.9375 0.480469 L 17.171875 0.4375 L 19.570312 0.121094 L 22.566406 -0.878906 L 23.882812 -1.597656 L 24.480469 -2.078125 L 25.242188 -2.4375 L 26.359375 -3.394531 L 26.878906 -4.113281 L 27.4375 -4.671875 L 29.195312 -7.347656 L 29.792969 -8.867188 L 30.113281 -10.382812 L 30.152344 -11.101562 L 30.351562 -11.902344 L 30.394531 -12.742188 L 30.554688 -13.898438 L 30.433594 -15.894531 L 30.152344 -17.53125 L 29.15625 -20.527344 L 28.394531 -22.007812 L 27.515625 -23.203125 L 26.398438 -24.441406 L 25.242188 -25.441406 L 24.324219 -26.078125 L 23.125 -26.597656 L 22.523438 -27.039062 L 19.449219 -27.996094 L 17.132812 -28.394531 L 16.054688 -28.4375 L 11.820312 -27.835938 L 8.828125 -26.71875 L 8.226562 -26.28125 L 7.507812 -25.921875 L 6.152344 -24.921875 L 4.195312 -22.644531 L 2.957031 -20.527344 L 2.355469 -19.011719 L 1.675781 -15.933594 L 1.558594 -12.699219 L 1.675781 -11.863281 L 1.878906 -11.144531 L 1.957031 -10.382812 L 2.316406 -8.867188 L 4.152344 -5.230469 L 4.632812 -4.753906 L 5.152344 -4.113281 L 5.75 -3.554688 L 6.191406 -3.035156 L 7.507812 -1.996094 L 10.625 -0.398438 L 11.78125 0 L 12.660156 0.078125 L 14.097656 0.398438 Z M 17.171875 -6.589844 L 14.976562 -6.589844 L 14.097656 -6.710938 L 12.660156 -7.308594 L 12.019531 -7.667969 L 10.941406 -8.546875 L 10.425781 -9.105469 L 9.863281 -9.863281 L 9.664062 -10.503906 L 9.304688 -11.222656 L 8.984375 -12.699219 L 8.984375 -15.136719 L 9.1875 -15.855469 L 9.304688 -16.613281 L 9.625 -17.332031 L 9.863281 -18.050781 L 10.824219 -19.332031 L 12.820312 -20.6875 L 13.339844 -20.886719 L 14.898438 -21.289062 L 16.015625 -21.367188 L 17.933594 -21.128906 L 18.652344 -20.96875 L 19.371094 -20.648438 L 20.609375 -19.769531 L 22.164062 -18.132812 L 22.644531 -16.613281 L 23.003906 -15.855469 L 23.125 -15.136719 L 23.042969 -12.699219 L 22.726562 -11.222656 L 22.445312 -10.503906 L 22.007812 -9.785156 L 21.765625 -9.1875 L 21.207031 -8.546875 L 19.289062 -7.230469 L 18.570312 -7.027344 L 17.972656 -6.75 Z M 17.171875 -6.589844 "/></g></g></g><g fill="#ffb1b1" fill-opacity="0.302"><g transform="translate(298.901406, 145.694677)"><g><path d="M 11.582031 0.320312 L 12.742188 0.4375 L 14.019531 0.398438 L 17.933594 -0.359375 L 20.007812 -1.476562 L 21.289062 -2.355469 L 22.40625 -3.632812 L 23.203125 -4.914062 L 23.523438 -5.632812 L 23.761719 -6.429688 L 23.882812 -7.148438 L 23.921875 -9.625 L 23.804688 -10.425781 L 23.605469 -11.183594 L 22.804688 -12.660156 L 21.847656 -13.898438 L 21.167969 -14.457031 L 19.050781 -15.417969 L 15.777344 -16.214844 L 11.742188 -16.734375 L 10.066406 -17.332031 L 9.464844 -17.652344 L 8.828125 -18.292969 L 8.785156 -19.371094 L 8.90625 -20.410156 L 9.34375 -20.96875 L 10.023438 -21.488281 L 10.582031 -21.726562 L 11.300781 -21.886719 L 13.859375 -21.964844 L 14.738281 -21.648438 L 15.335938 -21.167969 L 16.652344 -19.769531 L 17.890625 -19.371094 L 20.527344 -19.289062 L 21.246094 -19.371094 L 22.007812 -19.289062 L 22.765625 -19.769531 L 23.125 -20.527344 L 22.804688 -22.085938 L 22.164062 -23.523438 L 21.648438 -24.164062 L 21.246094 -24.800781 L 20.726562 -25.402344 L 18.171875 -27.15625 L 15.976562 -27.917969 L 15.136719 -28.078125 L 14.417969 -28.15625 L 13.539062 -28.355469 L 11.300781 -28.316406 L 8.148438 -27.675781 L 7.429688 -27.398438 L 6.789062 -27 L 6.152344 -26.757812 L 5.351562 -26.28125 L 4.792969 -25.761719 L 4.074219 -25.28125 L 3.632812 -24.601562 L 3.113281 -24.082031 L 2.835938 -23.363281 L 2.4375 -22.726562 L 1.878906 -20.410156 L 1.917969 -17.734375 L 2.195312 -16.613281 L 2.714844 -15.214844 L 3.714844 -13.898438 L 4.832031 -12.859375 L 6.230469 -12.019531 L 8.507812 -11.261719 L 9.945312 -10.941406 L 13.21875 -10.703125 L 13.9375 -10.582031 L 14.738281 -10.542969 L 16.175781 -9.945312 L 16.734375 -9.464844 L 16.933594 -8.425781 L 16.695312 -7.386719 L 16.054688 -6.828125 L 15.417969 -6.46875 L 13.9375 -6.03125 L 12.820312 -5.992188 L 11.621094 -6.070312 L 10.703125 -6.308594 L 10.105469 -6.589844 L 9.386719 -7.027344 L 8.785156 -7.589844 L 8.1875 -8.386719 L 7.386719 -8.707031 L 4.351562 -8.785156 L 3.554688 -8.707031 L 2.753906 -8.746094 L 1.957031 -8.386719 L 1.675781 -7.546875 L 1.757812 -6.667969 L 1.917969 -5.949219 L 2.554688 -4.351562 L 3.554688 -3.113281 L 4.710938 -1.957031 L 5.390625 -1.519531 L 8.265625 -0.199219 L 9.144531 -0.078125 L 9.90625 0.199219 Z M 11.582031 0.320312 "/></g></g></g><g fill="#ffb1b1" fill-opacity="0.302"><g transform="translate(324.38112, 145.694677)"><g><path d="M 0.519531 -1.078125 L 0.71875 -0.238281 L 1.519531 -0.0390625 L 5.03125 -0.0390625 L 6.070312 0.078125 L 6.988281 -0.320312 L 7.707031 -1.039062 L 8.386719 -2.394531 L 9.066406 -3.15625 L 10.023438 -3.554688 L 10.824219 -3.476562 L 13.058594 -3.515625 L 13.898438 -3.394531 L 14.816406 -3.515625 L 15.535156 -3.515625 L 16.375 -3.433594 L 18.25 -3.515625 L 19.570312 -3.074219 L 20.410156 -2.4375 L 20.609375 -1.71875 L 21.046875 -1 L 21.726562 -0.359375 L 22.765625 0.0390625 L 23.484375 -0.0390625 L 24.882812 0.078125 L 27.359375 0 L 28.078125 -0.238281 L 28.238281 -1.078125 L 27.996094 -2.078125 L 27.71875 -2.796875 L 27.199219 -3.476562 L 26.957031 -4.273438 L 26.558594 -4.871094 L 26.320312 -5.632812 L 25.640625 -7.070312 L 25.359375 -7.828125 L 24.960938 -8.507812 L 24.402344 -9.984375 L 23.964844 -10.625 L 23.644531 -11.421875 L 23.285156 -12.101562 L 23.003906 -12.898438 L 22.644531 -13.5 L 22.40625 -14.296875 L 21.964844 -15.015625 L 21.648438 -15.695312 L 21.246094 -16.375 L 21.046875 -17.132812 L 20.25 -18.53125 L 20.007812 -19.289062 L 19.289062 -20.808594 L 19.089844 -21.445312 L 18.492188 -22.84375 L 17.691406 -24.324219 L 17.054688 -25.839844 L 16.695312 -26.4375 L 16.453125 -27.199219 L 15.734375 -27.957031 L 14.378906 -28.316406 L 13.101562 -27.917969 L 12.339844 -27.199219 L 12.101562 -26.480469 L 10.382812 -22.882812 L 9.945312 -22.164062 L 7.707031 -17.132812 L 7.507812 -16.453125 L 7.070312 -15.734375 L 6.429688 -14.296875 L 5.832031 -13.257812 L 5.550781 -12.5 L 4.992188 -11.460938 L 4.753906 -10.625 L 4.394531 -9.984375 L 4.113281 -9.1875 L 2.996094 -7.109375 L 1.835938 -4.195312 L 1.359375 -3.554688 L 1 -2.753906 Z M 12.859375 -9.863281 L 12.101562 -10.183594 L 11.980469 -10.984375 L 13.578125 -14.617188 L 13.9375 -15.257812 L 14.457031 -15.65625 L 14.9375 -15.335938 L 15.457031 -13.777344 L 15.894531 -13.101562 L 16.054688 -12.460938 L 16.453125 -11.660156 L 16.734375 -10.941406 L 16.652344 -10.222656 L 15.976562 -9.90625 Z M 12.859375 -9.863281 "/></g></g></g><g fill="#ffb1b1" fill-opacity="0.302"><g transform="translate(353.375281, 145.694677)"><g><path d="M 2.996094 -1.160156 L 3.355469 -0.4375 L 4.632812 0.0390625 L 18.769531 -0.0390625 L 19.890625 -0.4375 L 20.328125 -1.160156 L 20.25 -2.035156 L 20.289062 -2.835938 L 20.367188 -3.554688 L 20.25 -4.433594 L 20.367188 -5.191406 L 19.847656 -6.070312 L 19.210938 -6.46875 L 18.332031 -6.351562 L 11.300781 -6.429688 L 10.464844 -6.789062 L 10.222656 -7.667969 L 10.265625 -9.144531 L 10.144531 -9.90625 L 10.183594 -10.785156 L 10.105469 -11.582031 L 10.183594 -12.421875 L 10.144531 -14.417969 L 10.265625 -15.535156 L 10.144531 -16.414062 L 10.265625 -17.253906 L 10.144531 -23.484375 L 10.222656 -24.363281 L 10.144531 -26.320312 L 9.746094 -27.515625 L 8.707031 -27.996094 L 4.554688 -27.917969 L 3.394531 -27.476562 L 2.875 -26.398438 L 3.113281 -24.324219 L 3.035156 -23.5625 L 2.914062 -22.726562 L 3.035156 -21.925781 L 3.113281 -21.167969 L 2.996094 -20.289062 L 3.035156 -19.53125 L 2.957031 -18.730469 L 3.074219 -17.890625 L 2.957031 -17.171875 L 3.035156 -16.375 L 2.914062 -15.617188 L 3.035156 -13.898438 L 2.914062 -13.140625 L 3.035156 -11.542969 L 2.914062 -10.742188 L 2.957031 -9.144531 L 3.035156 -8.425781 L 2.996094 -3.554688 L 3.074219 -2.753906 L 2.914062 -1.996094 Z M 2.996094 -1.160156 "/></g></g></g><g fill="#ffb1b1" fill-opacity="0.302"><g transform="translate(374.861317, 145.694677)"><g><path d="M 11.582031 0.320312 L 12.742188 0.4375 L 14.019531 0.398438 L 17.933594 -0.359375 L 20.007812 -1.476562 L 21.289062 -2.355469 L 22.40625 -3.632812 L 23.203125 -4.914062 L 23.523438 -5.632812 L 23.761719 -6.429688 L 23.882812 -7.148438 L 23.921875 -9.625 L 23.804688 -10.425781 L 23.605469 -11.183594 L 22.804688 -12.660156 L 21.847656 -13.898438 L 21.167969 -14.457031 L 19.050781 -15.417969 L 15.777344 -16.214844 L 11.742188 -16.734375 L 10.066406 -17.332031 L 9.464844 -17.652344 L 8.828125 -18.292969 L 8.785156 -19.371094 L 8.90625 -20.410156 L 9.34375 -20.96875 L 10.023438 -21.488281 L 10.582031 -21.726562 L 11.300781 -21.886719 L 13.859375 -21.964844 L 14.738281 -21.648438 L 15.335938 -21.167969 L 16.652344 -19.769531 L 17.890625 -19.371094 L 20.527344 -19.289062 L 21.246094 -19.371094 L 22.007812 -19.289062 L 22.765625 -19.769531 L 23.125 -20.527344 L 22.804688 -22.085938 L 22.164062 -23.523438 L 21.648438 -24.164062 L 21.246094 -24.800781 L 20.726562 -25.402344 L 18.171875 -27.15625 L 15.976562 -27.917969 L 15.136719 -28.078125 L 14.417969 -28.15625 L 13.539062 -28.355469 L 11.300781 -28.316406 L 8.148438 -27.675781 L 7.429688 -27.398438 L 6.789062 -27 L 6.152344 -26.757812 L 5.351562 -26.28125 L 4.792969 -25.761719 L 4.074219 -25.28125 L 3.632812 -24.601562 L 3.113281 -24.082031 L 2.835938 -23.363281 L 2.4375 -22.726562 L 1.878906 -20.410156 L 1.917969 -17.734375 L 2.195312 -16.613281 L 2.714844 -15.214844 L 3.714844 -13.898438 L 4.832031 -12.859375 L 6.230469 -12.019531 L 8.507812 -11.261719 L 9.945312 -10.941406 L 13.21875 -10.703125 L 13.9375 -10.582031 L 14.738281 -10.542969 L 16.175781 -9.945312 L 16.734375 -9.464844 L 16.933594 -8.425781 L 16.695312 -7.386719 L 16.054688 -6.828125 L 15.417969 -6.46875 L 13.9375 -6.03125 L 12.820312 -5.992188 L 11.621094 -6.070312 L 10.703125 -6.308594 L 10.105469 -6.589844 L 9.386719 -7.027344 L 8.785156 -7.589844 L 8.1875 -8.386719 L 7.386719 -8.707031 L 4.351562 -8.785156 L 3.554688 -8.707031 L 2.753906 -8.746094 L 1.957031 -8.386719 L 1.675781 -7.546875 L 1.757812 -6.667969 L 1.917969 -5.949219 L 2.554688 -4.351562 L 3.554688 -3.113281 L 4.710938 -1.957031 L 5.390625 -1.519531 L 8.265625 -0.199219 L 9.144531 -0.078125 L 9.90625 0.199219 Z M 11.582031 0.320312 "/></g></g></g><g fill="#ffb1b1" fill-opacity="0.502"><g transform="translate(54.959133, 143.929526)"><g><path d="M 23.5625 0.078125 L 25.082031 -0.0390625 L 25.839844 0.0390625 L 27.078125 0 L 28.195312 -0.199219 L 28.316406 -1.160156 L 28.035156 -2.078125 L 27.4375 -3.554688 L 26.359375 -5.632812 L 25.800781 -7.109375 L 25 -8.546875 L 23.484375 -12.179688 L 23.085938 -12.78125 L 22.683594 -13.539062 L 22.445312 -14.417969 L 22.085938 -15.015625 L 21.847656 -15.65625 L 21.007812 -17.132812 L 20.726562 -17.972656 L 18.09375 -23.523438 L 17.851562 -24.324219 L 17.414062 -25.042969 L 17.171875 -25.761719 L 16.414062 -27.15625 L 15.734375 -27.878906 L 14.417969 -28.277344 L 13.140625 -27.835938 L 12.421875 -27.15625 L 12.0625 -26.480469 L 11.78125 -25.679688 L 11.421875 -25.121094 L 9.824219 -21.445312 L 9.386719 -20.847656 L 9.1875 -20.050781 L 8.746094 -19.289062 L 8.507812 -18.570312 L 4.433594 -10.023438 L 4.195312 -9.144531 L 3.792969 -8.546875 L 3.515625 -7.746094 L 2.796875 -6.46875 L 2.195312 -4.871094 L 1.757812 -4.3125 L 1.558594 -3.59375 L 0.757812 -1.996094 L 0.519531 -1.199219 L 0.71875 -0.199219 L 1.519531 0.0390625 L 3.074219 -0.0390625 L 3.875 0.0390625 L 6.109375 -0.0390625 L 7.027344 -0.320312 L 7.789062 -1.039062 L 8.507812 -2.355469 L 9.265625 -3.113281 L 10.105469 -3.554688 L 10.863281 -3.433594 L 12.539062 -3.59375 L 13.257812 -3.476562 L 17.171875 -3.515625 L 17.890625 -3.433594 L 18.769531 -3.554688 L 19.648438 -3.113281 L 20.410156 -2.476562 L 20.769531 -1.71875 L 21.007812 -1 L 21.804688 -0.398438 L 22.726562 0 Z M 14.496094 -9.863281 L 13.699219 -10.023438 L 12.78125 -9.945312 L 12.140625 -10.222656 L 12.101562 -10.984375 L 13.976562 -15.296875 L 14.417969 -15.65625 L 14.976562 -15.335938 L 16.855469 -10.941406 L 16.695312 -10.222656 L 16.09375 -9.90625 Z M 14.496094 -9.863281 "/></g></g></g><g fill="#ffb1b1" fill-opacity="0.502"><g transform="translate(83.953294, 143.929526)"><g><path d="M 2.996094 -1.238281 L 3.476562 -0.359375 L 4.113281 0 L 5.03125 0 L 5.871094 0.121094 L 6.667969 0.121094 L 7.507812 0 L 14.699219 -0.0390625 L 17.253906 -0.398438 L 19.570312 -1.117188 L 22.964844 -3.394531 L 24.5625 -5.230469 L 25.800781 -7.230469 L 26 -7.988281 L 26.398438 -8.746094 L 26.558594 -9.546875 L 26.839844 -10.265625 L 26.957031 -11.101562 L 27.15625 -11.941406 L 27.117188 -12.621094 L 27.277344 -15.175781 L 26.679688 -17.453125 L 26.597656 -18.292969 L 26.398438 -19.011719 L 25.800781 -20.609375 L 24.882812 -21.964844 L 24.5625 -22.644531 L 23.523438 -23.882812 L 22.84375 -24.402344 L 21.726562 -25.480469 L 20.25 -26.398438 L 19.449219 -26.796875 L 17.253906 -27.515625 L 15.617188 -27.835938 L 9.945312 -27.878906 L 9.144531 -27.957031 L 6.589844 -27.878906 L 5.792969 -27.957031 L 5.070312 -27.917969 L 4.234375 -27.957031 L 3.515625 -27.515625 L 2.914062 -26.757812 L 2.914062 -25.121094 L 2.996094 -24.324219 L 2.957031 -23.523438 L 3.035156 -22.007812 L 2.914062 -21.128906 L 3.035156 -20.328125 L 2.914062 -19.53125 L 3.074219 -16.335938 L 2.957031 -14.816406 L 3.074219 -13.101562 L 2.957031 -12.339844 L 3.074219 -11.503906 L 2.957031 -9.945312 L 3.035156 -6.75 L 2.957031 -5.949219 L 3.074219 -2.753906 Z M 11.460938 -6.429688 L 10.503906 -6.789062 L 10.144531 -7.667969 L 10.222656 -8.46875 L 10.066406 -9.1875 L 10.183594 -9.984375 L 10.183594 -20.25 L 10.664062 -20.96875 L 11.820312 -21.40625 L 12.660156 -21.367188 L 13.5 -21.40625 L 14.699219 -21.328125 L 16.292969 -20.847656 L 17.652344 -19.96875 L 18.652344 -18.851562 L 19.089844 -18.09375 L 19.609375 -17.453125 L 20.089844 -15.097656 L 20.207031 -13.859375 L 20.007812 -11.902344 L 19.769531 -11.144531 L 19.171875 -9.703125 L 18.652344 -8.984375 L 18.132812 -8.425781 L 17.652344 -7.789062 L 17.015625 -7.386719 L 16.214844 -6.988281 L 14.777344 -6.589844 Z M 11.460938 -6.429688 "/></g></g></g><g fill="#ffb1b1" fill-opacity="0.502"><g transform="translate(112.987392, 143.929526)"><g><path d="M 2.996094 -1.238281 L 3.476562 -0.359375 L 4.113281 0 L 5.03125 0 L 5.871094 0.121094 L 6.667969 0.121094 L 7.507812 0 L 14.699219 -0.0390625 L 17.253906 -0.398438 L 19.570312 -1.117188 L 22.964844 -3.394531 L 24.5625 -5.230469 L 25.800781 -7.230469 L 26 -7.988281 L 26.398438 -8.746094 L 26.558594 -9.546875 L 26.839844 -10.265625 L 26.957031 -11.101562 L 27.15625 -11.941406 L 27.117188 -12.621094 L 27.277344 -15.175781 L 26.679688 -17.453125 L 26.597656 -18.292969 L 26.398438 -19.011719 L 25.800781 -20.609375 L 24.882812 -21.964844 L 24.5625 -22.644531 L 23.523438 -23.882812 L 22.84375 -24.402344 L 21.726562 -25.480469 L 20.25 -26.398438 L 19.449219 -26.796875 L 17.253906 -27.515625 L 15.617188 -27.835938 L 9.945312 -27.878906 L 9.144531 -27.957031 L 6.589844 -27.878906 L 5.792969 -27.957031 L 5.070312 -27.917969 L 4.234375 -27.957031 L 3.515625 -27.515625 L 2.914062 -26.757812 L 2.914062 -25.121094 L 2.996094 -24.324219 L 2.957031 -23.523438 L 3.035156 -22.007812 L 2.914062 -21.128906 L 3.035156 -20.328125 L 2.914062 -19.53125 L 3.074219 -16.335938 L 2.957031 -14.816406 L 3.074219 -13.101562 L 2.957031 -12.339844 L 3.074219 -11.503906 L 2.957031 -9.945312 L 3.035156 -6.75 L 2.957031 -5.949219 L 3.074219 -2.753906 Z M 11.460938 -6.429688 L 10.503906 -6.789062 L 10.144531 -7.667969 L 10.222656 -8.46875 L 10.066406 -9.1875 L 10.183594 -9.984375 L 10.183594 -20.25 L 10.664062 -20.96875 L 11.820312 -21.40625 L 12.660156 -21.367188 L 13.5 -21.40625 L 14.699219 -21.328125 L 16.292969 -20.847656 L 17.652344 -19.96875 L 18.652344 -18.851562 L 19.089844 -18.09375 L 19.609375 -17.453125 L 20.089844 -15.097656 L 20.207031 -13.859375 L 20.007812 -11.902344 L 19.769531 -11.144531 L 19.171875 -9.703125 L 18.652344 -8.984375 L 18.132812 -8.425781 L 17.652344 -7.789062 L 17.015625 -7.386719 L 16.214844 -6.988281 L 14.777344 -6.589844 Z M 11.460938 -6.429688 "/></g></g></g><g fill="#ffb1b1" fill-opacity="0.502"><g transform="translate(142.021491, 143.929526)"><g/></g></g><g fill="#ffb1b1" fill-opacity="0.502"><g transform="translate(152.844385, 143.929526)"><g><path d="M 5.351562 0.121094 L 7.308594 0.0390625 L 8.027344 0.078125 L 8.945312 0 L 9.785156 -0.320312 L 10.144531 -1.160156 L 10.105469 -1.957031 L 10.144531 -2.835938 L 10.066406 -4.3125 L 10.144531 -5.070312 L 10.105469 -5.992188 L 10.464844 -6.710938 L 11.382812 -7.148438 L 12.261719 -7.230469 L 13.101562 -7.070312 L 17.214844 -7.386719 L 21.007812 -8.90625 L 21.605469 -9.386719 L 22.164062 -10.023438 L 22.683594 -10.542969 L 23.203125 -11.144531 L 24.042969 -12.421875 L 24.722656 -13.976562 L 24.839844 -14.855469 L 25.082031 -15.496094 L 25.160156 -18.769531 L 25 -19.449219 L 24.882812 -20.328125 L 24.402344 -21.804688 L 23.644531 -23.164062 L 22.683594 -24.480469 L 20.886719 -26.039062 L 19.570312 -26.917969 L 17.972656 -27.398438 L 17.292969 -27.675781 L 16.496094 -27.675781 L 15.695312 -27.957031 L 14.496094 -27.996094 L 13.21875 -27.957031 L 12.339844 -27.835938 L 9.90625 -27.878906 L 9.105469 -27.996094 L 6.628906 -27.835938 L 5.75 -27.878906 L 5.03125 -27.996094 L 4.195312 -27.835938 L 3.355469 -27.398438 L 2.996094 -26.757812 L 3.035156 -21.925781 L 2.875 -20.328125 L 2.957031 -19.570312 L 2.914062 -9.226562 L 2.996094 -8.46875 L 2.957031 -1.078125 L 3.394531 -0.320312 L 4.632812 0.078125 Z M 11.34375 -13.539062 L 10.542969 -14.019531 L 10.183594 -14.699219 L 10.066406 -17.933594 L 10.144531 -18.769531 L 10.144531 -20.410156 L 10.542969 -21.167969 L 11.382812 -21.566406 L 15.535156 -21.445312 L 16.335938 -21.085938 L 16.972656 -20.648438 L 17.492188 -20.128906 L 17.890625 -19.332031 L 18.011719 -18.609375 L 18.09375 -17.492188 L 18.011719 -16.414062 L 17.734375 -15.695312 L 17.375 -15.058594 L 16.855469 -14.417969 L 16.214844 -13.9375 L 15.574219 -13.738281 L 14.335938 -13.578125 L 12.300781 -13.617188 Z M 11.34375 -13.539062 "/></g></g></g><g fill="#ffb1b1" fill-opacity="0.502"><g transform="translate(179.122835, 143.929526)"><g><path d="M 3.074219 -1.277344 L 3.355469 -0.398438 L 4.152344 0 L 4.914062 0.0390625 L 6.550781 -0.078125 L 7.386719 0 L 8.585938 0 L 9.824219 -0.398438 L 10.105469 -1.160156 L 10.183594 -1.996094 L 10.023438 -2.835938 L 10.144531 -4.554688 L 10.066406 -7.027344 L 10.425781 -7.828125 L 11.222656 -8.226562 L 11.941406 -8.226562 L 12.660156 -8.265625 L 13.660156 -7.949219 L 14.296875 -7.269531 L 15.335938 -5.871094 L 15.617188 -5.113281 L 16.734375 -3.113281 L 17.253906 -2.355469 L 17.613281 -1.675781 L 18.09375 -1.039062 L 18.890625 -0.320312 L 19.890625 -0.078125 L 21.328125 0 L 22.207031 -0.078125 L 23.003906 0 L 24.601562 0 L 25.480469 -0.078125 L 26.320312 -0.28125 L 26.480469 -1.117188 L 25.960938 -2.117188 L 24.683594 -4.074219 L 24.324219 -4.753906 L 23.84375 -5.472656 L 23.445312 -6.191406 L 22.925781 -6.828125 L 21.726562 -8.90625 L 21.605469 -9.863281 L 22.046875 -10.703125 L 23.164062 -11.78125 L 23.644531 -12.460938 L 23.921875 -13.21875 L 24.363281 -13.9375 L 24.640625 -14.617188 L 25.082031 -16.136719 L 25.121094 -19.289062 L 24.921875 -20.050781 L 24.800781 -20.808594 L 24.601562 -21.605469 L 23.523438 -23.804688 L 22.964844 -24.402344 L 22.605469 -25 L 20.609375 -26.519531 L 19.210938 -27.238281 L 15.894531 -27.917969 L 14.898438 -27.996094 L 13.738281 -27.957031 L 12.859375 -27.996094 L 12.0625 -27.917969 L 11.183594 -27.996094 L 10.503906 -27.917969 L 8.109375 -27.996094 L 7.347656 -27.878906 L 5.710938 -28.035156 L 4.953125 -27.917969 L 4.074219 -27.957031 L 3.316406 -27.597656 L 2.996094 -26.757812 L 2.875 -15.574219 L 2.996094 -14.417969 L 2.996094 -12.421875 L 2.914062 -11.582031 L 2.875 -10.066406 L 2.996094 -9.1875 L 2.875 -7.546875 L 3.035156 -5.230469 L 2.957031 -4.394531 Z M 11.222656 -14.699219 L 10.542969 -15.058594 L 10.144531 -15.894531 L 10.023438 -20.367188 L 10.503906 -21.167969 L 11.300781 -21.566406 L 11.941406 -21.605469 L 14.136719 -21.566406 L 15.976562 -21.328125 L 17.214844 -20.566406 L 17.613281 -19.96875 L 17.890625 -19.332031 L 17.972656 -18.171875 L 17.851562 -17.09375 L 17.53125 -16.292969 L 17.09375 -15.617188 L 16.613281 -15.136719 L 16.015625 -14.855469 L 12.898438 -14.578125 L 12.101562 -14.699219 Z M 11.222656 -14.699219 "/></g></g></g><g fill="#ffb1b1" fill-opacity="0.502"><g transform="translate(206.799078, 143.929526)"><g><path d="M 14.9375 0.480469 L 17.171875 0.4375 L 19.570312 0.121094 L 22.566406 -0.878906 L 23.882812 -1.597656 L 24.480469 -2.078125 L 25.242188 -2.4375 L 26.359375 -3.394531 L 26.878906 -4.113281 L 27.4375 -4.671875 L 29.195312 -7.347656 L 29.792969 -8.867188 L 30.113281 -10.382812 L 30.152344 -11.101562 L 30.351562 -11.902344 L 30.394531 -12.742188 L 30.554688 -13.898438 L 30.433594 -15.894531 L 30.152344 -17.53125 L 29.15625 -20.527344 L 28.394531 -22.007812 L 27.515625 -23.203125 L 26.398438 -24.441406 L 25.242188 -25.441406 L 24.324219 -26.078125 L 23.125 -26.597656 L 22.523438 -27.039062 L 19.449219 -27.996094 L 17.132812 -28.394531 L 16.054688 -28.4375 L 11.820312 -27.835938 L 8.828125 -26.71875 L 8.226562 -26.28125 L 7.507812 -25.921875 L 6.152344 -24.921875 L 4.195312 -22.644531 L 2.957031 -20.527344 L 2.355469 -19.011719 L 1.675781 -15.933594 L 1.558594 -12.699219 L 1.675781 -11.863281 L 1.878906 -11.144531 L 1.957031 -10.382812 L 2.316406 -8.867188 L 4.152344 -5.230469 L 4.632812 -4.753906 L 5.152344 -4.113281 L 5.75 -3.554688 L 6.191406 -3.035156 L 7.507812 -1.996094 L 10.625 -0.398438 L 11.78125 0 L 12.660156 0.078125 L 14.097656 0.398438 Z M 17.171875 -6.589844 L 14.976562 -6.589844 L 14.097656 -6.710938 L 12.660156 -7.308594 L 12.019531 -7.667969 L 10.941406 -8.546875 L 10.425781 -9.105469 L 9.863281 -9.863281 L 9.664062 -10.503906 L 9.304688 -11.222656 L 8.984375 -12.699219 L 8.984375 -15.136719 L 9.1875 -15.855469 L 9.304688 -16.613281 L 9.625 -17.332031 L 9.863281 -18.050781 L 10.824219 -19.332031 L 12.820312 -20.6875 L 13.339844 -20.886719 L 14.898438 -21.289062 L 16.015625 -21.367188 L 17.933594 -21.128906 L 18.652344 -20.96875 L 19.371094 -20.648438 L 20.609375 -19.769531 L 22.164062 -18.132812 L 22.644531 -16.613281 L 23.003906 -15.855469 L 23.125 -15.136719 L 23.042969 -12.699219 L 22.726562 -11.222656 L 22.445312 -10.503906 L 22.007812 -9.785156 L 21.765625 -9.1875 L 21.207031 -8.546875 L 19.289062 -7.230469 L 18.570312 -7.027344 L 17.972656 -6.75 Z M 17.171875 -6.589844 "/></g></g></g><g fill="#ffb1b1" fill-opacity="0.502"><g transform="translate(238.828442, 143.929526)"><g><path d="M 2.957031 -1.238281 L 3.273438 -0.398438 L 4.113281 -0.078125 L 4.914062 0 L 7.269531 -0.0390625 L 8.148438 0.0390625 L 8.984375 0.0390625 L 9.785156 -0.398438 L 10.144531 -1.238281 L 10.183594 -2.835938 L 10.105469 -3.59375 L 10.222656 -4.3125 L 10.144531 -5.191406 L 10.144531 -6.03125 L 10.425781 -6.710938 L 11.503906 -7.109375 L 12.382812 -7.230469 L 13.578125 -7.109375 L 15.65625 -7.148438 L 17.292969 -7.46875 L 19.609375 -8.148438 L 20.96875 -8.984375 L 21.605469 -9.464844 L 22.804688 -10.625 L 24.082031 -12.539062 L 24.441406 -13.257812 L 24.722656 -13.976562 L 25.082031 -15.617188 L 25.160156 -16.335938 L 25.199219 -18.691406 L 24.480469 -21.804688 L 23.683594 -23.242188 L 23.164062 -23.921875 L 22.644531 -24.480469 L 22.207031 -25.082031 L 21.527344 -25.679688 L 20.328125 -26.480469 L 18.890625 -27.238281 L 18.050781 -27.398438 L 17.253906 -27.71875 L 16.535156 -27.878906 L 4.59375 -27.917969 L 3.515625 -27.558594 L 3.113281 -26.796875 L 3.035156 -25.960938 L 3.035156 -24.324219 L 2.914062 -23.605469 L 2.914062 -22.84375 L 3.035156 -22.007812 L 3.035156 -17.933594 L 2.957031 -17.132812 L 3.035156 -16.414062 L 2.957031 -15.535156 L 3.074219 -13.898438 L 2.914062 -12.820312 L 3.035156 -11.621094 L 2.957031 -10.863281 L 2.957031 -9.1875 L 3.074219 -8.425781 L 2.957031 -6.828125 L 3.074219 -4.3125 L 2.875 -3.515625 L 3.035156 -2.753906 L 2.914062 -1.996094 Z M 11.421875 -13.617188 L 10.664062 -13.976562 L 10.183594 -14.777344 L 10.105469 -20.328125 L 10.582031 -21.207031 L 11.382812 -21.527344 L 12.382812 -21.605469 L 15.574219 -21.445312 L 16.253906 -21.085938 L 16.855469 -20.648438 L 17.492188 -20.050781 L 17.890625 -19.371094 L 18.25 -17.492188 L 17.8125 -15.65625 L 16.894531 -14.539062 L 16.253906 -14.097656 L 15.617188 -13.738281 L 12.339844 -13.539062 Z M 11.421875 -13.617188 "/></g></g></g><g fill="#ffb1b1" fill-opacity="0.502"><g transform="translate(265.10688, 143.929526)"><g><path d="M 14.9375 0.480469 L 17.171875 0.4375 L 19.570312 0.121094 L 22.566406 -0.878906 L 23.882812 -1.597656 L 24.480469 -2.078125 L 25.242188 -2.4375 L 26.359375 -3.394531 L 26.878906 -4.113281 L 27.4375 -4.671875 L 29.195312 -7.347656 L 29.792969 -8.867188 L 30.113281 -10.382812 L 30.152344 -11.101562 L 30.351562 -11.902344 L 30.394531 -12.742188 L 30.554688 -13.898438 L 30.433594 -15.894531 L 30.152344 -17.53125 L 29.15625 -20.527344 L 28.394531 -22.007812 L 27.515625 -23.203125 L 26.398438 -24.441406 L 25.242188 -25.441406 L 24.324219 -26.078125 L 23.125 -26.597656 L 22.523438 -27.039062 L 19.449219 -27.996094 L 17.132812 -28.394531 L 16.054688 -28.4375 L 11.820312 -27.835938 L 8.828125 -26.71875 L 8.226562 -26.28125 L 7.507812 -25.921875 L 6.152344 -24.921875 L 4.195312 -22.644531 L 2.957031 -20.527344 L 2.355469 -19.011719 L 1.675781 -15.933594 L 1.558594 -12.699219 L 1.675781 -11.863281 L 1.878906 -11.144531 L 1.957031 -10.382812 L 2.316406 -8.867188 L 4.152344 -5.230469 L 4.632812 -4.753906 L 5.152344 -4.113281 L 5.75 -3.554688 L 6.191406 -3.035156 L 7.507812 -1.996094 L 10.625 -0.398438 L 11.78125 0 L 12.660156 0.078125 L 14.097656 0.398438 Z M 17.171875 -6.589844 L 14.976562 -6.589844 L 14.097656 -6.710938 L 12.660156 -7.308594 L 12.019531 -7.667969 L 10.941406 -8.546875 L 10.425781 -9.105469 L 9.863281 -9.863281 L 9.664062 -10.503906 L 9.304688 -11.222656 L 8.984375 -12.699219 L 8.984375 -15.136719 L 9.1875 -15.855469 L 9.304688 -16.613281 L 9.625 -17.332031 L 9.863281 -18.050781 L 10.824219 -19.332031 L 12.820312 -20.6875 L 13.339844 -20.886719 L 14.898438 -21.289062 L 16.015625 -21.367188 L 17.933594 -21.128906 L 18.652344 -20.96875 L 19.371094 -20.648438 L 20.609375 -19.769531 L 22.164062 -18.132812 L 22.644531 -16.613281 L 23.003906 -15.855469 L 23.125 -15.136719 L 23.042969 -12.699219 L 22.726562 -11.222656 L 22.445312 -10.503906 L 22.007812 -9.785156 L 21.765625 -9.1875 L 21.207031 -8.546875 L 19.289062 -7.230469 L 18.570312 -7.027344 L 17.972656 -6.75 Z M 17.171875 -6.589844 "/></g></g></g><g fill="#ffb1b1" fill-opacity="0.502"><g transform="translate(297.136255, 143.929526)"><g><path d="M 11.582031 0.320312 L 12.742188 0.4375 L 14.019531 0.398438 L 17.933594 -0.359375 L 20.007812 -1.476562 L 21.289062 -2.355469 L 22.40625 -3.632812 L 23.203125 -4.914062 L 23.523438 -5.632812 L 23.761719 -6.429688 L 23.882812 -7.148438 L 23.921875 -9.625 L 23.804688 -10.425781 L 23.605469 -11.183594 L 22.804688 -12.660156 L 21.847656 -13.898438 L 21.167969 -14.457031 L 19.050781 -15.417969 L 15.777344 -16.214844 L 11.742188 -16.734375 L 10.066406 -17.332031 L 9.464844 -17.652344 L 8.828125 -18.292969 L 8.785156 -19.371094 L 8.90625 -20.410156 L 9.34375 -20.96875 L 10.023438 -21.488281 L 10.582031 -21.726562 L 11.300781 -21.886719 L 13.859375 -21.964844 L 14.738281 -21.648438 L 15.335938 -21.167969 L 16.652344 -19.769531 L 17.890625 -19.371094 L 20.527344 -19.289062 L 21.246094 -19.371094 L 22.007812 -19.289062 L 22.765625 -19.769531 L 23.125 -20.527344 L 22.804688 -22.085938 L 22.164062 -23.523438 L 21.648438 -24.164062 L 21.246094 -24.800781 L 20.726562 -25.402344 L 18.171875 -27.15625 L 15.976562 -27.917969 L 15.136719 -28.078125 L 14.417969 -28.15625 L 13.539062 -28.355469 L 11.300781 -28.316406 L 8.148438 -27.675781 L 7.429688 -27.398438 L 6.789062 -27 L 6.152344 -26.757812 L 5.351562 -26.28125 L 4.792969 -25.761719 L 4.074219 -25.28125 L 3.632812 -24.601562 L 3.113281 -24.082031 L 2.835938 -23.363281 L 2.4375 -22.726562 L 1.878906 -20.410156 L 1.917969 -17.734375 L 2.195312 -16.613281 L 2.714844 -15.214844 L 3.714844 -13.898438 L 4.832031 -12.859375 L 6.230469 -12.019531 L 8.507812 -11.261719 L 9.945312 -10.941406 L 13.21875 -10.703125 L 13.9375 -10.582031 L 14.738281 -10.542969 L 16.175781 -9.945312 L 16.734375 -9.464844 L 16.933594 -8.425781 L 16.695312 -7.386719 L 16.054688 -6.828125 L 15.417969 -6.46875 L 13.9375 -6.03125 L 12.820312 -5.992188 L 11.621094 -6.070312 L 10.703125 -6.308594 L 10.105469 -6.589844 L 9.386719 -7.027344 L 8.785156 -7.589844 L 8.1875 -8.386719 L 7.386719 -8.707031 L 4.351562 -8.785156 L 3.554688 -8.707031 L 2.753906 -8.746094 L 1.957031 -8.386719 L 1.675781 -7.546875 L 1.757812 -6.667969 L 1.917969 -5.949219 L 2.554688 -4.351562 L 3.554688 -3.113281 L 4.710938 -1.957031 L 5.390625 -1.519531 L 8.265625 -0.199219 L 9.144531 -0.078125 L 9.90625 0.199219 Z M 11.582031 0.320312 "/></g></g></g><g fill="#ffb1b1" fill-opacity="0.502"><g transform="translate(322.61597, 143.929526)"><g><path d="M 0.519531 -1.078125 L 0.71875 -0.238281 L 1.519531 -0.0390625 L 5.03125 -0.0390625 L 6.070312 0.078125 L 6.988281 -0.320312 L 7.707031 -1.039062 L 8.386719 -2.394531 L 9.066406 -3.15625 L 10.023438 -3.554688 L 10.824219 -3.476562 L 13.058594 -3.515625 L 13.898438 -3.394531 L 14.816406 -3.515625 L 15.535156 -3.515625 L 16.375 -3.433594 L 18.25 -3.515625 L 19.570312 -3.074219 L 20.410156 -2.4375 L 20.609375 -1.71875 L 21.046875 -1 L 21.726562 -0.359375 L 22.765625 0.0390625 L 23.484375 -0.0390625 L 24.882812 0.078125 L 27.359375 0 L 28.078125 -0.238281 L 28.238281 -1.078125 L 27.996094 -2.078125 L 27.71875 -2.796875 L 27.199219 -3.476562 L 26.957031 -4.273438 L 26.558594 -4.871094 L 26.320312 -5.632812 L 25.640625 -7.070312 L 25.359375 -7.828125 L 24.960938 -8.507812 L 24.402344 -9.984375 L 23.964844 -10.625 L 23.644531 -11.421875 L 23.285156 -12.101562 L 23.003906 -12.898438 L 22.644531 -13.5 L 22.40625 -14.296875 L 21.964844 -15.015625 L 21.648438 -15.695312 L 21.246094 -16.375 L 21.046875 -17.132812 L 20.25 -18.53125 L 20.007812 -19.289062 L 19.289062 -20.808594 L 19.089844 -21.445312 L 18.492188 -22.84375 L 17.691406 -24.324219 L 17.054688 -25.839844 L 16.695312 -26.4375 L 16.453125 -27.199219 L 15.734375 -27.957031 L 14.378906 -28.316406 L 13.101562 -27.917969 L 12.339844 -27.199219 L 12.101562 -26.480469 L 10.382812 -22.882812 L 9.945312 -22.164062 L 7.707031 -17.132812 L 7.507812 -16.453125 L 7.070312 -15.734375 L 6.429688 -14.296875 L 5.832031 -13.257812 L 5.550781 -12.5 L 4.992188 -11.460938 L 4.753906 -10.625 L 4.394531 -9.984375 L 4.113281 -9.1875 L 2.996094 -7.109375 L 1.835938 -4.195312 L 1.359375 -3.554688 L 1 -2.753906 Z M 12.859375 -9.863281 L 12.101562 -10.183594 L 11.980469 -10.984375 L 13.578125 -14.617188 L 13.9375 -15.257812 L 14.457031 -15.65625 L 14.9375 -15.335938 L 15.457031 -13.777344 L 15.894531 -13.101562 L 16.054688 -12.460938 L 16.453125 -11.660156 L 16.734375 -10.941406 L 16.652344 -10.222656 L 15.976562 -9.90625 Z M 12.859375 -9.863281 "/></g></g></g><g fill="#ffb1b1" fill-opacity="0.502"><g transform="translate(351.610131, 143.929526)"><g><path d="M 2.996094 -1.160156 L 3.355469 -0.4375 L 4.632812 0.0390625 L 18.769531 -0.0390625 L 19.890625 -0.4375 L 20.328125 -1.160156 L 20.25 -2.035156 L 20.289062 -2.835938 L 20.367188 -3.554688 L 20.25 -4.433594 L 20.367188 -5.191406 L 19.847656 -6.070312 L 19.210938 -6.46875 L 18.332031 -6.351562 L 11.300781 -6.429688 L 10.464844 -6.789062 L 10.222656 -7.667969 L 10.265625 -9.144531 L 10.144531 -9.90625 L 10.183594 -10.785156 L 10.105469 -11.582031 L 10.183594 -12.421875 L 10.144531 -14.417969 L 10.265625 -15.535156 L 10.144531 -16.414062 L 10.265625 -17.253906 L 10.144531 -23.484375 L 10.222656 -24.363281 L 10.144531 -26.320312 L 9.746094 -27.515625 L 8.707031 -27.996094 L 4.554688 -27.917969 L 3.394531 -27.476562 L 2.875 -26.398438 L 3.113281 -24.324219 L 3.035156 -23.5625 L 2.914062 -22.726562 L 3.035156 -21.925781 L 3.113281 -21.167969 L 2.996094 -20.289062 L 3.035156 -19.53125 L 2.957031 -18.730469 L 3.074219 -17.890625 L 2.957031 -17.171875 L 3.035156 -16.375 L 2.914062 -15.617188 L 3.035156 -13.898438 L 2.914062 -13.140625 L 3.035156 -11.542969 L 2.914062 -10.742188 L 2.957031 -9.144531 L 3.035156 -8.425781 L 2.996094 -3.554688 L 3.074219 -2.753906 L 2.914062 -1.996094 Z M 2.996094 -1.160156 "/></g></g></g><g fill="#ffb1b1" fill-opacity="0.502"><g transform="translate(373.096167, 143.929526)"><g><path d="M 11.582031 0.320312 L 12.742188 0.4375 L 14.019531 0.398438 L 17.933594 -0.359375 L 20.007812 -1.476562 L 21.289062 -2.355469 L 22.40625 -3.632812 L 23.203125 -4.914062 L 23.523438 -5.632812 L 23.761719 -6.429688 L 23.882812 -7.148438 L 23.921875 -9.625 L 23.804688 -10.425781 L 23.605469 -11.183594 L 22.804688 -12.660156 L 21.847656 -13.898438 L 21.167969 -14.457031 L 19.050781 -15.417969 L 15.777344 -16.214844 L 11.742188 -16.734375 L 10.066406 -17.332031 L 9.464844 -17.652344 L 8.828125 -18.292969 L 8.785156 -19.371094 L 8.90625 -20.410156 L 9.34375 -20.96875 L 10.023438 -21.488281 L 10.582031 -21.726562 L 11.300781 -21.886719 L 13.859375 -21.964844 L 14.738281 -21.648438 L 15.335938 -21.167969 L 16.652344 -19.769531 L 17.890625 -19.371094 L 20.527344 -19.289062 L 21.246094 -19.371094 L 22.007812 -19.289062 L 22.765625 -19.769531 L 23.125 -20.527344 L 22.804688 -22.085938 L 22.164062 -23.523438 L 21.648438 -24.164062 L 21.246094 -24.800781 L 20.726562 -25.402344 L 18.171875 -27.15625 L 15.976562 -27.917969 L 15.136719 -28.078125 L 14.417969 -28.15625 L 13.539062 -28.355469 L 11.300781 -28.316406 L 8.148438 -27.675781 L 7.429688 -27.398438 L 6.789062 -27 L 6.152344 -26.757812 L 5.351562 -26.28125 L 4.792969 -25.761719 L 4.074219 -25.28125 L 3.632812 -24.601562 L 3.113281 -24.082031 L 2.835938 -23.363281 L 2.4375 -22.726562 L 1.878906 -20.410156 L 1.917969 -17.734375 L 2.195312 -16.613281 L 2.714844 -15.214844 L 3.714844 -13.898438 L 4.832031 -12.859375 L 6.230469 -12.019531 L 8.507812 -11.261719 L 9.945312 -10.941406 L 13.21875 -10.703125 L 13.9375 -10.582031 L 14.738281 -10.542969 L 16.175781 -9.945312 L 16.734375 -9.464844 L 16.933594 -8.425781 L 16.695312 -7.386719 L 16.054688 -6.828125 L 15.417969 -6.46875 L 13.9375 -6.03125 L 12.820312 -5.992188 L 11.621094 -6.070312 L 10.703125 -6.308594 L 10.105469 -6.589844 L 9.386719 -7.027344 L 8.785156 -7.589844 L 8.1875 -8.386719 L 7.386719 -8.707031 L 4.351562 -8.785156 L 3.554688 -8.707031 L 2.753906 -8.746094 L 1.957031 -8.386719 L 1.675781 -7.546875 L 1.757812 -6.667969 L 1.917969 -5.949219 L 2.554688 -4.351562 L 3.554688 -3.113281 L 4.710938 -1.957031 L 5.390625 -1.519531 L 8.265625 -0.199219 L 9.144531 -0.078125 L 9.90625 0.199219 Z M 11.582031 0.320312 "/></g></g></g><g fill="#d9d9d9" fill-opacity="1"><g transform="translate(53.193983, 142.164376)"><g><path d="M 23.5625 0.078125 L 25.082031 -0.0390625 L 25.839844 0.0390625 L 27.078125 0 L 28.195312 -0.199219 L 28.316406 -1.160156 L 28.035156 -2.078125 L 27.4375 -3.554688 L 26.359375 -5.632812 L 25.800781 -7.109375 L 25 -8.546875 L 23.484375 -12.179688 L 23.085938 -12.78125 L 22.683594 -13.539062 L 22.445312 -14.417969 L 22.085938 -15.015625 L 21.847656 -15.65625 L 21.007812 -17.132812 L 20.726562 -17.972656 L 18.09375 -23.523438 L 17.851562 -24.324219 L 17.414062 -25.042969 L 17.171875 -25.761719 L 16.414062 -27.15625 L 15.734375 -27.878906 L 14.417969 -28.277344 L 13.140625 -27.835938 L 12.421875 -27.15625 L 12.0625 -26.480469 L 11.78125 -25.679688 L 11.421875 -25.121094 L 9.824219 -21.445312 L 9.386719 -20.847656 L 9.1875 -20.050781 L 8.746094 -19.289062 L 8.507812 -18.570312 L 4.433594 -10.023438 L 4.195312 -9.144531 L 3.792969 -8.546875 L 3.515625 -7.746094 L 2.796875 -6.46875 L 2.195312 -4.871094 L 1.757812 -4.3125 L 1.558594 -3.59375 L 0.757812 -1.996094 L 0.519531 -1.199219 L 0.71875 -0.199219 L 1.519531 0.0390625 L 3.074219 -0.0390625 L 3.875 0.0390625 L 6.109375 -0.0390625 L 7.027344 -0.320312 L 7.789062 -1.039062 L 8.507812 -2.355469 L 9.265625 -3.113281 L 10.105469 -3.554688 L 10.863281 -3.433594 L 12.539062 -3.59375 L 13.257812 -3.476562 L 17.171875 -3.515625 L 17.890625 -3.433594 L 18.769531 -3.554688 L 19.648438 -3.113281 L 20.410156 -2.476562 L 20.769531 -1.71875 L 21.007812 -1 L 21.804688 -0.398438 L 22.726562 0 Z M 14.496094 -9.863281 L 13.699219 -10.023438 L 12.78125 -9.945312 L 12.140625 -10.222656 L 12.101562 -10.984375 L 13.976562 -15.296875 L 14.417969 -15.65625 L 14.976562 -15.335938 L 16.855469 -10.941406 L 16.695312 -10.222656 L 16.09375 -9.90625 Z M 14.496094 -9.863281 "/></g></g></g><g fill="#d9d9d9" fill-opacity="1"><g transform="translate(82.188144, 142.164376)"><g><path d="M 2.996094 -1.238281 L 3.476562 -0.359375 L 4.113281 0 L 5.03125 0 L 5.871094 0.121094 L 6.667969 0.121094 L 7.507812 0 L 14.699219 -0.0390625 L 17.253906 -0.398438 L 19.570312 -1.117188 L 22.964844 -3.394531 L 24.5625 -5.230469 L 25.800781 -7.230469 L 26 -7.988281 L 26.398438 -8.746094 L 26.558594 -9.546875 L 26.839844 -10.265625 L 26.957031 -11.101562 L 27.15625 -11.941406 L 27.117188 -12.621094 L 27.277344 -15.175781 L 26.679688 -17.453125 L 26.597656 -18.292969 L 26.398438 -19.011719 L 25.800781 -20.609375 L 24.882812 -21.964844 L 24.5625 -22.644531 L 23.523438 -23.882812 L 22.84375 -24.402344 L 21.726562 -25.480469 L 20.25 -26.398438 L 19.449219 -26.796875 L 17.253906 -27.515625 L 15.617188 -27.835938 L 9.945312 -27.878906 L 9.144531 -27.957031 L 6.589844 -27.878906 L 5.792969 -27.957031 L 5.070312 -27.917969 L 4.234375 -27.957031 L 3.515625 -27.515625 L 2.914062 -26.757812 L 2.914062 -25.121094 L 2.996094 -24.324219 L 2.957031 -23.523438 L 3.035156 -22.007812 L 2.914062 -21.128906 L 3.035156 -20.328125 L 2.914062 -19.53125 L 3.074219 -16.335938 L 2.957031 -14.816406 L 3.074219 -13.101562 L 2.957031 -12.339844 L 3.074219 -11.503906 L 2.957031 -9.945312 L 3.035156 -6.75 L 2.957031 -5.949219 L 3.074219 -2.753906 Z M 11.460938 -6.429688 L 10.503906 -6.789062 L 10.144531 -7.667969 L 10.222656 -8.46875 L 10.066406 -9.1875 L 10.183594 -9.984375 L 10.183594 -20.25 L 10.664062 -20.96875 L 11.820312 -21.40625 L 12.660156 -21.367188 L 13.5 -21.40625 L 14.699219 -21.328125 L 16.292969 -20.847656 L 17.652344 -19.96875 L 18.652344 -18.851562 L 19.089844 -18.09375 L 19.609375 -17.453125 L 20.089844 -15.097656 L 20.207031 -13.859375 L 20.007812 -11.902344 L 19.769531 -11.144531 L 19.171875 -9.703125 L 18.652344 -8.984375 L 18.132812 -8.425781 L 17.652344 -7.789062 L 17.015625 -7.386719 L 16.214844 -6.988281 L 14.777344 -6.589844 Z M 11.460938 -6.429688 "/></g></g></g><g fill="#d9d9d9" fill-opacity="1"><g transform="translate(111.222242, 142.164376)"><g><path d="M 2.996094 -1.238281 L 3.476562 -0.359375 L 4.113281 0 L 5.03125 0 L 5.871094 0.121094 L 6.667969 0.121094 L 7.507812 0 L 14.699219 -0.0390625 L 17.253906 -0.398438 L 19.570312 -1.117188 L 22.964844 -3.394531 L 24.5625 -5.230469 L 25.800781 -7.230469 L 26 -7.988281 L 26.398438 -8.746094 L 26.558594 -9.546875 L 26.839844 -10.265625 L 26.957031 -11.101562 L 27.15625 -11.941406 L 27.117188 -12.621094 L 27.277344 -15.175781 L 26.679688 -17.453125 L 26.597656 -18.292969 L 26.398438 -19.011719 L 25.800781 -20.609375 L 24.882812 -21.964844 L 24.5625 -22.644531 L 23.523438 -23.882812 L 22.84375 -24.402344 L 21.726562 -25.480469 L 20.25 -26.398438 L 19.449219 -26.796875 L 17.253906 -27.515625 L 15.617188 -27.835938 L 9.945312 -27.878906 L 9.144531 -27.957031 L 6.589844 -27.878906 L 5.792969 -27.957031 L 5.070312 -27.917969 L 4.234375 -27.957031 L 3.515625 -27.515625 L 2.914062 -26.757812 L 2.914062 -25.121094 L 2.996094 -24.324219 L 2.957031 -23.523438 L 3.035156 -22.007812 L 2.914062 -21.128906 L 3.035156 -20.328125 L 2.914062 -19.53125 L 3.074219 -16.335938 L 2.957031 -14.816406 L 3.074219 -13.101562 L 2.957031 -12.339844 L 3.074219 -11.503906 L 2.957031 -9.945312 L 3.035156 -6.75 L 2.957031 -5.949219 L 3.074219 -2.753906 Z M 11.460938 -6.429688 L 10.503906 -6.789062 L 10.144531 -7.667969 L 10.222656 -8.46875 L 10.066406 -9.1875 L 10.183594 -9.984375 L 10.183594 -20.25 L 10.664062 -20.96875 L 11.820312 -21.40625 L 12.660156 -21.367188 L 13.5 -21.40625 L 14.699219 -21.328125 L 16.292969 -20.847656 L 17.652344 -19.96875 L 18.652344 -18.851562 L 19.089844 -18.09375 L 19.609375 -17.453125 L 20.089844 -15.097656 L 20.207031 -13.859375 L 20.007812 -11.902344 L 19.769531 -11.144531 L 19.171875 -9.703125 L 18.652344 -8.984375 L 18.132812 -8.425781 L 17.652344 -7.789062 L 17.015625 -7.386719 L 16.214844 -6.988281 L 14.777344 -6.589844 Z M 11.460938 -6.429688 "/></g></g></g><g fill="#d9d9d9" fill-opacity="1"><g transform="translate(140.25634, 142.164376)"><g/></g></g><g fill="#d9d9d9" fill-opacity="1"><g transform="translate(151.079234, 142.164376)"><g><path d="M 5.351562 0.121094 L 7.308594 0.0390625 L 8.027344 0.078125 L 8.945312 0 L 9.785156 -0.320312 L 10.144531 -1.160156 L 10.105469 -1.957031 L 10.144531 -2.835938 L 10.066406 -4.3125 L 10.144531 -5.070312 L 10.105469 -5.992188 L 10.464844 -6.710938 L 11.382812 -7.148438 L 12.261719 -7.230469 L 13.101562 -7.070312 L 17.214844 -7.386719 L 21.007812 -8.90625 L 21.605469 -9.386719 L 22.164062 -10.023438 L 22.683594 -10.542969 L 23.203125 -11.144531 L 24.042969 -12.421875 L 24.722656 -13.976562 L 24.839844 -14.855469 L 25.082031 -15.496094 L 25.160156 -18.769531 L 25 -19.449219 L 24.882812 -20.328125 L 24.402344 -21.804688 L 23.644531 -23.164062 L 22.683594 -24.480469 L 20.886719 -26.039062 L 19.570312 -26.917969 L 17.972656 -27.398438 L 17.292969 -27.675781 L 16.496094 -27.675781 L 15.695312 -27.957031 L 14.496094 -27.996094 L 13.21875 -27.957031 L 12.339844 -27.835938 L 9.90625 -27.878906 L 9.105469 -27.996094 L 6.628906 -27.835938 L 5.75 -27.878906 L 5.03125 -27.996094 L 4.195312 -27.835938 L 3.355469 -27.398438 L 2.996094 -26.757812 L 3.035156 -21.925781 L 2.875 -20.328125 L 2.957031 -19.570312 L 2.914062 -9.226562 L 2.996094 -8.46875 L 2.957031 -1.078125 L 3.394531 -0.320312 L 4.632812 0.078125 Z M 11.34375 -13.539062 L 10.542969 -14.019531 L 10.183594 -14.699219 L 10.066406 -17.933594 L 10.144531 -18.769531 L 10.144531 -20.410156 L 10.542969 -21.167969 L 11.382812 -21.566406 L 15.535156 -21.445312 L 16.335938 -21.085938 L 16.972656 -20.648438 L 17.492188 -20.128906 L 17.890625 -19.332031 L 18.011719 -18.609375 L 18.09375 -17.492188 L 18.011719 -16.414062 L 17.734375 -15.695312 L 17.375 -15.058594 L 16.855469 -14.417969 L 16.214844 -13.9375 L 15.574219 -13.738281 L 14.335938 -13.578125 L 12.300781 -13.617188 Z M 11.34375 -13.539062 "/></g></g></g><g fill="#d9d9d9" fill-opacity="1"><g transform="translate(177.357684, 142.164376)"><g><path d="M 3.074219 -1.277344 L 3.355469 -0.398438 L 4.152344 0 L 4.914062 0.0390625 L 6.550781 -0.078125 L 7.386719 0 L 8.585938 0 L 9.824219 -0.398438 L 10.105469 -1.160156 L 10.183594 -1.996094 L 10.023438 -2.835938 L 10.144531 -4.554688 L 10.066406 -7.027344 L 10.425781 -7.828125 L 11.222656 -8.226562 L 11.941406 -8.226562 L 12.660156 -8.265625 L 13.660156 -7.949219 L 14.296875 -7.269531 L 15.335938 -5.871094 L 15.617188 -5.113281 L 16.734375 -3.113281 L 17.253906 -2.355469 L 17.613281 -1.675781 L 18.09375 -1.039062 L 18.890625 -0.320312 L 19.890625 -0.078125 L 21.328125 0 L 22.207031 -0.078125 L 23.003906 0 L 24.601562 0 L 25.480469 -0.078125 L 26.320312 -0.28125 L 26.480469 -1.117188 L 25.960938 -2.117188 L 24.683594 -4.074219 L 24.324219 -4.753906 L 23.84375 -5.472656 L 23.445312 -6.191406 L 22.925781 -6.828125 L 21.726562 -8.90625 L 21.605469 -9.863281 L 22.046875 -10.703125 L 23.164062 -11.78125 L 23.644531 -12.460938 L 23.921875 -13.21875 L 24.363281 -13.9375 L 24.640625 -14.617188 L 25.082031 -16.136719 L 25.121094 -19.289062 L 24.921875 -20.050781 L 24.800781 -20.808594 L 24.601562 -21.605469 L 23.523438 -23.804688 L 22.964844 -24.402344 L 22.605469 -25 L 20.609375 -26.519531 L 19.210938 -27.238281 L 15.894531 -27.917969 L 14.898438 -27.996094 L 13.738281 -27.957031 L 12.859375 -27.996094 L 12.0625 -27.917969 L 11.183594 -27.996094 L 10.503906 -27.917969 L 8.109375 -27.996094 L 7.347656 -27.878906 L 5.710938 -28.035156 L 4.953125 -27.917969 L 4.074219 -27.957031 L 3.316406 -27.597656 L 2.996094 -26.757812 L 2.875 -15.574219 L 2.996094 -14.417969 L 2.996094 -12.421875 L 2.914062 -11.582031 L 2.875 -10.066406 L 2.996094 -9.1875 L 2.875 -7.546875 L 3.035156 -5.230469 L 2.957031 -4.394531 Z M 11.222656 -14.699219 L 10.542969 -15.058594 L 10.144531 -15.894531 L 10.023438 -20.367188 L 10.503906 -21.167969 L 11.300781 -21.566406 L 11.941406 -21.605469 L 14.136719 -21.566406 L 15.976562 -21.328125 L 17.214844 -20.566406 L 17.613281 -19.96875 L 17.890625 -19.332031 L 17.972656 -18.171875 L 17.851562 -17.09375 L 17.53125 -16.292969 L 17.09375 -15.617188 L 16.613281 -15.136719 L 16.015625 -14.855469 L 12.898438 -14.578125 L 12.101562 -14.699219 Z M 11.222656 -14.699219 "/></g></g></g><g fill="#d9d9d9" fill-opacity="1"><g transform="translate(205.033928, 142.164376)"><g><path d="M 14.9375 0.480469 L 17.171875 0.4375 L 19.570312 0.121094 L 22.566406 -0.878906 L 23.882812 -1.597656 L 24.480469 -2.078125 L 25.242188 -2.4375 L 26.359375 -3.394531 L 26.878906 -4.113281 L 27.4375 -4.671875 L 29.195312 -7.347656 L 29.792969 -8.867188 L 30.113281 -10.382812 L 30.152344 -11.101562 L 30.351562 -11.902344 L 30.394531 -12.742188 L 30.554688 -13.898438 L 30.433594 -15.894531 L 30.152344 -17.53125 L 29.15625 -20.527344 L 28.394531 -22.007812 L 27.515625 -23.203125 L 26.398438 -24.441406 L 25.242188 -25.441406 L 24.324219 -26.078125 L 23.125 -26.597656 L 22.523438 -27.039062 L 19.449219 -27.996094 L 17.132812 -28.394531 L 16.054688 -28.4375 L 11.820312 -27.835938 L 8.828125 -26.71875 L 8.226562 -26.28125 L 7.507812 -25.921875 L 6.152344 -24.921875 L 4.195312 -22.644531 L 2.957031 -20.527344 L 2.355469 -19.011719 L 1.675781 -15.933594 L 1.558594 -12.699219 L 1.675781 -11.863281 L 1.878906 -11.144531 L 1.957031 -10.382812 L 2.316406 -8.867188 L 4.152344 -5.230469 L 4.632812 -4.753906 L 5.152344 -4.113281 L 5.75 -3.554688 L 6.191406 -3.035156 L 7.507812 -1.996094 L 10.625 -0.398438 L 11.78125 0 L 12.660156 0.078125 L 14.097656 0.398438 Z M 17.171875 -6.589844 L 14.976562 -6.589844 L 14.097656 -6.710938 L 12.660156 -7.308594 L 12.019531 -7.667969 L 10.941406 -8.546875 L 10.425781 -9.105469 L 9.863281 -9.863281 L 9.664062 -10.503906 L 9.304688 -11.222656 L 8.984375 -12.699219 L 8.984375 -15.136719 L 9.1875 -15.855469 L 9.304688 -16.613281 L 9.625 -17.332031 L 9.863281 -18.050781 L 10.824219 -19.332031 L 12.820312 -20.6875 L 13.339844 -20.886719 L 14.898438 -21.289062 L 16.015625 -21.367188 L 17.933594 -21.128906 L 18.652344 -20.96875 L 19.371094 -20.648438 L 20.609375 -19.769531 L 22.164062 -18.132812 L 22.644531 -16.613281 L 23.003906 -15.855469 L 23.125 -15.136719 L 23.042969 -12.699219 L 22.726562 -11.222656 L 22.445312 -10.503906 L 22.007812 -9.785156 L 21.765625 -9.1875 L 21.207031 -8.546875 L 19.289062 -7.230469 L 18.570312 -7.027344 L 17.972656 -6.75 Z M 17.171875 -6.589844 "/></g></g></g><g fill="#d9d9d9" fill-opacity="1"><g transform="translate(237.063292, 142.164376)"><g><path d="M 2.957031 -1.238281 L 3.273438 -0.398438 L 4.113281 -0.078125 L 4.914062 0 L 7.269531 -0.0390625 L 8.148438 0.0390625 L 8.984375 0.0390625 L 9.785156 -0.398438 L 10.144531 -1.238281 L 10.183594 -2.835938 L 10.105469 -3.59375 L 10.222656 -4.3125 L 10.144531 -5.191406 L 10.144531 -6.03125 L 10.425781 -6.710938 L 11.503906 -7.109375 L 12.382812 -7.230469 L 13.578125 -7.109375 L 15.65625 -7.148438 L 17.292969 -7.46875 L 19.609375 -8.148438 L 20.96875 -8.984375 L 21.605469 -9.464844 L 22.804688 -10.625 L 24.082031 -12.539062 L 24.441406 -13.257812 L 24.722656 -13.976562 L 25.082031 -15.617188 L 25.160156 -16.335938 L 25.199219 -18.691406 L 24.480469 -21.804688 L 23.683594 -23.242188 L 23.164062 -23.921875 L 22.644531 -24.480469 L 22.207031 -25.082031 L 21.527344 -25.679688 L 20.328125 -26.480469 L 18.890625 -27.238281 L 18.050781 -27.398438 L 17.253906 -27.71875 L 16.535156 -27.878906 L 4.59375 -27.917969 L 3.515625 -27.558594 L 3.113281 -26.796875 L 3.035156 -25.960938 L 3.035156 -24.324219 L 2.914062 -23.605469 L 2.914062 -22.84375 L 3.035156 -22.007812 L 3.035156 -17.933594 L 2.957031 -17.132812 L 3.035156 -16.414062 L 2.957031 -15.535156 L 3.074219 -13.898438 L 2.914062 -12.820312 L 3.035156 -11.621094 L 2.957031 -10.863281 L 2.957031 -9.1875 L 3.074219 -8.425781 L 2.957031 -6.828125 L 3.074219 -4.3125 L 2.875 -3.515625 L 3.035156 -2.753906 L 2.914062 -1.996094 Z M 11.421875 -13.617188 L 10.664062 -13.976562 L 10.183594 -14.777344 L 10.105469 -20.328125 L 10.582031 -21.207031 L 11.382812 -21.527344 L 12.382812 -21.605469 L 15.574219 -21.445312 L 16.253906 -21.085938 L 16.855469 -20.648438 L 17.492188 -20.050781 L 17.890625 -19.371094 L 18.25 -17.492188 L 17.8125 -15.65625 L 16.894531 -14.539062 L 16.253906 -14.097656 L 15.617188 -13.738281 L 12.339844 -13.539062 Z M 11.421875 -13.617188 "/></g></g></g><g fill="#d9d9d9" fill-opacity="1"><g transform="translate(263.34173, 142.164376)"><g><path d="M 14.9375 0.480469 L 17.171875 0.4375 L 19.570312 0.121094 L 22.566406 -0.878906 L 23.882812 -1.597656 L 24.480469 -2.078125 L 25.242188 -2.4375 L 26.359375 -3.394531 L 26.878906 -4.113281 L 27.4375 -4.671875 L 29.195312 -7.347656 L 29.792969 -8.867188 L 30.113281 -10.382812 L 30.152344 -11.101562 L 30.351562 -11.902344 L 30.394531 -12.742188 L 30.554688 -13.898438 L 30.433594 -15.894531 L 30.152344 -17.53125 L 29.15625 -20.527344 L 28.394531 -22.007812 L 27.515625 -23.203125 L 26.398438 -24.441406 L 25.242188 -25.441406 L 24.324219 -26.078125 L 23.125 -26.597656 L 22.523438 -27.039062 L 19.449219 -27.996094 L 17.132812 -28.394531 L 16.054688 -28.4375 L 11.820312 -27.835938 L 8.828125 -26.71875 L 8.226562 -26.28125 L 7.507812 -25.921875 L 6.152344 -24.921875 L 4.195312 -22.644531 L 2.957031 -20.527344 L 2.355469 -19.011719 L 1.675781 -15.933594 L 1.558594 -12.699219 L 1.675781 -11.863281 L 1.878906 -11.144531 L 1.957031 -10.382812 L 2.316406 -8.867188 L 4.152344 -5.230469 L 4.632812 -4.753906 L 5.152344 -4.113281 L 5.75 -3.554688 L 6.191406 -3.035156 L 7.507812 -1.996094 L 10.625 -0.398438 L 11.78125 0 L 12.660156 0.078125 L 14.097656 0.398438 Z M 17.171875 -6.589844 L 14.976562 -6.589844 L 14.097656 -6.710938 L 12.660156 -7.308594 L 12.019531 -7.667969 L 10.941406 -8.546875 L 10.425781 -9.105469 L 9.863281 -9.863281 L 9.664062 -10.503906 L 9.304688 -11.222656 L 8.984375 -12.699219 L 8.984375 -15.136719 L 9.1875 -15.855469 L 9.304688 -16.613281 L 9.625 -17.332031 L 9.863281 -18.050781 L 10.824219 -19.332031 L 12.820312 -20.6875 L 13.339844 -20.886719 L 14.898438 -21.289062 L 16.015625 -21.367188 L 17.933594 -21.128906 L 18.652344 -20.96875 L 19.371094 -20.648438 L 20.609375 -19.769531 L 22.164062 -18.132812 L 22.644531 -16.613281 L 23.003906 -15.855469 L 23.125 -15.136719 L 23.042969 -12.699219 L 22.726562 -11.222656 L 22.445312 -10.503906 L 22.007812 -9.785156 L 21.765625 -9.1875 L 21.207031 -8.546875 L 19.289062 -7.230469 L 18.570312 -7.027344 L 17.972656 -6.75 Z M 17.171875 -6.589844 "/></g></g></g><g fill="#d9d9d9" fill-opacity="1"><g transform="translate(295.371105, 142.164376)"><g><path d="M 11.582031 0.320312 L 12.742188 0.4375 L 14.019531 0.398438 L 17.933594 -0.359375 L 20.007812 -1.476562 L 21.289062 -2.355469 L 22.40625 -3.632812 L 23.203125 -4.914062 L 23.523438 -5.632812 L 23.761719 -6.429688 L 23.882812 -7.148438 L 23.921875 -9.625 L 23.804688 -10.425781 L 23.605469 -11.183594 L 22.804688 -12.660156 L 21.847656 -13.898438 L 21.167969 -14.457031 L 19.050781 -15.417969 L 15.777344 -16.214844 L 11.742188 -16.734375 L 10.066406 -17.332031 L 9.464844 -17.652344 L 8.828125 -18.292969 L 8.785156 -19.371094 L 8.90625 -20.410156 L 9.34375 -20.96875 L 10.023438 -21.488281 L 10.582031 -21.726562 L 11.300781 -21.886719 L 13.859375 -21.964844 L 14.738281 -21.648438 L 15.335938 -21.167969 L 16.652344 -19.769531 L 17.890625 -19.371094 L 20.527344 -19.289062 L 21.246094 -19.371094 L 22.007812 -19.289062 L 22.765625 -19.769531 L 23.125 -20.527344 L 22.804688 -22.085938 L 22.164062 -23.523438 L 21.648438 -24.164062 L 21.246094 -24.800781 L 20.726562 -25.402344 L 18.171875 -27.15625 L 15.976562 -27.917969 L 15.136719 -28.078125 L 14.417969 -28.15625 L 13.539062 -28.355469 L 11.300781 -28.316406 L 8.148438 -27.675781 L 7.429688 -27.398438 L 6.789062 -27 L 6.152344 -26.757812 L 5.351562 -26.28125 L 4.792969 -25.761719 L 4.074219 -25.28125 L 3.632812 -24.601562 L 3.113281 -24.082031 L 2.835938 -23.363281 L 2.4375 -22.726562 L 1.878906 -20.410156 L 1.917969 -17.734375 L 2.195312 -16.613281 L 2.714844 -15.214844 L 3.714844 -13.898438 L 4.832031 -12.859375 L 6.230469 -12.019531 L 8.507812 -11.261719 L 9.945312 -10.941406 L 13.21875 -10.703125 L 13.9375 -10.582031 L 14.738281 -10.542969 L 16.175781 -9.945312 L 16.734375 -9.464844 L 16.933594 -8.425781 L 16.695312 -7.386719 L 16.054688 -6.828125 L 15.417969 -6.46875 L 13.9375 -6.03125 L 12.820312 -5.992188 L 11.621094 -6.070312 L 10.703125 -6.308594 L 10.105469 -6.589844 L 9.386719 -7.027344 L 8.785156 -7.589844 L 8.1875 -8.386719 L 7.386719 -8.707031 L 4.351562 -8.785156 L 3.554688 -8.707031 L 2.753906 -8.746094 L 1.957031 -8.386719 L 1.675781 -7.546875 L 1.757812 -6.667969 L 1.917969 -5.949219 L 2.554688 -4.351562 L 3.554688 -3.113281 L 4.710938 -1.957031 L 5.390625 -1.519531 L 8.265625 -0.199219 L 9.144531 -0.078125 L 9.90625 0.199219 Z M 11.582031 0.320312 "/></g></g></g><g fill="#d9d9d9" fill-opacity="1"><g transform="translate(320.850819, 142.164376)"><g><path d="M 0.519531 -1.078125 L 0.71875 -0.238281 L 1.519531 -0.0390625 L 5.03125 -0.0390625 L 6.070312 0.078125 L 6.988281 -0.320312 L 7.707031 -1.039062 L 8.386719 -2.394531 L 9.066406 -3.15625 L 10.023438 -3.554688 L 10.824219 -3.476562 L 13.058594 -3.515625 L 13.898438 -3.394531 L 14.816406 -3.515625 L 15.535156 -3.515625 L 16.375 -3.433594 L 18.25 -3.515625 L 19.570312 -3.074219 L 20.410156 -2.4375 L 20.609375 -1.71875 L 21.046875 -1 L 21.726562 -0.359375 L 22.765625 0.0390625 L 23.484375 -0.0390625 L 24.882812 0.078125 L 27.359375 0 L 28.078125 -0.238281 L 28.238281 -1.078125 L 27.996094 -2.078125 L 27.71875 -2.796875 L 27.199219 -3.476562 L 26.957031 -4.273438 L 26.558594 -4.871094 L 26.320312 -5.632812 L 25.640625 -7.070312 L 25.359375 -7.828125 L 24.960938 -8.507812 L 24.402344 -9.984375 L 23.964844 -10.625 L 23.644531 -11.421875 L 23.285156 -12.101562 L 23.003906 -12.898438 L 22.644531 -13.5 L 22.40625 -14.296875 L 21.964844 -15.015625 L 21.648438 -15.695312 L 21.246094 -16.375 L 21.046875 -17.132812 L 20.25 -18.53125 L 20.007812 -19.289062 L 19.289062 -20.808594 L 19.089844 -21.445312 L 18.492188 -22.84375 L 17.691406 -24.324219 L 17.054688 -25.839844 L 16.695312 -26.4375 L 16.453125 -27.199219 L 15.734375 -27.957031 L 14.378906 -28.316406 L 13.101562 -27.917969 L 12.339844 -27.199219 L 12.101562 -26.480469 L 10.382812 -22.882812 L 9.945312 -22.164062 L 7.707031 -17.132812 L 7.507812 -16.453125 L 7.070312 -15.734375 L 6.429688 -14.296875 L 5.832031 -13.257812 L 5.550781 -12.5 L 4.992188 -11.460938 L 4.753906 -10.625 L 4.394531 -9.984375 L 4.113281 -9.1875 L 2.996094 -7.109375 L 1.835938 -4.195312 L 1.359375 -3.554688 L 1 -2.753906 Z M 12.859375 -9.863281 L 12.101562 -10.183594 L 11.980469 -10.984375 L 13.578125 -14.617188 L 13.9375 -15.257812 L 14.457031 -15.65625 L 14.9375 -15.335938 L 15.457031 -13.777344 L 15.894531 -13.101562 L 16.054688 -12.460938 L 16.453125 -11.660156 L 16.734375 -10.941406 L 16.652344 -10.222656 L 15.976562 -9.90625 Z M 12.859375 -9.863281 "/></g></g></g><g fill="#d9d9d9" fill-opacity="1"><g transform="translate(349.84498, 142.164376)"><g><path d="M 2.996094 -1.160156 L 3.355469 -0.4375 L 4.632812 0.0390625 L 18.769531 -0.0390625 L 19.890625 -0.4375 L 20.328125 -1.160156 L 20.25 -2.035156 L 20.289062 -2.835938 L 20.367188 -3.554688 L 20.25 -4.433594 L 20.367188 -5.191406 L 19.847656 -6.070312 L 19.210938 -6.46875 L 18.332031 -6.351562 L 11.300781 -6.429688 L 10.464844 -6.789062 L 10.222656 -7.667969 L 10.265625 -9.144531 L 10.144531 -9.90625 L 10.183594 -10.785156 L 10.105469 -11.582031 L 10.183594 -12.421875 L 10.144531 -14.417969 L 10.265625 -15.535156 L 10.144531 -16.414062 L 10.265625 -17.253906 L 10.144531 -23.484375 L 10.222656 -24.363281 L 10.144531 -26.320312 L 9.746094 -27.515625 L 8.707031 -27.996094 L 4.554688 -27.917969 L 3.394531 -27.476562 L 2.875 -26.398438 L 3.113281 -24.324219 L 3.035156 -23.5625 L 2.914062 -22.726562 L 3.035156 -21.925781 L 3.113281 -21.167969 L 2.996094 -20.289062 L 3.035156 -19.53125 L 2.957031 -18.730469 L 3.074219 -17.890625 L 2.957031 -17.171875 L 3.035156 -16.375 L 2.914062 -15.617188 L 3.035156 -13.898438 L 2.914062 -13.140625 L 3.035156 -11.542969 L 2.914062 -10.742188 L 2.957031 -9.144531 L 3.035156 -8.425781 L 2.996094 -3.554688 L 3.074219 -2.753906 L 2.914062 -1.996094 Z M 2.996094 -1.160156 "/></g></g></g><g fill="#d9d9d9" fill-opacity="1"><g transform="translate(371.331016, 142.164376)"><g><path d="M 11.582031 0.320312 L 12.742188 0.4375 L 14.019531 0.398438 L 17.933594 -0.359375 L 20.007812 -1.476562 L 21.289062 -2.355469 L 22.40625 -3.632812 L 23.203125 -4.914062 L 23.523438 -5.632812 L 23.761719 -6.429688 L 23.882812 -7.148438 L 23.921875 -9.625 L 23.804688 -10.425781 L 23.605469 -11.183594 L 22.804688 -12.660156 L 21.847656 -13.898438 L 21.167969 -14.457031 L 19.050781 -15.417969 L 15.777344 -16.214844 L 11.742188 -16.734375 L 10.066406 -17.332031 L 9.464844 -17.652344 L 8.828125 -18.292969 L 8.785156 -19.371094 L 8.90625 -20.410156 L 9.34375 -20.96875 L 10.023438 -21.488281 L 10.582031 -21.726562 L 11.300781 -21.886719 L 13.859375 -21.964844 L 14.738281 -21.648438 L 15.335938 -21.167969 L 16.652344 -19.769531 L 17.890625 -19.371094 L 20.527344 -19.289062 L 21.246094 -19.371094 L 22.007812 -19.289062 L 22.765625 -19.769531 L 23.125 -20.527344 L 22.804688 -22.085938 L 22.164062 -23.523438 L 21.648438 -24.164062 L 21.246094 -24.800781 L 20.726562 -25.402344 L 18.171875 -27.15625 L 15.976562 -27.917969 L 15.136719 -28.078125 L 14.417969 -28.15625 L 13.539062 -28.355469 L 11.300781 -28.316406 L 8.148438 -27.675781 L 7.429688 -27.398438 L 6.789062 -27 L 6.152344 -26.757812 L 5.351562 -26.28125 L 4.792969 -25.761719 L 4.074219 -25.28125 L 3.632812 -24.601562 L 3.113281 -24.082031 L 2.835938 -23.363281 L 2.4375 -22.726562 L 1.878906 -20.410156 L 1.917969 -17.734375 L 2.195312 -16.613281 L 2.714844 -15.214844 L 3.714844 -13.898438 L 4.832031 -12.859375 L 6.230469 -12.019531 L 8.507812 -11.261719 L 9.945312 -10.941406 L 13.21875 -10.703125 L 13.9375 -10.582031 L 14.738281 -10.542969 L 16.175781 -9.945312 L 16.734375 -9.464844 L 16.933594 -8.425781 L 16.695312 -7.386719 L 16.054688 -6.828125 L 15.417969 -6.46875 L 13.9375 -6.03125 L 12.820312 -5.992188 L 11.621094 -6.070312 L 10.703125 -6.308594 L 10.105469 -6.589844 L 9.386719 -7.027344 L 8.785156 -7.589844 L 8.1875 -8.386719 L 7.386719 -8.707031 L 4.351562 -8.785156 L 3.554688 -8.707031 L 2.753906 -8.746094 L 1.957031 -8.386719 L 1.675781 -7.546875 L 1.757812 -6.667969 L 1.917969 -5.949219 L 2.554688 -4.351562 L 3.554688 -3.113281 L 4.710938 -1.957031 L 5.390625 -1.519531 L 8.265625 -0.199219 L 9.144531 -0.078125 L 9.90625 0.199219 Z M 11.582031 0.320312 "/></g></g></g></svg>