<svg xmlns="http://www.w3.org/2000/svg" xmlns:xlink="http://www.w3.org/1999/xlink" width="500" zoomAndPan="magnify" viewBox="0 0 375 374.999991" height="500" preserveAspectRatio="xMidYMid meet" version="1.0"><defs><clipPath id="id1"><path d="M 113 8.734375 L 278 8.734375 L 278 366.484375 L 113 366.484375 Z M 113 8.734375 " clip-rule="nonzero"/></clipPath></defs><g clip-path="url(#id1)"><path fill="#ffde59" d="M 223.578125 68.652344 L 185.605469 111.152344 L 169.96875 128.570312 L 113.011719 192.480469 L 142.527344 206.863281 L 169.808594 220.125 L 175.234375 222.839844 L 195.496094 232.746094 L 215.121094 242.171875 L 189.914062 243.613281 L 149.546875 322.382812 L 134.707031 351.625 L 131.039062 358.652344 L 127.371094 365.683594 L 127.527344 365.683594 L 127.527344 365.84375 L 128.804688 366.484375 L 134.230469 360.570312 L 139.8125 354.5 L 163.269531 328.617188 L 202.359375 285.472656 L 255.964844 226.515625 L 267.933594 212.773438 L 218.152344 188.488281 L 214.003906 186.570312 L 191.507812 175.542969 L 174.117188 167.078125 L 196.613281 165.796875 L 242.5625 75.839844 L 257.5625 46.601562 L 261.230469 39.570312 L 264.742188 32.539062 L 268.410156 25.351562 L 277.027344 8.734375 L 264.101562 23.113281 L 258.679688 29.183594 L 255.804688 32.382812 L 253.09375 35.417969 L 247.511719 41.808594 Z M 223.578125 68.652344 " fill-opacity="1" fill-rule="evenodd"/></g><path fill="#d2d3d5" d="M 161.035156 122.179688 L 213.527344 63.378906 L 213.527344 49.636719 L 161.035156 49.636719 L 161.035156 82.871094 C 149.066406 85.429688 137.898438 89.582031 127.371094 95.175781 L 105.988281 69.769531 L 65.785156 103.484375 L 87.164062 129.046875 C 79.824219 138.476562 73.761719 148.863281 69.292969 160.046875 L 36.585938 154.292969 L 27.492188 206.0625 L 60.199219 211.816406 C 60.679688 224.117188 62.75 235.941406 66.421875 247.125 L 37.703125 263.742188 L 63.867188 309.28125 L 92.585938 292.664062 C 100.566406 301.613281 109.820312 309.28125 120.03125 315.671875 L 108.703125 346.988281 L 122.265625 351.941406 L 124.816406 346.988281 L 154.015625 289.949219 C 121.464844 276.847656 98.492188 244.730469 98.492188 207.5 C 98.492188 204.304688 98.652344 201.269531 98.96875 198.234375 C 99.289062 195.675781 99.609375 193.28125 100.085938 190.722656 C 106.308594 158.289062 129.921875 132.085938 161.035156 122.496094 Z M 161.035156 122.179688 " fill-opacity="1" fill-rule="evenodd"/><path fill="#d2d3d5" d="M 245.4375 94.214844 L 228.046875 128.089844 C 255.804688 142.46875 275.113281 171.230469 276.070312 204.464844 C 276.070312 205.265625 276.070312 206.222656 276.070312 207.023438 C 276.070312 211.816406 275.75 216.609375 274.953125 221.082031 C 269.367188 255.914062 243.679688 283.875 210.335938 292.824219 L 173.320312 333.726562 C 177.945312 334.207031 182.574219 334.527344 187.359375 334.527344 C 193.421875 334.527344 199.484375 334.046875 205.230469 333.25 L 216.558594 364.40625 L 265.859375 346.511719 L 254.53125 315.195312 C 264.742188 308.800781 273.996094 301.132812 281.972656 292.183594 L 310.691406 308.800781 L 336.859375 263.265625 L 308.140625 246.648438 C 311.808594 235.460938 313.882812 223.640625 314.359375 211.335938 L 347.070312 205.582031 L 337.972656 153.816406 L 305.265625 159.566406 C 300.800781 148.382812 294.738281 137.996094 287.398438 128.570312 L 308.777344 103.003906 L 268.570312 69.289062 L 247.191406 94.695312 C 246.550781 94.375 246.074219 94.054688 245.4375 93.738281 Z M 245.4375 94.214844 " fill-opacity="1" fill-rule="evenodd"/></svg>