<svg xmlns="http://www.w3.org/2000/svg" xmlns:xlink="http://www.w3.org/1999/xlink" width="600" zoomAndPan="magnify" viewBox="0 0 450 168.749997" height="225" preserveAspectRatio="xMidYMid meet" version="1.0"><defs><g/><clipPath id="id1"><path d="M 0.332031 0 L 449.667969 0 L 449.667969 168.5 L 0.332031 168.5 Z M 0.332031 0 " clip-rule="nonzero"/></clipPath><clipPath id="id2"><path d="M 188.488281 16.851562 L 261.820312 16.851562 L 261.820312 100.726562 L 188.488281 100.726562 Z M 188.488281 16.851562 " clip-rule="nonzero"/></clipPath></defs><g clip-path="url(#id1)"><path fill="#ffffff" d="M 0.332031 0 L 449.667969 0 L 449.667969 175.242188 L 0.332031 175.242188 Z M 0.332031 0 " fill-opacity="1" fill-rule="nonzero"/><path fill="#000000" d="M 0.332031 0 L 449.667969 0 L 449.667969 168.5 L 0.332031 168.5 Z M 0.332031 0 " fill-opacity="1" fill-rule="nonzero"/><path fill="#ffffff" d="M 0.332031 0 L 449.667969 0 L 449.667969 168.5 L 0.332031 168.5 Z M 0.332031 0 " fill-opacity="1" fill-rule="nonzero"/><path fill="#000000" d="M 0.332031 0 L 449.667969 0 L 449.667969 168.5 L 0.332031 168.5 Z M 0.332031 0 " fill-opacity="1" fill-rule="nonzero"/></g><path fill="#ffffff" d="M 260.777344 51.574219 L 260.777344 99.664062 L 189.273438 99.664062 L 189.273438 51.574219 L 201.625 39.273438 L 223.441406 39.273438 C 219.675781 38.488281 216.84375 35.171875 216.84375 31.195312 C 216.84375 26.640625 220.566406 22.945312 225.152344 22.945312 C 229.742188 22.945312 233.460938 26.640625 233.460938 31.195312 C 233.460938 35.171875 230.632812 38.488281 226.863281 39.273438 L 248.425781 39.273438 L 260.777344 51.574219 " fill-opacity="1" fill-rule="nonzero"/><path fill="#ef3044" d="M 235.5 70.644531 L 226.847656 70.644531 C 226.296875 70.644531 225.847656 71.085938 225.847656 71.632812 C 225.847656 72.183594 226.296875 72.625 226.847656 72.625 L 230.175781 72.625 L 230.175781 81.714844 C 230.175781 82.261719 230.625 82.707031 231.175781 82.707031 C 231.726562 82.707031 232.171875 82.261719 232.171875 81.714844 L 232.171875 72.625 L 235.5 72.625 C 236.050781 72.625 236.5 72.183594 236.5 71.632812 C 236.5 71.085938 236.050781 70.644531 235.5 70.644531 Z M 247.542969 80.726562 L 239.890625 80.726562 L 239.890625 77.667969 L 245.421875 77.667969 C 245.972656 77.667969 246.421875 77.222656 246.421875 76.675781 C 246.421875 76.125 245.972656 75.683594 245.421875 75.683594 L 239.890625 75.683594 L 239.890625 72.625 L 247.542969 72.625 C 248.09375 72.625 248.542969 72.183594 248.542969 71.632812 C 248.542969 71.085938 248.09375 70.644531 247.542969 70.644531 L 238.890625 70.644531 C 238.339844 70.644531 237.894531 71.085938 237.894531 71.632812 L 237.894531 81.714844 C 237.894531 82.261719 238.339844 82.707031 238.890625 82.707031 L 247.542969 82.707031 C 248.09375 82.707031 248.542969 82.261719 248.542969 81.714844 C 248.542969 81.167969 248.09375 80.726562 247.542969 80.726562 Z M 222.460938 73.390625 C 222.460938 72.96875 222.113281 72.625 221.691406 72.625 L 216.574219 72.625 C 216.148438 72.625 215.800781 72.96875 215.800781 73.390625 L 215.800781 79.960938 C 215.800781 80.382812 216.148438 80.726562 216.574219 80.726562 L 221.691406 80.726562 C 222.113281 80.726562 222.460938 80.382812 222.460938 79.960938 Z M 224.457031 73.390625 L 224.457031 79.960938 C 224.457031 81.476562 223.214844 82.707031 221.691406 82.707031 L 216.574219 82.707031 C 215.046875 82.707031 213.804688 81.476562 213.804688 79.960938 L 213.804688 73.390625 C 213.804688 71.875 215.046875 70.644531 216.574219 70.644531 L 221.691406 70.644531 C 223.214844 70.644531 224.457031 71.875 224.457031 73.390625 Z M 232.109375 31.195312 C 232.109375 27.378906 228.996094 24.285156 225.152344 24.285156 C 221.308594 24.285156 218.195312 27.378906 218.195312 31.195312 C 218.195312 35.011719 221.308594 38.105469 225.152344 38.105469 C 228.996094 38.105469 232.109375 35.011719 232.109375 31.195312 Z M 238.296875 44.550781 L 212.007812 44.550781 L 212.007812 17.839844 L 238.296875 17.839844 Z M 212.332031 72.023438 L 208.007812 82.105469 C 207.851562 82.46875 207.488281 82.707031 207.089844 82.707031 C 206.6875 82.707031 206.328125 82.46875 206.171875 82.105469 L 201.84375 72.023438 C 201.628906 71.519531 201.863281 70.9375 202.371094 70.722656 C 202.878906 70.507812 203.464844 70.742188 203.679688 71.246094 L 207.089844 79.1875 L 210.496094 71.246094 C 210.710938 70.742188 211.300781 70.507812 211.804688 70.722656 C 212.3125 70.9375 212.550781 71.519531 212.332031 72.023438 " fill-opacity="1" fill-rule="nonzero"/><g clip-path="url(#id2)"><path fill="#283544" d="M 220.859375 33.042969 C 220.46875 32.65625 220.46875 32.03125 220.859375 31.640625 C 221.25 31.253906 221.882812 31.253906 222.273438 31.640625 L 223.8125 33.171875 L 228.035156 28.976562 C 228.425781 28.589844 229.054688 28.589844 229.445312 28.976562 C 229.835938 29.363281 229.835938 29.992188 229.445312 30.378906 L 224.519531 35.277344 C 224.320312 35.46875 224.066406 35.566406 223.8125 35.566406 C 223.558594 35.566406 223.300781 35.46875 223.105469 35.277344 Z M 259.824219 98.742188 L 190.484375 98.742188 L 190.484375 52.546875 L 259.824219 52.546875 Z M 201.625 40.152344 L 211.007812 40.152344 L 211.007812 43.5625 L 205.933594 43.5625 C 205.382812 43.5625 204.9375 44.003906 204.9375 44.550781 C 204.9375 45.097656 205.382812 45.542969 205.933594 45.542969 L 244.371094 45.542969 C 244.921875 45.542969 245.371094 45.097656 245.371094 44.550781 C 245.371094 44.003906 244.921875 43.5625 244.371094 43.5625 L 239.296875 43.5625 L 239.296875 40.152344 L 248.679688 40.152344 L 258.515625 50.5625 L 191.789062 50.5625 Z M 213.007812 18.832031 L 237.300781 18.832031 L 237.300781 43.5625 L 213.007812 43.5625 Z M 261.820312 51.542969 C 261.816406 51.484375 261.8125 51.425781 261.800781 51.367188 C 261.796875 51.351562 261.792969 51.339844 261.789062 51.324219 C 261.777344 51.28125 261.765625 51.242188 261.75 51.199219 C 261.742188 51.183594 261.734375 51.164062 261.726562 51.148438 C 261.707031 51.105469 261.683594 51.0625 261.660156 51.023438 C 261.65625 51.015625 261.648438 51.003906 261.644531 50.996094 C 261.617188 50.953125 261.582031 50.914062 261.546875 50.875 L 249.84375 38.480469 C 249.652344 38.28125 249.390625 38.167969 249.113281 38.167969 L 239.296875 38.167969 L 239.296875 17.839844 C 239.296875 17.292969 238.847656 16.851562 238.296875 16.851562 L 212.007812 16.851562 C 211.457031 16.851562 211.007812 17.292969 211.007812 17.839844 L 211.007812 38.167969 L 201.191406 38.167969 C 200.914062 38.167969 200.652344 38.28125 200.464844 38.480469 L 188.757812 50.875 C 188.71875 50.914062 188.6875 50.953125 188.660156 50.996094 C 188.652344 51.003906 188.648438 51.015625 188.644531 51.023438 C 188.617188 51.0625 188.597656 51.105469 188.574219 51.148438 C 188.566406 51.164062 188.5625 51.183594 188.554688 51.199219 C 188.539062 51.242188 188.527344 51.28125 188.515625 51.324219 C 188.511719 51.339844 188.507812 51.351562 188.503906 51.367188 C 188.492188 51.425781 188.488281 51.484375 188.488281 51.542969 C 188.488281 51.546875 188.484375 51.550781 188.484375 51.554688 L 188.484375 99.734375 C 188.484375 100.28125 188.933594 100.726562 189.484375 100.726562 L 260.820312 100.726562 C 261.371094 100.726562 261.820312 100.28125 261.820312 99.734375 L 261.820312 51.542969 " fill-opacity="1" fill-rule="nonzero"/></g><g fill="#ffb1b1" fill-opacity="0.302"><g transform="translate(35.33995, 145.694677)"><g><path d="M 14.9375 0.480469 L 17.171875 0.4375 L 19.570312 0.121094 L 22.566406 -0.878906 L 23.882812 -1.597656 L 24.480469 -2.078125 L 25.242188 -2.4375 L 26.359375 -3.394531 L 26.878906 -4.113281 L 27.4375 -4.671875 L 29.195312 -7.347656 L 29.792969 -8.867188 L 30.113281 -10.382812 L 30.152344 -11.101562 L 30.351562 -11.902344 L 30.394531 -12.742188 L 30.554688 -13.898438 L 30.433594 -15.894531 L 30.152344 -17.53125 L 29.15625 -20.527344 L 28.394531 -22.007812 L 27.515625 -23.203125 L 26.398438 -24.441406 L 25.242188 -25.441406 L 24.324219 -26.078125 L 23.125 -26.597656 L 22.523438 -27.039062 L 19.449219 -27.996094 L 17.132812 -28.394531 L 16.054688 -28.4375 L 11.820312 -27.835938 L 8.828125 -26.71875 L 8.226562 -26.28125 L 7.507812 -25.921875 L 6.152344 -24.921875 L 4.195312 -22.644531 L 2.957031 -20.527344 L 2.355469 -19.011719 L 1.675781 -15.933594 L 1.558594 -12.699219 L 1.675781 -11.863281 L 1.878906 -11.144531 L 1.957031 -10.382812 L 2.316406 -8.867188 L 4.152344 -5.230469 L 4.632812 -4.753906 L 5.152344 -4.113281 L 5.75 -3.554688 L 6.191406 -3.035156 L 7.507812 -1.996094 L 10.625 -0.398438 L 11.78125 0 L 12.660156 0.078125 L 14.097656 0.398438 Z M 17.171875 -6.589844 L 14.976562 -6.589844 L 14.097656 -6.710938 L 12.660156 -7.308594 L 12.019531 -7.667969 L 10.941406 -8.546875 L 10.425781 -9.105469 L 9.863281 -9.863281 L 9.664062 -10.503906 L 9.304688 -11.222656 L 8.984375 -12.699219 L 8.984375 -15.136719 L 9.1875 -15.855469 L 9.304688 -16.613281 L 9.625 -17.332031 L 9.863281 -18.050781 L 10.824219 -19.332031 L 12.820312 -20.6875 L 13.339844 -20.886719 L 14.898438 -21.289062 L 16.015625 -21.367188 L 17.933594 -21.128906 L 18.652344 -20.96875 L 19.371094 -20.648438 L 20.609375 -19.769531 L 22.164062 -18.132812 L 22.644531 -16.613281 L 23.003906 -15.855469 L 23.125 -15.136719 L 23.042969 -12.699219 L 22.726562 -11.222656 L 22.445312 -10.503906 L 22.007812 -9.785156 L 21.765625 -9.1875 L 21.207031 -8.546875 L 19.289062 -7.230469 L 18.570312 -7.027344 L 17.972656 -6.75 Z M 17.171875 -6.589844 "/></g></g></g><g fill="#ffb1b1" fill-opacity="0.302"><g transform="translate(67.369314, 145.694677)"><g><path d="M 23.5625 -0.640625 L 24.722656 -0.121094 L 25.761719 0.199219 L 26.679688 -0.238281 L 27.039062 -1.078125 L 27.238281 -11.941406 L 27.078125 -13.058594 L 27.15625 -13.9375 L 27 -18.730469 L 27.117188 -20.328125 L 27.039062 -21.085938 L 27.039062 -22.683594 L 27.199219 -23.484375 L 27.117188 -24.683594 L 27.199219 -26.757812 L 26.71875 -27.476562 L 25.839844 -27.878906 L 25.042969 -27.957031 L 24.28125 -27.957031 L 23.402344 -27.878906 L 22.566406 -27.996094 L 21.847656 -27.917969 L 21.046875 -27.957031 L 20.089844 -27.558594 L 19.691406 -26.71875 L 19.648438 -19.449219 L 19.808594 -18.609375 L 19.808594 -17.851562 L 19.648438 -17.015625 L 19.691406 -15.417969 L 19.488281 -14.777344 L 18.929688 -14.9375 L 17.171875 -16.734375 L 16.574219 -17.214844 L 15.175781 -18.652344 L 14.539062 -19.128906 L 14.097656 -19.691406 L 13.257812 -20.566406 L 12.019531 -21.605469 L 11.582031 -22.207031 L 10.824219 -22.726562 L 10.425781 -23.324219 L 9.746094 -23.804688 L 9.226562 -24.480469 L 7.070312 -26.679688 L 5.472656 -27.757812 L 4.394531 -28.078125 L 3.433594 -27.597656 L 2.914062 -26.839844 L 2.996094 -21.246094 L 2.914062 -20.449219 L 3.035156 -18.8125 L 2.957031 -18.09375 L 2.996094 -17.253906 L 2.875 -16.414062 L 3.035156 -10.703125 L 2.957031 -9.984375 L 2.957031 -9.226562 L 2.875 -8.347656 L 2.875 -7.589844 L 2.996094 -6.75 L 2.957031 -5.113281 L 3.035156 -4.3125 L 2.914062 -2.796875 L 3.035156 -1.996094 L 3.035156 -1.238281 L 3.394531 -0.359375 L 4.152344 0.078125 L 5.511719 0 L 7.507812 0.121094 L 8.347656 0 L 9.265625 0.078125 L 10.066406 -0.320312 L 10.425781 -1.117188 L 10.304688 -1.917969 L 10.425781 -11.703125 L 10.265625 -12.539062 L 10.664062 -13.019531 L 11.183594 -12.898438 L 16.894531 -7.308594 L 17.53125 -6.789062 L 21.40625 -2.914062 L 21.925781 -2.277344 L 22.566406 -1.757812 L 23.042969 -1.160156 Z M 23.5625 -0.640625 "/></g></g></g><g fill="#ffb1b1" fill-opacity="0.302"><g transform="translate(97.481702, 145.694677)"><g><path d="M 1.4375 -12.222656 L 1.796875 -11.460938 L 2.515625 -10.984375 L 3.355469 -11.023438 L 4.195312 -10.941406 L 4.953125 -11.101562 L 6.550781 -10.984375 L 7.230469 -11.101562 L 9.945312 -11.101562 L 10.742188 -10.984375 L 13.101562 -11.023438 L 14.296875 -11.421875 L 14.777344 -12.261719 L 14.699219 -15.496094 L 14.417969 -16.375 L 13.617188 -16.8125 L 9.585938 -16.773438 L 8.828125 -16.933594 L 4.195312 -16.855469 L 3.394531 -16.933594 L 2.636719 -16.855469 L 1.796875 -16.375 L 1.4375 -15.617188 Z M 1.4375 -12.222656 "/></g></g></g><g fill="#ffb1b1" fill-opacity="0.302"><g transform="translate(113.85582, 145.694677)"><g><path d="M 14.699219 0.398438 L 17.09375 0.519531 L 20.96875 -0.28125 L 23.164062 -1.238281 L 23.761719 -1.636719 L 24.480469 -2.078125 L 25.160156 -2.554688 L 25.679688 -3.074219 L 26.121094 -3.753906 L 26.796875 -4.273438 L 27.996094 -6.351562 L 28.355469 -7.070312 L 28.554688 -7.828125 L 28.835938 -8.625 L 28.957031 -9.386719 L 28.714844 -10.105469 L 27.71875 -10.542969 L 23.445312 -10.582031 L 22.566406 -10.183594 L 21.765625 -9.425781 L 21.445312 -8.746094 L 19.929688 -7.109375 L 18.570312 -6.429688 L 17.773438 -6.191406 L 16.933594 -6.109375 L 14.699219 -6.152344 L 12.539062 -6.949219 L 11.78125 -7.308594 L 11.261719 -7.867188 L 9.785156 -9.785156 L 9.464844 -10.464844 L 8.984375 -12.019531 L 8.867188 -13.898438 L 8.90625 -15.175781 L 9.1875 -15.894531 L 9.226562 -16.695312 L 9.464844 -17.414062 L 10.144531 -18.851562 L 11.144531 -20.089844 L 12.460938 -21.046875 L 13.21875 -21.367188 L 14.617188 -21.765625 L 17.09375 -21.6875 L 18.609375 -21.40625 L 19.449219 -21.128906 L 20.609375 -20.167969 L 21.207031 -19.53125 L 21.566406 -18.851562 L 22.285156 -18.09375 L 23.164062 -17.734375 L 27.199219 -17.652344 L 27.996094 -17.734375 L 28.636719 -18.09375 L 28.875 -18.929688 L 28.554688 -19.730469 L 28.4375 -20.449219 L 27.796875 -21.964844 L 26.320312 -24.003906 L 24.242188 -25.878906 L 23.363281 -26.480469 L 21.085938 -27.515625 L 19.53125 -27.957031 L 17.53125 -28.238281 L 13.898438 -28.238281 L 13.21875 -28.15625 L 12.460938 -27.917969 L 10.902344 -27.597656 L 10.144531 -27.316406 L 9.546875 -26.957031 L 8.828125 -26.679688 L 6.03125 -24.882812 L 5.550781 -24.242188 L 4.472656 -23.242188 L 3.992188 -22.566406 L 2.15625 -18.972656 L 1.4375 -13.976562 L 1.597656 -12.699219 L 1.597656 -11.101562 L 1.996094 -9.546875 L 2.316406 -8.785156 L 2.4375 -8.066406 L 2.835938 -7.347656 L 3.113281 -6.667969 L 4.710938 -4.351562 L 6.152344 -2.957031 L 6.828125 -2.515625 L 7.429688 -2.035156 L 10.144531 -0.558594 L 10.941406 -0.28125 L 11.542969 -0.121094 L 12.382812 0.160156 L 13.21875 0.238281 L 13.9375 0.398438 Z M 14.699219 0.398438 "/></g></g></g><g fill="#ffb1b1" fill-opacity="0.302"><g transform="translate(144.327638, 145.694677)"><g><path d="M 3.035156 -1.117188 L 3.355469 -0.28125 L 4.273438 0.078125 L 5.03125 0.078125 L 6.269531 -0.0390625 L 7.429688 0 L 8.265625 0.121094 L 9.105469 0.0390625 L 9.984375 -0.320312 L 10.304688 -1.117188 L 10.34375 -1.917969 L 10.222656 -2.796875 L 10.304688 -3.515625 L 10.222656 -4.3125 L 10.304688 -5.070312 L 10.265625 -5.949219 L 10.34375 -6.789062 L 10.222656 -9.945312 L 10.625 -10.785156 L 11.421875 -11.261719 L 12.261719 -11.261719 L 12.980469 -11.183594 L 15.335938 -11.183594 L 16.136719 -11.261719 L 16.933594 -11.183594 L 17.691406 -11.183594 L 18.410156 -10.785156 L 18.8125 -9.984375 L 18.929688 -7.546875 L 18.8125 -6.789062 L 18.972656 -3.953125 L 18.8125 -2.753906 L 18.929688 -1.199219 L 19.332031 -0.359375 L 20.128906 0.0390625 L 20.925781 -0.0390625 L 22.125 0.078125 L 24.882812 0.078125 L 25.679688 -0.359375 L 26.121094 -1.117188 L 26.28125 -2.753906 L 26.28125 -9.1875 L 26.121094 -10.703125 L 26.160156 -11.503906 L 26.078125 -12.339844 L 26.078125 -13.140625 L 26.199219 -13.976562 L 26.160156 -15.496094 L 26.238281 -16.375 L 26.121094 -20.289062 L 26.320312 -23.605469 L 26.160156 -24.363281 L 26.078125 -25.121094 L 26.238281 -25.921875 L 26.160156 -26.71875 L 25.761719 -27.515625 L 24.523438 -27.917969 L 22.484375 -27.957031 L 21.207031 -27.835938 L 20.410156 -27.835938 L 19.210938 -27.476562 L 18.890625 -26.320312 L 18.972656 -21.964844 L 18.8125 -21.289062 L 18.8125 -18.972656 L 18.371094 -18.171875 L 17.691406 -17.773438 L 16.09375 -17.773438 L 15.375 -17.851562 L 11.503906 -17.8125 L 10.664062 -18.171875 L 10.34375 -18.929688 L 10.34375 -21.328125 L 10.425781 -22.046875 L 10.304688 -26 L 10.34375 -26.679688 L 9.863281 -27.515625 L 8.625 -27.917969 L 6.269531 -27.835938 L 5.472656 -27.917969 L 4.710938 -27.835938 L 3.476562 -27.476562 L 3.035156 -26.796875 L 2.914062 -25.921875 L 2.914062 -25.160156 L 2.996094 -24.28125 L 2.875 -23.523438 L 3.074219 -21.128906 L 2.957031 -20.25 L 3.035156 -19.570312 L 2.875 -18.769531 L 3.035156 -16.335938 L 2.957031 -15.496094 L 2.957031 -13.179688 L 3.074219 -12.421875 L 2.996094 -11.183594 L 3.074219 -10.265625 L 2.957031 -8.386719 L 3.035156 -7.507812 L 2.914062 -6.710938 L 3.035156 -5.992188 L 2.957031 -5.191406 Z M 3.035156 -1.117188 "/></g></g></g><g fill="#ffb1b1" fill-opacity="0.302"><g transform="translate(173.561415, 145.694677)"><g><path d="M 0.519531 -1.078125 L 0.71875 -0.238281 L 1.519531 -0.0390625 L 5.03125 -0.0390625 L 6.070312 0.078125 L 6.988281 -0.320312 L 7.707031 -1.039062 L 8.386719 -2.394531 L 9.066406 -3.15625 L 10.023438 -3.554688 L 10.824219 -3.476562 L 13.058594 -3.515625 L 13.898438 -3.394531 L 14.816406 -3.515625 L 15.535156 -3.515625 L 16.375 -3.433594 L 18.25 -3.515625 L 19.570312 -3.074219 L 20.410156 -2.4375 L 20.609375 -1.71875 L 21.046875 -1 L 21.726562 -0.359375 L 22.765625 0.0390625 L 23.484375 -0.0390625 L 24.882812 0.078125 L 27.359375 0 L 28.078125 -0.238281 L 28.238281 -1.078125 L 27.996094 -2.078125 L 27.71875 -2.796875 L 27.199219 -3.476562 L 26.957031 -4.273438 L 26.558594 -4.871094 L 26.320312 -5.632812 L 25.640625 -7.070312 L 25.359375 -7.828125 L 24.960938 -8.507812 L 24.402344 -9.984375 L 23.964844 -10.625 L 23.644531 -11.421875 L 23.285156 -12.101562 L 23.003906 -12.898438 L 22.644531 -13.5 L 22.40625 -14.296875 L 21.964844 -15.015625 L 21.648438 -15.695312 L 21.246094 -16.375 L 21.046875 -17.132812 L 20.25 -18.53125 L 20.007812 -19.289062 L 19.289062 -20.808594 L 19.089844 -21.445312 L 18.492188 -22.84375 L 17.691406 -24.324219 L 17.054688 -25.839844 L 16.695312 -26.4375 L 16.453125 -27.199219 L 15.734375 -27.957031 L 14.378906 -28.316406 L 13.101562 -27.917969 L 12.339844 -27.199219 L 12.101562 -26.480469 L 10.382812 -22.882812 L 9.945312 -22.164062 L 7.707031 -17.132812 L 7.507812 -16.453125 L 7.070312 -15.734375 L 6.429688 -14.296875 L 5.832031 -13.257812 L 5.550781 -12.5 L 4.992188 -11.460938 L 4.753906 -10.625 L 4.394531 -9.984375 L 4.113281 -9.1875 L 2.996094 -7.109375 L 1.835938 -4.195312 L 1.359375 -3.554688 L 1 -2.753906 Z M 12.859375 -9.863281 L 12.101562 -10.183594 L 11.980469 -10.984375 L 13.578125 -14.617188 L 13.9375 -15.257812 L 14.457031 -15.65625 L 14.9375 -15.335938 L 15.457031 -13.777344 L 15.894531 -13.101562 L 16.054688 -12.460938 L 16.453125 -11.660156 L 16.734375 -10.941406 L 16.652344 -10.222656 L 15.976562 -9.90625 Z M 12.859375 -9.863281 "/></g></g></g><g fill="#ffb1b1" fill-opacity="0.302"><g transform="translate(202.555576, 145.694677)"><g><path d="M 1.917969 -1.160156 L 2.316406 -0.320312 L 3.113281 -0.0390625 L 14.976562 0.0390625 L 15.734375 -0.359375 L 16.175781 -1.078125 L 16.175781 -1.957031 L 16.09375 -2.675781 L 16.214844 -5.113281 L 15.65625 -5.792969 L 12.980469 -6.628906 L 12.539062 -7.429688 L 12.621094 -10.703125 L 12.460938 -12.300781 L 12.621094 -13.976562 L 12.539062 -15.175781 L 12.621094 -16.414062 L 12.539062 -17.171875 L 12.621094 -17.972656 L 12.539062 -18.8125 L 12.539062 -20.488281 L 12.980469 -21.207031 L 13.738281 -21.648438 L 14.617188 -21.6875 L 15.375 -22.125 L 15.816406 -22.882812 L 15.816406 -25.242188 L 15.894531 -25.960938 L 15.816406 -26.757812 L 15.496094 -27.558594 L 14.21875 -27.917969 L 9.144531 -27.957031 L 8.265625 -27.878906 L 5.832031 -27.917969 L 5.070312 -27.878906 L 3.515625 -27.957031 L 2.636719 -27.558594 L 2.195312 -26.71875 L 2.195312 -25.960938 L 2.117188 -25.28125 L 2.117188 -24.402344 L 2.195312 -23.605469 L 2.195312 -22.84375 L 2.597656 -22.085938 L 5.03125 -21.246094 L 5.550781 -20.527344 L 5.429688 -17.132812 L 5.472656 -16.453125 L 5.589844 -15.535156 L 5.550781 -13.898438 L 5.472656 -13.101562 L 5.632812 -11.542969 L 5.429688 -10.742188 L 5.589844 -9.027344 L 5.511719 -7.46875 L 5.113281 -6.589844 L 2.476562 -5.75 L 1.996094 -4.992188 L 1.917969 -4.234375 Z M 1.917969 -1.160156 "/></g></g></g><g fill="#ffb1b1" fill-opacity="0.302"><g transform="translate(220.686906, 145.694677)"><g><path d="M 23.5625 -0.640625 L 24.722656 -0.121094 L 25.761719 0.199219 L 26.679688 -0.238281 L 27.039062 -1.078125 L 27.238281 -11.941406 L 27.078125 -13.058594 L 27.15625 -13.9375 L 27 -18.730469 L 27.117188 -20.328125 L 27.039062 -21.085938 L 27.039062 -22.683594 L 27.199219 -23.484375 L 27.117188 -24.683594 L 27.199219 -26.757812 L 26.71875 -27.476562 L 25.839844 -27.878906 L 25.042969 -27.957031 L 24.28125 -27.957031 L 23.402344 -27.878906 L 22.566406 -27.996094 L 21.847656 -27.917969 L 21.046875 -27.957031 L 20.089844 -27.558594 L 19.691406 -26.71875 L 19.648438 -19.449219 L 19.808594 -18.609375 L 19.808594 -17.851562 L 19.648438 -17.015625 L 19.691406 -15.417969 L 19.488281 -14.777344 L 18.929688 -14.9375 L 17.171875 -16.734375 L 16.574219 -17.214844 L 15.175781 -18.652344 L 14.539062 -19.128906 L 14.097656 -19.691406 L 13.257812 -20.566406 L 12.019531 -21.605469 L 11.582031 -22.207031 L 10.824219 -22.726562 L 10.425781 -23.324219 L 9.746094 -23.804688 L 9.226562 -24.480469 L 7.070312 -26.679688 L 5.472656 -27.757812 L 4.394531 -28.078125 L 3.433594 -27.597656 L 2.914062 -26.839844 L 2.996094 -21.246094 L 2.914062 -20.449219 L 3.035156 -18.8125 L 2.957031 -18.09375 L 2.996094 -17.253906 L 2.875 -16.414062 L 3.035156 -10.703125 L 2.957031 -9.984375 L 2.957031 -9.226562 L 2.875 -8.347656 L 2.875 -7.589844 L 2.996094 -6.75 L 2.957031 -5.113281 L 3.035156 -4.3125 L 2.914062 -2.796875 L 3.035156 -1.996094 L 3.035156 -1.238281 L 3.394531 -0.359375 L 4.152344 0.078125 L 5.511719 0 L 7.507812 0.121094 L 8.347656 0 L 9.265625 0.078125 L 10.066406 -0.320312 L 10.425781 -1.117188 L 10.304688 -1.917969 L 10.425781 -11.703125 L 10.265625 -12.539062 L 10.664062 -13.019531 L 11.183594 -12.898438 L 16.894531 -7.308594 L 17.53125 -6.789062 L 21.40625 -2.914062 L 21.925781 -2.277344 L 22.566406 -1.757812 L 23.042969 -1.160156 Z M 23.5625 -0.640625 "/></g></g></g><g fill="#ffb1b1" fill-opacity="0.302"><g transform="translate(250.799294, 145.694677)"><g/></g></g><g fill="#ffb1b1" fill-opacity="0.302"><g transform="translate(261.622188, 145.694677)"><g><path d="M 11.261719 -0.71875 L 11.902344 0 L 12.859375 0.359375 L 13.660156 0.4375 L 14.738281 -0.0390625 L 15.417969 -0.679688 L 15.65625 -1.4375 L 16.335938 -2.996094 L 16.695312 -3.753906 L 17.09375 -4.433594 L 17.734375 -5.871094 L 17.972656 -6.589844 L 20.367188 -11.703125 L 20.847656 -13.257812 L 21.6875 -14.699219 L 22.125 -16.214844 L 22.566406 -17.015625 L 22.765625 -17.691406 L 22.964844 -18.453125 L 23.523438 -19.171875 L 23.722656 -19.929688 L 24.242188 -20.527344 L 24.839844 -22.085938 L 25.042969 -22.804688 L 25.480469 -23.484375 L 25.761719 -24.28125 L 26.160156 -25.042969 L 26.320312 -25.71875 L 26.71875 -26.679688 L 26.480469 -27.675781 L 25.800781 -27.917969 L 21.085938 -27.917969 L 20.167969 -27.597656 L 19.449219 -26.839844 L 19.25 -26.121094 L 14.496094 -14.417969 L 14.097656 -13.660156 L 13.898438 -12.941406 L 13.417969 -12.222656 L 12.941406 -12.140625 L 12.621094 -12.859375 L 12.101562 -14.378906 L 11.78125 -15.097656 L 11.542969 -15.894531 L 11.261719 -16.535156 L 10.824219 -17.253906 L 10.34375 -18.851562 L 9.984375 -19.488281 L 9.703125 -20.207031 L 9.546875 -21.007812 L 8.148438 -23.882812 L 8.027344 -24.640625 L 7.628906 -25.402344 L 7.347656 -26.121094 L 6.988281 -26.757812 L 6.308594 -27.558594 L 5.390625 -27.878906 L 3.15625 -27.996094 L 2.476562 -27.917969 L 1.757812 -27.996094 L 0.917969 -27.957031 L 0.078125 -27.597656 L 0 -26.71875 L 0.160156 -25.761719 L 0.519531 -25.042969 L 1.117188 -23.523438 L 1.476562 -22.804688 L 1.71875 -22.085938 L 2.15625 -21.328125 L 2.796875 -19.769531 L 3.195312 -19.050781 L 4.394531 -16.136719 L 4.792969 -15.496094 L 7.429688 -9.546875 L 7.628906 -8.867188 L 8.308594 -7.429688 L 8.546875 -6.667969 L 9.585938 -4.351562 L 9.984375 -3.753906 L 10.183594 -2.914062 Z M 11.261719 -0.71875 "/></g></g></g><g fill="#ffb1b1" fill-opacity="0.302"><g transform="translate(288.539622, 145.694677)"><g><path d="M 14.9375 0.480469 L 17.171875 0.4375 L 19.570312 0.121094 L 22.566406 -0.878906 L 23.882812 -1.597656 L 24.480469 -2.078125 L 25.242188 -2.4375 L 26.359375 -3.394531 L 26.878906 -4.113281 L 27.4375 -4.671875 L 29.195312 -7.347656 L 29.792969 -8.867188 L 30.113281 -10.382812 L 30.152344 -11.101562 L 30.351562 -11.902344 L 30.394531 -12.742188 L 30.554688 -13.898438 L 30.433594 -15.894531 L 30.152344 -17.53125 L 29.15625 -20.527344 L 28.394531 -22.007812 L 27.515625 -23.203125 L 26.398438 -24.441406 L 25.242188 -25.441406 L 24.324219 -26.078125 L 23.125 -26.597656 L 22.523438 -27.039062 L 19.449219 -27.996094 L 17.132812 -28.394531 L 16.054688 -28.4375 L 11.820312 -27.835938 L 8.828125 -26.71875 L 8.226562 -26.28125 L 7.507812 -25.921875 L 6.152344 -24.921875 L 4.195312 -22.644531 L 2.957031 -20.527344 L 2.355469 -19.011719 L 1.675781 -15.933594 L 1.558594 -12.699219 L 1.675781 -11.863281 L 1.878906 -11.144531 L 1.957031 -10.382812 L 2.316406 -8.867188 L 4.152344 -5.230469 L 4.632812 -4.753906 L 5.152344 -4.113281 L 5.75 -3.554688 L 6.191406 -3.035156 L 7.507812 -1.996094 L 10.625 -0.398438 L 11.78125 0 L 12.660156 0.078125 L 14.097656 0.398438 Z M 17.171875 -6.589844 L 14.976562 -6.589844 L 14.097656 -6.710938 L 12.660156 -7.308594 L 12.019531 -7.667969 L 10.941406 -8.546875 L 10.425781 -9.105469 L 9.863281 -9.863281 L 9.664062 -10.503906 L 9.304688 -11.222656 L 8.984375 -12.699219 L 8.984375 -15.136719 L 9.1875 -15.855469 L 9.304688 -16.613281 L 9.625 -17.332031 L 9.863281 -18.050781 L 10.824219 -19.332031 L 12.820312 -20.6875 L 13.339844 -20.886719 L 14.898438 -21.289062 L 16.015625 -21.367188 L 17.933594 -21.128906 L 18.652344 -20.96875 L 19.371094 -20.648438 L 20.609375 -19.769531 L 22.164062 -18.132812 L 22.644531 -16.613281 L 23.003906 -15.855469 L 23.125 -15.136719 L 23.042969 -12.699219 L 22.726562 -11.222656 L 22.445312 -10.503906 L 22.007812 -9.785156 L 21.765625 -9.1875 L 21.207031 -8.546875 L 19.289062 -7.230469 L 18.570312 -7.027344 L 17.972656 -6.75 Z M 17.171875 -6.589844 "/></g></g></g><g fill="#ffb1b1" fill-opacity="0.302"><g transform="translate(320.568997, 145.694677)"><g><path d="M 7.667969 -1.238281 L 7.988281 -0.398438 L 8.828125 0 L 9.585938 -0.078125 L 10.382812 0 L 11.144531 -0.078125 L 13.617188 -0.078125 L 14.417969 -0.398438 L 14.738281 -1.199219 L 14.699219 -1.957031 L 14.777344 -2.875 L 14.738281 -4.472656 L 14.617188 -5.152344 L 14.738281 -5.992188 L 14.816406 -8.425781 L 14.738281 -9.144531 L 14.855469 -10.824219 L 14.699219 -18.769531 L 14.816406 -19.570312 L 14.738281 -20.449219 L 15.058594 -21.167969 L 15.933594 -21.527344 L 16.613281 -21.566406 L 17.414062 -21.527344 L 18.132812 -21.605469 L 20.328125 -21.566406 L 21.246094 -21.925781 L 21.648438 -22.726562 L 21.566406 -23.5625 L 21.648438 -26.839844 L 21.246094 -27.636719 L 20.449219 -28.035156 L 19.488281 -27.957031 L 18.851562 -28.035156 L 18.09375 -28.035156 L 17.214844 -27.917969 L 16.414062 -27.917969 L 15.617188 -27.996094 L 14.816406 -27.996094 L 13.898438 -27.878906 L 1.996094 -27.957031 L 1.117188 -27.558594 L 0.71875 -26.757812 L 0.679688 -22.765625 L 1.117188 -21.886719 L 1.917969 -21.488281 L 2.957031 -21.605469 L 6.511719 -21.566406 L 7.230469 -21.128906 L 7.628906 -20.367188 L 7.746094 -15.976562 L 7.628906 -14.738281 L 7.707031 -13.976562 L 7.628906 -13.179688 L 7.628906 -11.582031 L 7.746094 -10.425781 L 7.589844 -9.226562 L 7.628906 -8.425781 L 7.589844 -7.589844 L 7.707031 -5.152344 L 7.628906 -4.351562 Z M 7.667969 -1.238281 "/></g></g></g><g fill="#ffb1b1" fill-opacity="0.302"><g transform="translate(342.893695, 145.694677)"><g><path d="M 1.917969 -1.160156 L 2.316406 -0.320312 L 3.113281 -0.0390625 L 14.976562 0.0390625 L 15.734375 -0.359375 L 16.175781 -1.078125 L 16.175781 -1.957031 L 16.09375 -2.675781 L 16.214844 -5.113281 L 15.65625 -5.792969 L 12.980469 -6.628906 L 12.539062 -7.429688 L 12.621094 -10.703125 L 12.460938 -12.300781 L 12.621094 -13.976562 L 12.539062 -15.175781 L 12.621094 -16.414062 L 12.539062 -17.171875 L 12.621094 -17.972656 L 12.539062 -18.8125 L 12.539062 -20.488281 L 12.980469 -21.207031 L 13.738281 -21.648438 L 14.617188 -21.6875 L 15.375 -22.125 L 15.816406 -22.882812 L 15.816406 -25.242188 L 15.894531 -25.960938 L 15.816406 -26.757812 L 15.496094 -27.558594 L 14.21875 -27.917969 L 9.144531 -27.957031 L 8.265625 -27.878906 L 5.832031 -27.917969 L 5.070312 -27.878906 L 3.515625 -27.957031 L 2.636719 -27.558594 L 2.195312 -26.71875 L 2.195312 -25.960938 L 2.117188 -25.28125 L 2.117188 -24.402344 L 2.195312 -23.605469 L 2.195312 -22.84375 L 2.597656 -22.085938 L 5.03125 -21.246094 L 5.550781 -20.527344 L 5.429688 -17.132812 L 5.472656 -16.453125 L 5.589844 -15.535156 L 5.550781 -13.898438 L 5.472656 -13.101562 L 5.632812 -11.542969 L 5.429688 -10.742188 L 5.589844 -9.027344 L 5.511719 -7.46875 L 5.113281 -6.589844 L 2.476562 -5.75 L 1.996094 -4.992188 L 1.917969 -4.234375 Z M 1.917969 -1.160156 "/></g></g></g><g fill="#ffb1b1" fill-opacity="0.302"><g transform="translate(361.025036, 145.694677)"><g><path d="M 23.5625 -0.640625 L 24.722656 -0.121094 L 25.761719 0.199219 L 26.679688 -0.238281 L 27.039062 -1.078125 L 27.238281 -11.941406 L 27.078125 -13.058594 L 27.15625 -13.9375 L 27 -18.730469 L 27.117188 -20.328125 L 27.039062 -21.085938 L 27.039062 -22.683594 L 27.199219 -23.484375 L 27.117188 -24.683594 L 27.199219 -26.757812 L 26.71875 -27.476562 L 25.839844 -27.878906 L 25.042969 -27.957031 L 24.28125 -27.957031 L 23.402344 -27.878906 L 22.566406 -27.996094 L 21.847656 -27.917969 L 21.046875 -27.957031 L 20.089844 -27.558594 L 19.691406 -26.71875 L 19.648438 -19.449219 L 19.808594 -18.609375 L 19.808594 -17.851562 L 19.648438 -17.015625 L 19.691406 -15.417969 L 19.488281 -14.777344 L 18.929688 -14.9375 L 17.171875 -16.734375 L 16.574219 -17.214844 L 15.175781 -18.652344 L 14.539062 -19.128906 L 14.097656 -19.691406 L 13.257812 -20.566406 L 12.019531 -21.605469 L 11.582031 -22.207031 L 10.824219 -22.726562 L 10.425781 -23.324219 L 9.746094 -23.804688 L 9.226562 -24.480469 L 7.070312 -26.679688 L 5.472656 -27.757812 L 4.394531 -28.078125 L 3.433594 -27.597656 L 2.914062 -26.839844 L 2.996094 -21.246094 L 2.914062 -20.449219 L 3.035156 -18.8125 L 2.957031 -18.09375 L 2.996094 -17.253906 L 2.875 -16.414062 L 3.035156 -10.703125 L 2.957031 -9.984375 L 2.957031 -9.226562 L 2.875 -8.347656 L 2.875 -7.589844 L 2.996094 -6.75 L 2.957031 -5.113281 L 3.035156 -4.3125 L 2.914062 -2.796875 L 3.035156 -1.996094 L 3.035156 -1.238281 L 3.394531 -0.359375 L 4.152344 0.078125 L 5.511719 0 L 7.507812 0.121094 L 8.347656 0 L 9.265625 0.078125 L 10.066406 -0.320312 L 10.425781 -1.117188 L 10.304688 -1.917969 L 10.425781 -11.703125 L 10.265625 -12.539062 L 10.664062 -13.019531 L 11.183594 -12.898438 L 16.894531 -7.308594 L 17.53125 -6.789062 L 21.40625 -2.914062 L 21.925781 -2.277344 L 22.566406 -1.757812 L 23.042969 -1.160156 Z M 23.5625 -0.640625 "/></g></g></g><g fill="#ffb1b1" fill-opacity="0.302"><g transform="translate(391.137437, 145.694677)"><g><path d="M 14.617188 0.480469 L 15.65625 0.519531 L 17.8125 0.320312 L 18.609375 0.160156 L 19.371094 0.121094 L 20.050781 -0.078125 L 23.003906 -1.359375 L 23.5625 -1.835938 L 24.882812 -2.675781 L 26.039062 -3.914062 L 27.316406 -5.792969 L 28.238281 -7.628906 L 28.753906 -9.34375 L 28.796875 -10.105469 L 29.035156 -10.902344 L 29.195312 -13.9375 L 29.074219 -14.738281 L 28.597656 -15.535156 L 27.4375 -15.894531 L 17.414062 -15.894531 L 16.175781 -15.457031 L 15.816406 -14.699219 L 15.734375 -11.703125 L 15.894531 -10.941406 L 16.136719 -10.265625 L 16.894531 -9.90625 L 17.652344 -9.90625 L 18.371094 -9.824219 L 20.769531 -9.945312 L 21.328125 -9.503906 L 21.488281 -8.828125 L 21.167969 -8.1875 L 20.007812 -7.070312 L 19.371094 -6.75 L 17.851562 -6.269531 L 17.054688 -6.152344 L 15.894531 -6.109375 L 14.65625 -6.191406 L 13.9375 -6.351562 L 13.21875 -6.628906 L 11.78125 -7.386719 L 10.582031 -8.347656 L 10.144531 -9.027344 L 9.824219 -9.703125 L 9.386719 -10.425781 L 9.105469 -11.183594 L 8.867188 -15.175781 L 9.304688 -16.613281 L 9.464844 -17.414062 L 10.066406 -18.890625 L 11.101562 -20.007812 L 12.421875 -20.925781 L 13.101562 -21.246094 L 14.65625 -21.765625 L 15.777344 -21.804688 L 17.851562 -21.566406 L 18.609375 -21.367188 L 20.609375 -20.128906 L 21.007812 -19.488281 L 21.886719 -18.851562 L 22.765625 -18.453125 L 26.679688 -18.453125 L 27.4375 -18.53125 L 28.117188 -18.769531 L 28.394531 -19.648438 L 27.117188 -22.605469 L 26.558594 -23.164062 L 25.558594 -24.441406 L 24.402344 -25.601562 L 21.6875 -27.277344 L 20.808594 -27.515625 L 20.167969 -27.796875 L 19.371094 -27.917969 L 18.492188 -28.15625 L 14.539062 -28.355469 L 12.101562 -27.957031 L 9.066406 -26.878906 L 8.347656 -26.519531 L 6.351562 -25.160156 L 5.152344 -24.042969 L 4.632812 -23.363281 L 4.234375 -22.726562 L 3.632812 -22.164062 L 3.195312 -21.40625 L 1.957031 -18.371094 L 1.917969 -17.652344 L 1.476562 -15.894531 L 1.558594 -13.898438 L 1.476562 -12.78125 L 1.519531 -11.941406 L 2.195312 -8.867188 L 3.035156 -6.667969 L 3.476562 -5.910156 L 4.914062 -4.113281 L 6.03125 -2.957031 L 8.585938 -1.238281 L 9.304688 -0.878906 L 11.542969 -0.078125 L 13.777344 0.398438 Z M 14.617188 0.480469 "/></g></g></g><g fill="#ffb1b1" fill-opacity="0.502"><g transform="translate(33.574799, 143.929526)"><g><path d="M 14.9375 0.480469 L 17.171875 0.4375 L 19.570312 0.121094 L 22.566406 -0.878906 L 23.882812 -1.597656 L 24.480469 -2.078125 L 25.242188 -2.4375 L 26.359375 -3.394531 L 26.878906 -4.113281 L 27.4375 -4.671875 L 29.195312 -7.347656 L 29.792969 -8.867188 L 30.113281 -10.382812 L 30.152344 -11.101562 L 30.351562 -11.902344 L 30.394531 -12.742188 L 30.554688 -13.898438 L 30.433594 -15.894531 L 30.152344 -17.53125 L 29.15625 -20.527344 L 28.394531 -22.007812 L 27.515625 -23.203125 L 26.398438 -24.441406 L 25.242188 -25.441406 L 24.324219 -26.078125 L 23.125 -26.597656 L 22.523438 -27.039062 L 19.449219 -27.996094 L 17.132812 -28.394531 L 16.054688 -28.4375 L 11.820312 -27.835938 L 8.828125 -26.71875 L 8.226562 -26.28125 L 7.507812 -25.921875 L 6.152344 -24.921875 L 4.195312 -22.644531 L 2.957031 -20.527344 L 2.355469 -19.011719 L 1.675781 -15.933594 L 1.558594 -12.699219 L 1.675781 -11.863281 L 1.878906 -11.144531 L 1.957031 -10.382812 L 2.316406 -8.867188 L 4.152344 -5.230469 L 4.632812 -4.753906 L 5.152344 -4.113281 L 5.75 -3.554688 L 6.191406 -3.035156 L 7.507812 -1.996094 L 10.625 -0.398438 L 11.78125 0 L 12.660156 0.078125 L 14.097656 0.398438 Z M 17.171875 -6.589844 L 14.976562 -6.589844 L 14.097656 -6.710938 L 12.660156 -7.308594 L 12.019531 -7.667969 L 10.941406 -8.546875 L 10.425781 -9.105469 L 9.863281 -9.863281 L 9.664062 -10.503906 L 9.304688 -11.222656 L 8.984375 -12.699219 L 8.984375 -15.136719 L 9.1875 -15.855469 L 9.304688 -16.613281 L 9.625 -17.332031 L 9.863281 -18.050781 L 10.824219 -19.332031 L 12.820312 -20.6875 L 13.339844 -20.886719 L 14.898438 -21.289062 L 16.015625 -21.367188 L 17.933594 -21.128906 L 18.652344 -20.96875 L 19.371094 -20.648438 L 20.609375 -19.769531 L 22.164062 -18.132812 L 22.644531 -16.613281 L 23.003906 -15.855469 L 23.125 -15.136719 L 23.042969 -12.699219 L 22.726562 -11.222656 L 22.445312 -10.503906 L 22.007812 -9.785156 L 21.765625 -9.1875 L 21.207031 -8.546875 L 19.289062 -7.230469 L 18.570312 -7.027344 L 17.972656 -6.75 Z M 17.171875 -6.589844 "/></g></g></g><g fill="#ffb1b1" fill-opacity="0.502"><g transform="translate(65.604163, 143.929526)"><g><path d="M 23.5625 -0.640625 L 24.722656 -0.121094 L 25.761719 0.199219 L 26.679688 -0.238281 L 27.039062 -1.078125 L 27.238281 -11.941406 L 27.078125 -13.058594 L 27.15625 -13.9375 L 27 -18.730469 L 27.117188 -20.328125 L 27.039062 -21.085938 L 27.039062 -22.683594 L 27.199219 -23.484375 L 27.117188 -24.683594 L 27.199219 -26.757812 L 26.71875 -27.476562 L 25.839844 -27.878906 L 25.042969 -27.957031 L 24.28125 -27.957031 L 23.402344 -27.878906 L 22.566406 -27.996094 L 21.847656 -27.917969 L 21.046875 -27.957031 L 20.089844 -27.558594 L 19.691406 -26.71875 L 19.648438 -19.449219 L 19.808594 -18.609375 L 19.808594 -17.851562 L 19.648438 -17.015625 L 19.691406 -15.417969 L 19.488281 -14.777344 L 18.929688 -14.9375 L 17.171875 -16.734375 L 16.574219 -17.214844 L 15.175781 -18.652344 L 14.539062 -19.128906 L 14.097656 -19.691406 L 13.257812 -20.566406 L 12.019531 -21.605469 L 11.582031 -22.207031 L 10.824219 -22.726562 L 10.425781 -23.324219 L 9.746094 -23.804688 L 9.226562 -24.480469 L 7.070312 -26.679688 L 5.472656 -27.757812 L 4.394531 -28.078125 L 3.433594 -27.597656 L 2.914062 -26.839844 L 2.996094 -21.246094 L 2.914062 -20.449219 L 3.035156 -18.8125 L 2.957031 -18.09375 L 2.996094 -17.253906 L 2.875 -16.414062 L 3.035156 -10.703125 L 2.957031 -9.984375 L 2.957031 -9.226562 L 2.875 -8.347656 L 2.875 -7.589844 L 2.996094 -6.75 L 2.957031 -5.113281 L 3.035156 -4.3125 L 2.914062 -2.796875 L 3.035156 -1.996094 L 3.035156 -1.238281 L 3.394531 -0.359375 L 4.152344 0.078125 L 5.511719 0 L 7.507812 0.121094 L 8.347656 0 L 9.265625 0.078125 L 10.066406 -0.320312 L 10.425781 -1.117188 L 10.304688 -1.917969 L 10.425781 -11.703125 L 10.265625 -12.539062 L 10.664062 -13.019531 L 11.183594 -12.898438 L 16.894531 -7.308594 L 17.53125 -6.789062 L 21.40625 -2.914062 L 21.925781 -2.277344 L 22.566406 -1.757812 L 23.042969 -1.160156 Z M 23.5625 -0.640625 "/></g></g></g><g fill="#ffb1b1" fill-opacity="0.502"><g transform="translate(95.716551, 143.929526)"><g><path d="M 1.4375 -12.222656 L 1.796875 -11.460938 L 2.515625 -10.984375 L 3.355469 -11.023438 L 4.195312 -10.941406 L 4.953125 -11.101562 L 6.550781 -10.984375 L 7.230469 -11.101562 L 9.945312 -11.101562 L 10.742188 -10.984375 L 13.101562 -11.023438 L 14.296875 -11.421875 L 14.777344 -12.261719 L 14.699219 -15.496094 L 14.417969 -16.375 L 13.617188 -16.8125 L 9.585938 -16.773438 L 8.828125 -16.933594 L 4.195312 -16.855469 L 3.394531 -16.933594 L 2.636719 -16.855469 L 1.796875 -16.375 L 1.4375 -15.617188 Z M 1.4375 -12.222656 "/></g></g></g><g fill="#ffb1b1" fill-opacity="0.502"><g transform="translate(112.090669, 143.929526)"><g><path d="M 14.699219 0.398438 L 17.09375 0.519531 L 20.96875 -0.28125 L 23.164062 -1.238281 L 23.761719 -1.636719 L 24.480469 -2.078125 L 25.160156 -2.554688 L 25.679688 -3.074219 L 26.121094 -3.753906 L 26.796875 -4.273438 L 27.996094 -6.351562 L 28.355469 -7.070312 L 28.554688 -7.828125 L 28.835938 -8.625 L 28.957031 -9.386719 L 28.714844 -10.105469 L 27.71875 -10.542969 L 23.445312 -10.582031 L 22.566406 -10.183594 L 21.765625 -9.425781 L 21.445312 -8.746094 L 19.929688 -7.109375 L 18.570312 -6.429688 L 17.773438 -6.191406 L 16.933594 -6.109375 L 14.699219 -6.152344 L 12.539062 -6.949219 L 11.78125 -7.308594 L 11.261719 -7.867188 L 9.785156 -9.785156 L 9.464844 -10.464844 L 8.984375 -12.019531 L 8.867188 -13.898438 L 8.90625 -15.175781 L 9.1875 -15.894531 L 9.226562 -16.695312 L 9.464844 -17.414062 L 10.144531 -18.851562 L 11.144531 -20.089844 L 12.460938 -21.046875 L 13.21875 -21.367188 L 14.617188 -21.765625 L 17.09375 -21.6875 L 18.609375 -21.40625 L 19.449219 -21.128906 L 20.609375 -20.167969 L 21.207031 -19.53125 L 21.566406 -18.851562 L 22.285156 -18.09375 L 23.164062 -17.734375 L 27.199219 -17.652344 L 27.996094 -17.734375 L 28.636719 -18.09375 L 28.875 -18.929688 L 28.554688 -19.730469 L 28.4375 -20.449219 L 27.796875 -21.964844 L 26.320312 -24.003906 L 24.242188 -25.878906 L 23.363281 -26.480469 L 21.085938 -27.515625 L 19.53125 -27.957031 L 17.53125 -28.238281 L 13.898438 -28.238281 L 13.21875 -28.15625 L 12.460938 -27.917969 L 10.902344 -27.597656 L 10.144531 -27.316406 L 9.546875 -26.957031 L 8.828125 -26.679688 L 6.03125 -24.882812 L 5.550781 -24.242188 L 4.472656 -23.242188 L 3.992188 -22.566406 L 2.15625 -18.972656 L 1.4375 -13.976562 L 1.597656 -12.699219 L 1.597656 -11.101562 L 1.996094 -9.546875 L 2.316406 -8.785156 L 2.4375 -8.066406 L 2.835938 -7.347656 L 3.113281 -6.667969 L 4.710938 -4.351562 L 6.152344 -2.957031 L 6.828125 -2.515625 L 7.429688 -2.035156 L 10.144531 -0.558594 L 10.941406 -0.28125 L 11.542969 -0.121094 L 12.382812 0.160156 L 13.21875 0.238281 L 13.9375 0.398438 Z M 14.699219 0.398438 "/></g></g></g><g fill="#ffb1b1" fill-opacity="0.502"><g transform="translate(142.562487, 143.929526)"><g><path d="M 3.035156 -1.117188 L 3.355469 -0.28125 L 4.273438 0.078125 L 5.03125 0.078125 L 6.269531 -0.0390625 L 7.429688 0 L 8.265625 0.121094 L 9.105469 0.0390625 L 9.984375 -0.320312 L 10.304688 -1.117188 L 10.34375 -1.917969 L 10.222656 -2.796875 L 10.304688 -3.515625 L 10.222656 -4.3125 L 10.304688 -5.070312 L 10.265625 -5.949219 L 10.34375 -6.789062 L 10.222656 -9.945312 L 10.625 -10.785156 L 11.421875 -11.261719 L 12.261719 -11.261719 L 12.980469 -11.183594 L 15.335938 -11.183594 L 16.136719 -11.261719 L 16.933594 -11.183594 L 17.691406 -11.183594 L 18.410156 -10.785156 L 18.8125 -9.984375 L 18.929688 -7.546875 L 18.8125 -6.789062 L 18.972656 -3.953125 L 18.8125 -2.753906 L 18.929688 -1.199219 L 19.332031 -0.359375 L 20.128906 0.0390625 L 20.925781 -0.0390625 L 22.125 0.078125 L 24.882812 0.078125 L 25.679688 -0.359375 L 26.121094 -1.117188 L 26.28125 -2.753906 L 26.28125 -9.1875 L 26.121094 -10.703125 L 26.160156 -11.503906 L 26.078125 -12.339844 L 26.078125 -13.140625 L 26.199219 -13.976562 L 26.160156 -15.496094 L 26.238281 -16.375 L 26.121094 -20.289062 L 26.320312 -23.605469 L 26.160156 -24.363281 L 26.078125 -25.121094 L 26.238281 -25.921875 L 26.160156 -26.71875 L 25.761719 -27.515625 L 24.523438 -27.917969 L 22.484375 -27.957031 L 21.207031 -27.835938 L 20.410156 -27.835938 L 19.210938 -27.476562 L 18.890625 -26.320312 L 18.972656 -21.964844 L 18.8125 -21.289062 L 18.8125 -18.972656 L 18.371094 -18.171875 L 17.691406 -17.773438 L 16.09375 -17.773438 L 15.375 -17.851562 L 11.503906 -17.8125 L 10.664062 -18.171875 L 10.34375 -18.929688 L 10.34375 -21.328125 L 10.425781 -22.046875 L 10.304688 -26 L 10.34375 -26.679688 L 9.863281 -27.515625 L 8.625 -27.917969 L 6.269531 -27.835938 L 5.472656 -27.917969 L 4.710938 -27.835938 L 3.476562 -27.476562 L 3.035156 -26.796875 L 2.914062 -25.921875 L 2.914062 -25.160156 L 2.996094 -24.28125 L 2.875 -23.523438 L 3.074219 -21.128906 L 2.957031 -20.25 L 3.035156 -19.570312 L 2.875 -18.769531 L 3.035156 -16.335938 L 2.957031 -15.496094 L 2.957031 -13.179688 L 3.074219 -12.421875 L 2.996094 -11.183594 L 3.074219 -10.265625 L 2.957031 -8.386719 L 3.035156 -7.507812 L 2.914062 -6.710938 L 3.035156 -5.992188 L 2.957031 -5.191406 Z M 3.035156 -1.117188 "/></g></g></g><g fill="#ffb1b1" fill-opacity="0.502"><g transform="translate(171.796265, 143.929526)"><g><path d="M 0.519531 -1.078125 L 0.71875 -0.238281 L 1.519531 -0.0390625 L 5.03125 -0.0390625 L 6.070312 0.078125 L 6.988281 -0.320312 L 7.707031 -1.039062 L 8.386719 -2.394531 L 9.066406 -3.15625 L 10.023438 -3.554688 L 10.824219 -3.476562 L 13.058594 -3.515625 L 13.898438 -3.394531 L 14.816406 -3.515625 L 15.535156 -3.515625 L 16.375 -3.433594 L 18.25 -3.515625 L 19.570312 -3.074219 L 20.410156 -2.4375 L 20.609375 -1.71875 L 21.046875 -1 L 21.726562 -0.359375 L 22.765625 0.0390625 L 23.484375 -0.0390625 L 24.882812 0.078125 L 27.359375 0 L 28.078125 -0.238281 L 28.238281 -1.078125 L 27.996094 -2.078125 L 27.71875 -2.796875 L 27.199219 -3.476562 L 26.957031 -4.273438 L 26.558594 -4.871094 L 26.320312 -5.632812 L 25.640625 -7.070312 L 25.359375 -7.828125 L 24.960938 -8.507812 L 24.402344 -9.984375 L 23.964844 -10.625 L 23.644531 -11.421875 L 23.285156 -12.101562 L 23.003906 -12.898438 L 22.644531 -13.5 L 22.40625 -14.296875 L 21.964844 -15.015625 L 21.648438 -15.695312 L 21.246094 -16.375 L 21.046875 -17.132812 L 20.25 -18.53125 L 20.007812 -19.289062 L 19.289062 -20.808594 L 19.089844 -21.445312 L 18.492188 -22.84375 L 17.691406 -24.324219 L 17.054688 -25.839844 L 16.695312 -26.4375 L 16.453125 -27.199219 L 15.734375 -27.957031 L 14.378906 -28.316406 L 13.101562 -27.917969 L 12.339844 -27.199219 L 12.101562 -26.480469 L 10.382812 -22.882812 L 9.945312 -22.164062 L 7.707031 -17.132812 L 7.507812 -16.453125 L 7.070312 -15.734375 L 6.429688 -14.296875 L 5.832031 -13.257812 L 5.550781 -12.5 L 4.992188 -11.460938 L 4.753906 -10.625 L 4.394531 -9.984375 L 4.113281 -9.1875 L 2.996094 -7.109375 L 1.835938 -4.195312 L 1.359375 -3.554688 L 1 -2.753906 Z M 12.859375 -9.863281 L 12.101562 -10.183594 L 11.980469 -10.984375 L 13.578125 -14.617188 L 13.9375 -15.257812 L 14.457031 -15.65625 L 14.9375 -15.335938 L 15.457031 -13.777344 L 15.894531 -13.101562 L 16.054688 -12.460938 L 16.453125 -11.660156 L 16.734375 -10.941406 L 16.652344 -10.222656 L 15.976562 -9.90625 Z M 12.859375 -9.863281 "/></g></g></g><g fill="#ffb1b1" fill-opacity="0.502"><g transform="translate(200.790425, 143.929526)"><g><path d="M 1.917969 -1.160156 L 2.316406 -0.320312 L 3.113281 -0.0390625 L 14.976562 0.0390625 L 15.734375 -0.359375 L 16.175781 -1.078125 L 16.175781 -1.957031 L 16.09375 -2.675781 L 16.214844 -5.113281 L 15.65625 -5.792969 L 12.980469 -6.628906 L 12.539062 -7.429688 L 12.621094 -10.703125 L 12.460938 -12.300781 L 12.621094 -13.976562 L 12.539062 -15.175781 L 12.621094 -16.414062 L 12.539062 -17.171875 L 12.621094 -17.972656 L 12.539062 -18.8125 L 12.539062 -20.488281 L 12.980469 -21.207031 L 13.738281 -21.648438 L 14.617188 -21.6875 L 15.375 -22.125 L 15.816406 -22.882812 L 15.816406 -25.242188 L 15.894531 -25.960938 L 15.816406 -26.757812 L 15.496094 -27.558594 L 14.21875 -27.917969 L 9.144531 -27.957031 L 8.265625 -27.878906 L 5.832031 -27.917969 L 5.070312 -27.878906 L 3.515625 -27.957031 L 2.636719 -27.558594 L 2.195312 -26.71875 L 2.195312 -25.960938 L 2.117188 -25.28125 L 2.117188 -24.402344 L 2.195312 -23.605469 L 2.195312 -22.84375 L 2.597656 -22.085938 L 5.03125 -21.246094 L 5.550781 -20.527344 L 5.429688 -17.132812 L 5.472656 -16.453125 L 5.589844 -15.535156 L 5.550781 -13.898438 L 5.472656 -13.101562 L 5.632812 -11.542969 L 5.429688 -10.742188 L 5.589844 -9.027344 L 5.511719 -7.46875 L 5.113281 -6.589844 L 2.476562 -5.75 L 1.996094 -4.992188 L 1.917969 -4.234375 Z M 1.917969 -1.160156 "/></g></g></g><g fill="#ffb1b1" fill-opacity="0.502"><g transform="translate(218.921755, 143.929526)"><g><path d="M 23.5625 -0.640625 L 24.722656 -0.121094 L 25.761719 0.199219 L 26.679688 -0.238281 L 27.039062 -1.078125 L 27.238281 -11.941406 L 27.078125 -13.058594 L 27.15625 -13.9375 L 27 -18.730469 L 27.117188 -20.328125 L 27.039062 -21.085938 L 27.039062 -22.683594 L 27.199219 -23.484375 L 27.117188 -24.683594 L 27.199219 -26.757812 L 26.71875 -27.476562 L 25.839844 -27.878906 L 25.042969 -27.957031 L 24.28125 -27.957031 L 23.402344 -27.878906 L 22.566406 -27.996094 L 21.847656 -27.917969 L 21.046875 -27.957031 L 20.089844 -27.558594 L 19.691406 -26.71875 L 19.648438 -19.449219 L 19.808594 -18.609375 L 19.808594 -17.851562 L 19.648438 -17.015625 L 19.691406 -15.417969 L 19.488281 -14.777344 L 18.929688 -14.9375 L 17.171875 -16.734375 L 16.574219 -17.214844 L 15.175781 -18.652344 L 14.539062 -19.128906 L 14.097656 -19.691406 L 13.257812 -20.566406 L 12.019531 -21.605469 L 11.582031 -22.207031 L 10.824219 -22.726562 L 10.425781 -23.324219 L 9.746094 -23.804688 L 9.226562 -24.480469 L 7.070312 -26.679688 L 5.472656 -27.757812 L 4.394531 -28.078125 L 3.433594 -27.597656 L 2.914062 -26.839844 L 2.996094 -21.246094 L 2.914062 -20.449219 L 3.035156 -18.8125 L 2.957031 -18.09375 L 2.996094 -17.253906 L 2.875 -16.414062 L 3.035156 -10.703125 L 2.957031 -9.984375 L 2.957031 -9.226562 L 2.875 -8.347656 L 2.875 -7.589844 L 2.996094 -6.75 L 2.957031 -5.113281 L 3.035156 -4.3125 L 2.914062 -2.796875 L 3.035156 -1.996094 L 3.035156 -1.238281 L 3.394531 -0.359375 L 4.152344 0.078125 L 5.511719 0 L 7.507812 0.121094 L 8.347656 0 L 9.265625 0.078125 L 10.066406 -0.320312 L 10.425781 -1.117188 L 10.304688 -1.917969 L 10.425781 -11.703125 L 10.265625 -12.539062 L 10.664062 -13.019531 L 11.183594 -12.898438 L 16.894531 -7.308594 L 17.53125 -6.789062 L 21.40625 -2.914062 L 21.925781 -2.277344 L 22.566406 -1.757812 L 23.042969 -1.160156 Z M 23.5625 -0.640625 "/></g></g></g><g fill="#ffb1b1" fill-opacity="0.502"><g transform="translate(249.034143, 143.929526)"><g/></g></g><g fill="#ffb1b1" fill-opacity="0.502"><g transform="translate(259.857037, 143.929526)"><g><path d="M 11.261719 -0.71875 L 11.902344 0 L 12.859375 0.359375 L 13.660156 0.4375 L 14.738281 -0.0390625 L 15.417969 -0.679688 L 15.65625 -1.4375 L 16.335938 -2.996094 L 16.695312 -3.753906 L 17.09375 -4.433594 L 17.734375 -5.871094 L 17.972656 -6.589844 L 20.367188 -11.703125 L 20.847656 -13.257812 L 21.6875 -14.699219 L 22.125 -16.214844 L 22.566406 -17.015625 L 22.765625 -17.691406 L 22.964844 -18.453125 L 23.523438 -19.171875 L 23.722656 -19.929688 L 24.242188 -20.527344 L 24.839844 -22.085938 L 25.042969 -22.804688 L 25.480469 -23.484375 L 25.761719 -24.28125 L 26.160156 -25.042969 L 26.320312 -25.71875 L 26.71875 -26.679688 L 26.480469 -27.675781 L 25.800781 -27.917969 L 21.085938 -27.917969 L 20.167969 -27.597656 L 19.449219 -26.839844 L 19.25 -26.121094 L 14.496094 -14.417969 L 14.097656 -13.660156 L 13.898438 -12.941406 L 13.417969 -12.222656 L 12.941406 -12.140625 L 12.621094 -12.859375 L 12.101562 -14.378906 L 11.78125 -15.097656 L 11.542969 -15.894531 L 11.261719 -16.535156 L 10.824219 -17.253906 L 10.34375 -18.851562 L 9.984375 -19.488281 L 9.703125 -20.207031 L 9.546875 -21.007812 L 8.148438 -23.882812 L 8.027344 -24.640625 L 7.628906 -25.402344 L 7.347656 -26.121094 L 6.988281 -26.757812 L 6.308594 -27.558594 L 5.390625 -27.878906 L 3.15625 -27.996094 L 2.476562 -27.917969 L 1.757812 -27.996094 L 0.917969 -27.957031 L 0.078125 -27.597656 L 0 -26.71875 L 0.160156 -25.761719 L 0.519531 -25.042969 L 1.117188 -23.523438 L 1.476562 -22.804688 L 1.71875 -22.085938 L 2.15625 -21.328125 L 2.796875 -19.769531 L 3.195312 -19.050781 L 4.394531 -16.136719 L 4.792969 -15.496094 L 7.429688 -9.546875 L 7.628906 -8.867188 L 8.308594 -7.429688 L 8.546875 -6.667969 L 9.585938 -4.351562 L 9.984375 -3.753906 L 10.183594 -2.914062 Z M 11.261719 -0.71875 "/></g></g></g><g fill="#ffb1b1" fill-opacity="0.502"><g transform="translate(286.774471, 143.929526)"><g><path d="M 14.9375 0.480469 L 17.171875 0.4375 L 19.570312 0.121094 L 22.566406 -0.878906 L 23.882812 -1.597656 L 24.480469 -2.078125 L 25.242188 -2.4375 L 26.359375 -3.394531 L 26.878906 -4.113281 L 27.4375 -4.671875 L 29.195312 -7.347656 L 29.792969 -8.867188 L 30.113281 -10.382812 L 30.152344 -11.101562 L 30.351562 -11.902344 L 30.394531 -12.742188 L 30.554688 -13.898438 L 30.433594 -15.894531 L 30.152344 -17.53125 L 29.15625 -20.527344 L 28.394531 -22.007812 L 27.515625 -23.203125 L 26.398438 -24.441406 L 25.242188 -25.441406 L 24.324219 -26.078125 L 23.125 -26.597656 L 22.523438 -27.039062 L 19.449219 -27.996094 L 17.132812 -28.394531 L 16.054688 -28.4375 L 11.820312 -27.835938 L 8.828125 -26.71875 L 8.226562 -26.28125 L 7.507812 -25.921875 L 6.152344 -24.921875 L 4.195312 -22.644531 L 2.957031 -20.527344 L 2.355469 -19.011719 L 1.675781 -15.933594 L 1.558594 -12.699219 L 1.675781 -11.863281 L 1.878906 -11.144531 L 1.957031 -10.382812 L 2.316406 -8.867188 L 4.152344 -5.230469 L 4.632812 -4.753906 L 5.152344 -4.113281 L 5.75 -3.554688 L 6.191406 -3.035156 L 7.507812 -1.996094 L 10.625 -0.398438 L 11.78125 0 L 12.660156 0.078125 L 14.097656 0.398438 Z M 17.171875 -6.589844 L 14.976562 -6.589844 L 14.097656 -6.710938 L 12.660156 -7.308594 L 12.019531 -7.667969 L 10.941406 -8.546875 L 10.425781 -9.105469 L 9.863281 -9.863281 L 9.664062 -10.503906 L 9.304688 -11.222656 L 8.984375 -12.699219 L 8.984375 -15.136719 L 9.1875 -15.855469 L 9.304688 -16.613281 L 9.625 -17.332031 L 9.863281 -18.050781 L 10.824219 -19.332031 L 12.820312 -20.6875 L 13.339844 -20.886719 L 14.898438 -21.289062 L 16.015625 -21.367188 L 17.933594 -21.128906 L 18.652344 -20.96875 L 19.371094 -20.648438 L 20.609375 -19.769531 L 22.164062 -18.132812 L 22.644531 -16.613281 L 23.003906 -15.855469 L 23.125 -15.136719 L 23.042969 -12.699219 L 22.726562 -11.222656 L 22.445312 -10.503906 L 22.007812 -9.785156 L 21.765625 -9.1875 L 21.207031 -8.546875 L 19.289062 -7.230469 L 18.570312 -7.027344 L 17.972656 -6.75 Z M 17.171875 -6.589844 "/></g></g></g><g fill="#ffb1b1" fill-opacity="0.502"><g transform="translate(318.803846, 143.929526)"><g><path d="M 7.667969 -1.238281 L 7.988281 -0.398438 L 8.828125 0 L 9.585938 -0.078125 L 10.382812 0 L 11.144531 -0.078125 L 13.617188 -0.078125 L 14.417969 -0.398438 L 14.738281 -1.199219 L 14.699219 -1.957031 L 14.777344 -2.875 L 14.738281 -4.472656 L 14.617188 -5.152344 L 14.738281 -5.992188 L 14.816406 -8.425781 L 14.738281 -9.144531 L 14.855469 -10.824219 L 14.699219 -18.769531 L 14.816406 -19.570312 L 14.738281 -20.449219 L 15.058594 -21.167969 L 15.933594 -21.527344 L 16.613281 -21.566406 L 17.414062 -21.527344 L 18.132812 -21.605469 L 20.328125 -21.566406 L 21.246094 -21.925781 L 21.648438 -22.726562 L 21.566406 -23.5625 L 21.648438 -26.839844 L 21.246094 -27.636719 L 20.449219 -28.035156 L 19.488281 -27.957031 L 18.851562 -28.035156 L 18.09375 -28.035156 L 17.214844 -27.917969 L 16.414062 -27.917969 L 15.617188 -27.996094 L 14.816406 -27.996094 L 13.898438 -27.878906 L 1.996094 -27.957031 L 1.117188 -27.558594 L 0.71875 -26.757812 L 0.679688 -22.765625 L 1.117188 -21.886719 L 1.917969 -21.488281 L 2.957031 -21.605469 L 6.511719 -21.566406 L 7.230469 -21.128906 L 7.628906 -20.367188 L 7.746094 -15.976562 L 7.628906 -14.738281 L 7.707031 -13.976562 L 7.628906 -13.179688 L 7.628906 -11.582031 L 7.746094 -10.425781 L 7.589844 -9.226562 L 7.628906 -8.425781 L 7.589844 -7.589844 L 7.707031 -5.152344 L 7.628906 -4.351562 Z M 7.667969 -1.238281 "/></g></g></g><g fill="#ffb1b1" fill-opacity="0.502"><g transform="translate(341.128544, 143.929526)"><g><path d="M 1.917969 -1.160156 L 2.316406 -0.320312 L 3.113281 -0.0390625 L 14.976562 0.0390625 L 15.734375 -0.359375 L 16.175781 -1.078125 L 16.175781 -1.957031 L 16.09375 -2.675781 L 16.214844 -5.113281 L 15.65625 -5.792969 L 12.980469 -6.628906 L 12.539062 -7.429688 L 12.621094 -10.703125 L 12.460938 -12.300781 L 12.621094 -13.976562 L 12.539062 -15.175781 L 12.621094 -16.414062 L 12.539062 -17.171875 L 12.621094 -17.972656 L 12.539062 -18.8125 L 12.539062 -20.488281 L 12.980469 -21.207031 L 13.738281 -21.648438 L 14.617188 -21.6875 L 15.375 -22.125 L 15.816406 -22.882812 L 15.816406 -25.242188 L 15.894531 -25.960938 L 15.816406 -26.757812 L 15.496094 -27.558594 L 14.21875 -27.917969 L 9.144531 -27.957031 L 8.265625 -27.878906 L 5.832031 -27.917969 L 5.070312 -27.878906 L 3.515625 -27.957031 L 2.636719 -27.558594 L 2.195312 -26.71875 L 2.195312 -25.960938 L 2.117188 -25.28125 L 2.117188 -24.402344 L 2.195312 -23.605469 L 2.195312 -22.84375 L 2.597656 -22.085938 L 5.03125 -21.246094 L 5.550781 -20.527344 L 5.429688 -17.132812 L 5.472656 -16.453125 L 5.589844 -15.535156 L 5.550781 -13.898438 L 5.472656 -13.101562 L 5.632812 -11.542969 L 5.429688 -10.742188 L 5.589844 -9.027344 L 5.511719 -7.46875 L 5.113281 -6.589844 L 2.476562 -5.75 L 1.996094 -4.992188 L 1.917969 -4.234375 Z M 1.917969 -1.160156 "/></g></g></g><g fill="#ffb1b1" fill-opacity="0.502"><g transform="translate(359.259885, 143.929526)"><g><path d="M 23.5625 -0.640625 L 24.722656 -0.121094 L 25.761719 0.199219 L 26.679688 -0.238281 L 27.039062 -1.078125 L 27.238281 -11.941406 L 27.078125 -13.058594 L 27.15625 -13.9375 L 27 -18.730469 L 27.117188 -20.328125 L 27.039062 -21.085938 L 27.039062 -22.683594 L 27.199219 -23.484375 L 27.117188 -24.683594 L 27.199219 -26.757812 L 26.71875 -27.476562 L 25.839844 -27.878906 L 25.042969 -27.957031 L 24.28125 -27.957031 L 23.402344 -27.878906 L 22.566406 -27.996094 L 21.847656 -27.917969 L 21.046875 -27.957031 L 20.089844 -27.558594 L 19.691406 -26.71875 L 19.648438 -19.449219 L 19.808594 -18.609375 L 19.808594 -17.851562 L 19.648438 -17.015625 L 19.691406 -15.417969 L 19.488281 -14.777344 L 18.929688 -14.9375 L 17.171875 -16.734375 L 16.574219 -17.214844 L 15.175781 -18.652344 L 14.539062 -19.128906 L 14.097656 -19.691406 L 13.257812 -20.566406 L 12.019531 -21.605469 L 11.582031 -22.207031 L 10.824219 -22.726562 L 10.425781 -23.324219 L 9.746094 -23.804688 L 9.226562 -24.480469 L 7.070312 -26.679688 L 5.472656 -27.757812 L 4.394531 -28.078125 L 3.433594 -27.597656 L 2.914062 -26.839844 L 2.996094 -21.246094 L 2.914062 -20.449219 L 3.035156 -18.8125 L 2.957031 -18.09375 L 2.996094 -17.253906 L 2.875 -16.414062 L 3.035156 -10.703125 L 2.957031 -9.984375 L 2.957031 -9.226562 L 2.875 -8.347656 L 2.875 -7.589844 L 2.996094 -6.75 L 2.957031 -5.113281 L 3.035156 -4.3125 L 2.914062 -2.796875 L 3.035156 -1.996094 L 3.035156 -1.238281 L 3.394531 -0.359375 L 4.152344 0.078125 L 5.511719 0 L 7.507812 0.121094 L 8.347656 0 L 9.265625 0.078125 L 10.066406 -0.320312 L 10.425781 -1.117188 L 10.304688 -1.917969 L 10.425781 -11.703125 L 10.265625 -12.539062 L 10.664062 -13.019531 L 11.183594 -12.898438 L 16.894531 -7.308594 L 17.53125 -6.789062 L 21.40625 -2.914062 L 21.925781 -2.277344 L 22.566406 -1.757812 L 23.042969 -1.160156 Z M 23.5625 -0.640625 "/></g></g></g><g fill="#ffb1b1" fill-opacity="0.502"><g transform="translate(389.372286, 143.929526)"><g><path d="M 14.617188 0.480469 L 15.65625 0.519531 L 17.8125 0.320312 L 18.609375 0.160156 L 19.371094 0.121094 L 20.050781 -0.078125 L 23.003906 -1.359375 L 23.5625 -1.835938 L 24.882812 -2.675781 L 26.039062 -3.914062 L 27.316406 -5.792969 L 28.238281 -7.628906 L 28.753906 -9.34375 L 28.796875 -10.105469 L 29.035156 -10.902344 L 29.195312 -13.9375 L 29.074219 -14.738281 L 28.597656 -15.535156 L 27.4375 -15.894531 L 17.414062 -15.894531 L 16.175781 -15.457031 L 15.816406 -14.699219 L 15.734375 -11.703125 L 15.894531 -10.941406 L 16.136719 -10.265625 L 16.894531 -9.90625 L 17.652344 -9.90625 L 18.371094 -9.824219 L 20.769531 -9.945312 L 21.328125 -9.503906 L 21.488281 -8.828125 L 21.167969 -8.1875 L 20.007812 -7.070312 L 19.371094 -6.75 L 17.851562 -6.269531 L 17.054688 -6.152344 L 15.894531 -6.109375 L 14.65625 -6.191406 L 13.9375 -6.351562 L 13.21875 -6.628906 L 11.78125 -7.386719 L 10.582031 -8.347656 L 10.144531 -9.027344 L 9.824219 -9.703125 L 9.386719 -10.425781 L 9.105469 -11.183594 L 8.867188 -15.175781 L 9.304688 -16.613281 L 9.464844 -17.414062 L 10.066406 -18.890625 L 11.101562 -20.007812 L 12.421875 -20.925781 L 13.101562 -21.246094 L 14.65625 -21.765625 L 15.777344 -21.804688 L 17.851562 -21.566406 L 18.609375 -21.367188 L 20.609375 -20.128906 L 21.007812 -19.488281 L 21.886719 -18.851562 L 22.765625 -18.453125 L 26.679688 -18.453125 L 27.4375 -18.53125 L 28.117188 -18.769531 L 28.394531 -19.648438 L 27.117188 -22.605469 L 26.558594 -23.164062 L 25.558594 -24.441406 L 24.402344 -25.601562 L 21.6875 -27.277344 L 20.808594 -27.515625 L 20.167969 -27.796875 L 19.371094 -27.917969 L 18.492188 -28.15625 L 14.539062 -28.355469 L 12.101562 -27.957031 L 9.066406 -26.878906 L 8.347656 -26.519531 L 6.351562 -25.160156 L 5.152344 -24.042969 L 4.632812 -23.363281 L 4.234375 -22.726562 L 3.632812 -22.164062 L 3.195312 -21.40625 L 1.957031 -18.371094 L 1.917969 -17.652344 L 1.476562 -15.894531 L 1.558594 -13.898438 L 1.476562 -12.78125 L 1.519531 -11.941406 L 2.195312 -8.867188 L 3.035156 -6.667969 L 3.476562 -5.910156 L 4.914062 -4.113281 L 6.03125 -2.957031 L 8.585938 -1.238281 L 9.304688 -0.878906 L 11.542969 -0.078125 L 13.777344 0.398438 Z M 14.617188 0.480469 "/></g></g></g><g fill="#d9d9d9" fill-opacity="1"><g transform="translate(31.809648, 142.164376)"><g><path d="M 14.9375 0.480469 L 17.171875 0.4375 L 19.570312 0.121094 L 22.566406 -0.878906 L 23.882812 -1.597656 L 24.480469 -2.078125 L 25.242188 -2.4375 L 26.359375 -3.394531 L 26.878906 -4.113281 L 27.4375 -4.671875 L 29.195312 -7.347656 L 29.792969 -8.867188 L 30.113281 -10.382812 L 30.152344 -11.101562 L 30.351562 -11.902344 L 30.394531 -12.742188 L 30.554688 -13.898438 L 30.433594 -15.894531 L 30.152344 -17.53125 L 29.15625 -20.527344 L 28.394531 -22.007812 L 27.515625 -23.203125 L 26.398438 -24.441406 L 25.242188 -25.441406 L 24.324219 -26.078125 L 23.125 -26.597656 L 22.523438 -27.039062 L 19.449219 -27.996094 L 17.132812 -28.394531 L 16.054688 -28.4375 L 11.820312 -27.835938 L 8.828125 -26.71875 L 8.226562 -26.28125 L 7.507812 -25.921875 L 6.152344 -24.921875 L 4.195312 -22.644531 L 2.957031 -20.527344 L 2.355469 -19.011719 L 1.675781 -15.933594 L 1.558594 -12.699219 L 1.675781 -11.863281 L 1.878906 -11.144531 L 1.957031 -10.382812 L 2.316406 -8.867188 L 4.152344 -5.230469 L 4.632812 -4.753906 L 5.152344 -4.113281 L 5.75 -3.554688 L 6.191406 -3.035156 L 7.507812 -1.996094 L 10.625 -0.398438 L 11.78125 0 L 12.660156 0.078125 L 14.097656 0.398438 Z M 17.171875 -6.589844 L 14.976562 -6.589844 L 14.097656 -6.710938 L 12.660156 -7.308594 L 12.019531 -7.667969 L 10.941406 -8.546875 L 10.425781 -9.105469 L 9.863281 -9.863281 L 9.664062 -10.503906 L 9.304688 -11.222656 L 8.984375 -12.699219 L 8.984375 -15.136719 L 9.1875 -15.855469 L 9.304688 -16.613281 L 9.625 -17.332031 L 9.863281 -18.050781 L 10.824219 -19.332031 L 12.820312 -20.6875 L 13.339844 -20.886719 L 14.898438 -21.289062 L 16.015625 -21.367188 L 17.933594 -21.128906 L 18.652344 -20.96875 L 19.371094 -20.648438 L 20.609375 -19.769531 L 22.164062 -18.132812 L 22.644531 -16.613281 L 23.003906 -15.855469 L 23.125 -15.136719 L 23.042969 -12.699219 L 22.726562 -11.222656 L 22.445312 -10.503906 L 22.007812 -9.785156 L 21.765625 -9.1875 L 21.207031 -8.546875 L 19.289062 -7.230469 L 18.570312 -7.027344 L 17.972656 -6.75 Z M 17.171875 -6.589844 "/></g></g></g><g fill="#d9d9d9" fill-opacity="1"><g transform="translate(63.839012, 142.164376)"><g><path d="M 23.5625 -0.640625 L 24.722656 -0.121094 L 25.761719 0.199219 L 26.679688 -0.238281 L 27.039062 -1.078125 L 27.238281 -11.941406 L 27.078125 -13.058594 L 27.15625 -13.9375 L 27 -18.730469 L 27.117188 -20.328125 L 27.039062 -21.085938 L 27.039062 -22.683594 L 27.199219 -23.484375 L 27.117188 -24.683594 L 27.199219 -26.757812 L 26.71875 -27.476562 L 25.839844 -27.878906 L 25.042969 -27.957031 L 24.28125 -27.957031 L 23.402344 -27.878906 L 22.566406 -27.996094 L 21.847656 -27.917969 L 21.046875 -27.957031 L 20.089844 -27.558594 L 19.691406 -26.71875 L 19.648438 -19.449219 L 19.808594 -18.609375 L 19.808594 -17.851562 L 19.648438 -17.015625 L 19.691406 -15.417969 L 19.488281 -14.777344 L 18.929688 -14.9375 L 17.171875 -16.734375 L 16.574219 -17.214844 L 15.175781 -18.652344 L 14.539062 -19.128906 L 14.097656 -19.691406 L 13.257812 -20.566406 L 12.019531 -21.605469 L 11.582031 -22.207031 L 10.824219 -22.726562 L 10.425781 -23.324219 L 9.746094 -23.804688 L 9.226562 -24.480469 L 7.070312 -26.679688 L 5.472656 -27.757812 L 4.394531 -28.078125 L 3.433594 -27.597656 L 2.914062 -26.839844 L 2.996094 -21.246094 L 2.914062 -20.449219 L 3.035156 -18.8125 L 2.957031 -18.09375 L 2.996094 -17.253906 L 2.875 -16.414062 L 3.035156 -10.703125 L 2.957031 -9.984375 L 2.957031 -9.226562 L 2.875 -8.347656 L 2.875 -7.589844 L 2.996094 -6.75 L 2.957031 -5.113281 L 3.035156 -4.3125 L 2.914062 -2.796875 L 3.035156 -1.996094 L 3.035156 -1.238281 L 3.394531 -0.359375 L 4.152344 0.078125 L 5.511719 0 L 7.507812 0.121094 L 8.347656 0 L 9.265625 0.078125 L 10.066406 -0.320312 L 10.425781 -1.117188 L 10.304688 -1.917969 L 10.425781 -11.703125 L 10.265625 -12.539062 L 10.664062 -13.019531 L 11.183594 -12.898438 L 16.894531 -7.308594 L 17.53125 -6.789062 L 21.40625 -2.914062 L 21.925781 -2.277344 L 22.566406 -1.757812 L 23.042969 -1.160156 Z M 23.5625 -0.640625 "/></g></g></g><g fill="#d9d9d9" fill-opacity="1"><g transform="translate(93.9514, 142.164376)"><g><path d="M 1.4375 -12.222656 L 1.796875 -11.460938 L 2.515625 -10.984375 L 3.355469 -11.023438 L 4.195312 -10.941406 L 4.953125 -11.101562 L 6.550781 -10.984375 L 7.230469 -11.101562 L 9.945312 -11.101562 L 10.742188 -10.984375 L 13.101562 -11.023438 L 14.296875 -11.421875 L 14.777344 -12.261719 L 14.699219 -15.496094 L 14.417969 -16.375 L 13.617188 -16.8125 L 9.585938 -16.773438 L 8.828125 -16.933594 L 4.195312 -16.855469 L 3.394531 -16.933594 L 2.636719 -16.855469 L 1.796875 -16.375 L 1.4375 -15.617188 Z M 1.4375 -12.222656 "/></g></g></g><g fill="#d9d9d9" fill-opacity="1"><g transform="translate(110.325518, 142.164376)"><g><path d="M 14.699219 0.398438 L 17.09375 0.519531 L 20.96875 -0.28125 L 23.164062 -1.238281 L 23.761719 -1.636719 L 24.480469 -2.078125 L 25.160156 -2.554688 L 25.679688 -3.074219 L 26.121094 -3.753906 L 26.796875 -4.273438 L 27.996094 -6.351562 L 28.355469 -7.070312 L 28.554688 -7.828125 L 28.835938 -8.625 L 28.957031 -9.386719 L 28.714844 -10.105469 L 27.71875 -10.542969 L 23.445312 -10.582031 L 22.566406 -10.183594 L 21.765625 -9.425781 L 21.445312 -8.746094 L 19.929688 -7.109375 L 18.570312 -6.429688 L 17.773438 -6.191406 L 16.933594 -6.109375 L 14.699219 -6.152344 L 12.539062 -6.949219 L 11.78125 -7.308594 L 11.261719 -7.867188 L 9.785156 -9.785156 L 9.464844 -10.464844 L 8.984375 -12.019531 L 8.867188 -13.898438 L 8.90625 -15.175781 L 9.1875 -15.894531 L 9.226562 -16.695312 L 9.464844 -17.414062 L 10.144531 -18.851562 L 11.144531 -20.089844 L 12.460938 -21.046875 L 13.21875 -21.367188 L 14.617188 -21.765625 L 17.09375 -21.6875 L 18.609375 -21.40625 L 19.449219 -21.128906 L 20.609375 -20.167969 L 21.207031 -19.53125 L 21.566406 -18.851562 L 22.285156 -18.09375 L 23.164062 -17.734375 L 27.199219 -17.652344 L 27.996094 -17.734375 L 28.636719 -18.09375 L 28.875 -18.929688 L 28.554688 -19.730469 L 28.4375 -20.449219 L 27.796875 -21.964844 L 26.320312 -24.003906 L 24.242188 -25.878906 L 23.363281 -26.480469 L 21.085938 -27.515625 L 19.53125 -27.957031 L 17.53125 -28.238281 L 13.898438 -28.238281 L 13.21875 -28.15625 L 12.460938 -27.917969 L 10.902344 -27.597656 L 10.144531 -27.316406 L 9.546875 -26.957031 L 8.828125 -26.679688 L 6.03125 -24.882812 L 5.550781 -24.242188 L 4.472656 -23.242188 L 3.992188 -22.566406 L 2.15625 -18.972656 L 1.4375 -13.976562 L 1.597656 -12.699219 L 1.597656 -11.101562 L 1.996094 -9.546875 L 2.316406 -8.785156 L 2.4375 -8.066406 L 2.835938 -7.347656 L 3.113281 -6.667969 L 4.710938 -4.351562 L 6.152344 -2.957031 L 6.828125 -2.515625 L 7.429688 -2.035156 L 10.144531 -0.558594 L 10.941406 -0.28125 L 11.542969 -0.121094 L 12.382812 0.160156 L 13.21875 0.238281 L 13.9375 0.398438 Z M 14.699219 0.398438 "/></g></g></g><g fill="#d9d9d9" fill-opacity="1"><g transform="translate(140.797336, 142.164376)"><g><path d="M 3.035156 -1.117188 L 3.355469 -0.28125 L 4.273438 0.078125 L 5.03125 0.078125 L 6.269531 -0.0390625 L 7.429688 0 L 8.265625 0.121094 L 9.105469 0.0390625 L 9.984375 -0.320312 L 10.304688 -1.117188 L 10.34375 -1.917969 L 10.222656 -2.796875 L 10.304688 -3.515625 L 10.222656 -4.3125 L 10.304688 -5.070312 L 10.265625 -5.949219 L 10.34375 -6.789062 L 10.222656 -9.945312 L 10.625 -10.785156 L 11.421875 -11.261719 L 12.261719 -11.261719 L 12.980469 -11.183594 L 15.335938 -11.183594 L 16.136719 -11.261719 L 16.933594 -11.183594 L 17.691406 -11.183594 L 18.410156 -10.785156 L 18.8125 -9.984375 L 18.929688 -7.546875 L 18.8125 -6.789062 L 18.972656 -3.953125 L 18.8125 -2.753906 L 18.929688 -1.199219 L 19.332031 -0.359375 L 20.128906 0.0390625 L 20.925781 -0.0390625 L 22.125 0.078125 L 24.882812 0.078125 L 25.679688 -0.359375 L 26.121094 -1.117188 L 26.28125 -2.753906 L 26.28125 -9.1875 L 26.121094 -10.703125 L 26.160156 -11.503906 L 26.078125 -12.339844 L 26.078125 -13.140625 L 26.199219 -13.976562 L 26.160156 -15.496094 L 26.238281 -16.375 L 26.121094 -20.289062 L 26.320312 -23.605469 L 26.160156 -24.363281 L 26.078125 -25.121094 L 26.238281 -25.921875 L 26.160156 -26.71875 L 25.761719 -27.515625 L 24.523438 -27.917969 L 22.484375 -27.957031 L 21.207031 -27.835938 L 20.410156 -27.835938 L 19.210938 -27.476562 L 18.890625 -26.320312 L 18.972656 -21.964844 L 18.8125 -21.289062 L 18.8125 -18.972656 L 18.371094 -18.171875 L 17.691406 -17.773438 L 16.09375 -17.773438 L 15.375 -17.851562 L 11.503906 -17.8125 L 10.664062 -18.171875 L 10.34375 -18.929688 L 10.34375 -21.328125 L 10.425781 -22.046875 L 10.304688 -26 L 10.34375 -26.679688 L 9.863281 -27.515625 L 8.625 -27.917969 L 6.269531 -27.835938 L 5.472656 -27.917969 L 4.710938 -27.835938 L 3.476562 -27.476562 L 3.035156 -26.796875 L 2.914062 -25.921875 L 2.914062 -25.160156 L 2.996094 -24.28125 L 2.875 -23.523438 L 3.074219 -21.128906 L 2.957031 -20.25 L 3.035156 -19.570312 L 2.875 -18.769531 L 3.035156 -16.335938 L 2.957031 -15.496094 L 2.957031 -13.179688 L 3.074219 -12.421875 L 2.996094 -11.183594 L 3.074219 -10.265625 L 2.957031 -8.386719 L 3.035156 -7.507812 L 2.914062 -6.710938 L 3.035156 -5.992188 L 2.957031 -5.191406 Z M 3.035156 -1.117188 "/></g></g></g><g fill="#d9d9d9" fill-opacity="1"><g transform="translate(170.031114, 142.164376)"><g><path d="M 0.519531 -1.078125 L 0.71875 -0.238281 L 1.519531 -0.0390625 L 5.03125 -0.0390625 L 6.070312 0.078125 L 6.988281 -0.320312 L 7.707031 -1.039062 L 8.386719 -2.394531 L 9.066406 -3.15625 L 10.023438 -3.554688 L 10.824219 -3.476562 L 13.058594 -3.515625 L 13.898438 -3.394531 L 14.816406 -3.515625 L 15.535156 -3.515625 L 16.375 -3.433594 L 18.25 -3.515625 L 19.570312 -3.074219 L 20.410156 -2.4375 L 20.609375 -1.71875 L 21.046875 -1 L 21.726562 -0.359375 L 22.765625 0.0390625 L 23.484375 -0.0390625 L 24.882812 0.078125 L 27.359375 0 L 28.078125 -0.238281 L 28.238281 -1.078125 L 27.996094 -2.078125 L 27.71875 -2.796875 L 27.199219 -3.476562 L 26.957031 -4.273438 L 26.558594 -4.871094 L 26.320312 -5.632812 L 25.640625 -7.070312 L 25.359375 -7.828125 L 24.960938 -8.507812 L 24.402344 -9.984375 L 23.964844 -10.625 L 23.644531 -11.421875 L 23.285156 -12.101562 L 23.003906 -12.898438 L 22.644531 -13.5 L 22.40625 -14.296875 L 21.964844 -15.015625 L 21.648438 -15.695312 L 21.246094 -16.375 L 21.046875 -17.132812 L 20.25 -18.53125 L 20.007812 -19.289062 L 19.289062 -20.808594 L 19.089844 -21.445312 L 18.492188 -22.84375 L 17.691406 -24.324219 L 17.054688 -25.839844 L 16.695312 -26.4375 L 16.453125 -27.199219 L 15.734375 -27.957031 L 14.378906 -28.316406 L 13.101562 -27.917969 L 12.339844 -27.199219 L 12.101562 -26.480469 L 10.382812 -22.882812 L 9.945312 -22.164062 L 7.707031 -17.132812 L 7.507812 -16.453125 L 7.070312 -15.734375 L 6.429688 -14.296875 L 5.832031 -13.257812 L 5.550781 -12.5 L 4.992188 -11.460938 L 4.753906 -10.625 L 4.394531 -9.984375 L 4.113281 -9.1875 L 2.996094 -7.109375 L 1.835938 -4.195312 L 1.359375 -3.554688 L 1 -2.753906 Z M 12.859375 -9.863281 L 12.101562 -10.183594 L 11.980469 -10.984375 L 13.578125 -14.617188 L 13.9375 -15.257812 L 14.457031 -15.65625 L 14.9375 -15.335938 L 15.457031 -13.777344 L 15.894531 -13.101562 L 16.054688 -12.460938 L 16.453125 -11.660156 L 16.734375 -10.941406 L 16.652344 -10.222656 L 15.976562 -9.90625 Z M 12.859375 -9.863281 "/></g></g></g><g fill="#d9d9d9" fill-opacity="1"><g transform="translate(199.025275, 142.164376)"><g><path d="M 1.917969 -1.160156 L 2.316406 -0.320312 L 3.113281 -0.0390625 L 14.976562 0.0390625 L 15.734375 -0.359375 L 16.175781 -1.078125 L 16.175781 -1.957031 L 16.09375 -2.675781 L 16.214844 -5.113281 L 15.65625 -5.792969 L 12.980469 -6.628906 L 12.539062 -7.429688 L 12.621094 -10.703125 L 12.460938 -12.300781 L 12.621094 -13.976562 L 12.539062 -15.175781 L 12.621094 -16.414062 L 12.539062 -17.171875 L 12.621094 -17.972656 L 12.539062 -18.8125 L 12.539062 -20.488281 L 12.980469 -21.207031 L 13.738281 -21.648438 L 14.617188 -21.6875 L 15.375 -22.125 L 15.816406 -22.882812 L 15.816406 -25.242188 L 15.894531 -25.960938 L 15.816406 -26.757812 L 15.496094 -27.558594 L 14.21875 -27.917969 L 9.144531 -27.957031 L 8.265625 -27.878906 L 5.832031 -27.917969 L 5.070312 -27.878906 L 3.515625 -27.957031 L 2.636719 -27.558594 L 2.195312 -26.71875 L 2.195312 -25.960938 L 2.117188 -25.28125 L 2.117188 -24.402344 L 2.195312 -23.605469 L 2.195312 -22.84375 L 2.597656 -22.085938 L 5.03125 -21.246094 L 5.550781 -20.527344 L 5.429688 -17.132812 L 5.472656 -16.453125 L 5.589844 -15.535156 L 5.550781 -13.898438 L 5.472656 -13.101562 L 5.632812 -11.542969 L 5.429688 -10.742188 L 5.589844 -9.027344 L 5.511719 -7.46875 L 5.113281 -6.589844 L 2.476562 -5.75 L 1.996094 -4.992188 L 1.917969 -4.234375 Z M 1.917969 -1.160156 "/></g></g></g><g fill="#d9d9d9" fill-opacity="1"><g transform="translate(217.156604, 142.164376)"><g><path d="M 23.5625 -0.640625 L 24.722656 -0.121094 L 25.761719 0.199219 L 26.679688 -0.238281 L 27.039062 -1.078125 L 27.238281 -11.941406 L 27.078125 -13.058594 L 27.15625 -13.9375 L 27 -18.730469 L 27.117188 -20.328125 L 27.039062 -21.085938 L 27.039062 -22.683594 L 27.199219 -23.484375 L 27.117188 -24.683594 L 27.199219 -26.757812 L 26.71875 -27.476562 L 25.839844 -27.878906 L 25.042969 -27.957031 L 24.28125 -27.957031 L 23.402344 -27.878906 L 22.566406 -27.996094 L 21.847656 -27.917969 L 21.046875 -27.957031 L 20.089844 -27.558594 L 19.691406 -26.71875 L 19.648438 -19.449219 L 19.808594 -18.609375 L 19.808594 -17.851562 L 19.648438 -17.015625 L 19.691406 -15.417969 L 19.488281 -14.777344 L 18.929688 -14.9375 L 17.171875 -16.734375 L 16.574219 -17.214844 L 15.175781 -18.652344 L 14.539062 -19.128906 L 14.097656 -19.691406 L 13.257812 -20.566406 L 12.019531 -21.605469 L 11.582031 -22.207031 L 10.824219 -22.726562 L 10.425781 -23.324219 L 9.746094 -23.804688 L 9.226562 -24.480469 L 7.070312 -26.679688 L 5.472656 -27.757812 L 4.394531 -28.078125 L 3.433594 -27.597656 L 2.914062 -26.839844 L 2.996094 -21.246094 L 2.914062 -20.449219 L 3.035156 -18.8125 L 2.957031 -18.09375 L 2.996094 -17.253906 L 2.875 -16.414062 L 3.035156 -10.703125 L 2.957031 -9.984375 L 2.957031 -9.226562 L 2.875 -8.347656 L 2.875 -7.589844 L 2.996094 -6.75 L 2.957031 -5.113281 L 3.035156 -4.3125 L 2.914062 -2.796875 L 3.035156 -1.996094 L 3.035156 -1.238281 L 3.394531 -0.359375 L 4.152344 0.078125 L 5.511719 0 L 7.507812 0.121094 L 8.347656 0 L 9.265625 0.078125 L 10.066406 -0.320312 L 10.425781 -1.117188 L 10.304688 -1.917969 L 10.425781 -11.703125 L 10.265625 -12.539062 L 10.664062 -13.019531 L 11.183594 -12.898438 L 16.894531 -7.308594 L 17.53125 -6.789062 L 21.40625 -2.914062 L 21.925781 -2.277344 L 22.566406 -1.757812 L 23.042969 -1.160156 Z M 23.5625 -0.640625 "/></g></g></g><g fill="#d9d9d9" fill-opacity="1"><g transform="translate(247.268992, 142.164376)"><g/></g></g><g fill="#d9d9d9" fill-opacity="1"><g transform="translate(258.091886, 142.164376)"><g><path d="M 11.261719 -0.71875 L 11.902344 0 L 12.859375 0.359375 L 13.660156 0.4375 L 14.738281 -0.0390625 L 15.417969 -0.679688 L 15.65625 -1.4375 L 16.335938 -2.996094 L 16.695312 -3.753906 L 17.09375 -4.433594 L 17.734375 -5.871094 L 17.972656 -6.589844 L 20.367188 -11.703125 L 20.847656 -13.257812 L 21.6875 -14.699219 L 22.125 -16.214844 L 22.566406 -17.015625 L 22.765625 -17.691406 L 22.964844 -18.453125 L 23.523438 -19.171875 L 23.722656 -19.929688 L 24.242188 -20.527344 L 24.839844 -22.085938 L 25.042969 -22.804688 L 25.480469 -23.484375 L 25.761719 -24.28125 L 26.160156 -25.042969 L 26.320312 -25.71875 L 26.71875 -26.679688 L 26.480469 -27.675781 L 25.800781 -27.917969 L 21.085938 -27.917969 L 20.167969 -27.597656 L 19.449219 -26.839844 L 19.25 -26.121094 L 14.496094 -14.417969 L 14.097656 -13.660156 L 13.898438 -12.941406 L 13.417969 -12.222656 L 12.941406 -12.140625 L 12.621094 -12.859375 L 12.101562 -14.378906 L 11.78125 -15.097656 L 11.542969 -15.894531 L 11.261719 -16.535156 L 10.824219 -17.253906 L 10.34375 -18.851562 L 9.984375 -19.488281 L 9.703125 -20.207031 L 9.546875 -21.007812 L 8.148438 -23.882812 L 8.027344 -24.640625 L 7.628906 -25.402344 L 7.347656 -26.121094 L 6.988281 -26.757812 L 6.308594 -27.558594 L 5.390625 -27.878906 L 3.15625 -27.996094 L 2.476562 -27.917969 L 1.757812 -27.996094 L 0.917969 -27.957031 L 0.078125 -27.597656 L 0 -26.71875 L 0.160156 -25.761719 L 0.519531 -25.042969 L 1.117188 -23.523438 L 1.476562 -22.804688 L 1.71875 -22.085938 L 2.15625 -21.328125 L 2.796875 -19.769531 L 3.195312 -19.050781 L 4.394531 -16.136719 L 4.792969 -15.496094 L 7.429688 -9.546875 L 7.628906 -8.867188 L 8.308594 -7.429688 L 8.546875 -6.667969 L 9.585938 -4.351562 L 9.984375 -3.753906 L 10.183594 -2.914062 Z M 11.261719 -0.71875 "/></g></g></g><g fill="#d9d9d9" fill-opacity="1"><g transform="translate(285.00932, 142.164376)"><g><path d="M 14.9375 0.480469 L 17.171875 0.4375 L 19.570312 0.121094 L 22.566406 -0.878906 L 23.882812 -1.597656 L 24.480469 -2.078125 L 25.242188 -2.4375 L 26.359375 -3.394531 L 26.878906 -4.113281 L 27.4375 -4.671875 L 29.195312 -7.347656 L 29.792969 -8.867188 L 30.113281 -10.382812 L 30.152344 -11.101562 L 30.351562 -11.902344 L 30.394531 -12.742188 L 30.554688 -13.898438 L 30.433594 -15.894531 L 30.152344 -17.53125 L 29.15625 -20.527344 L 28.394531 -22.007812 L 27.515625 -23.203125 L 26.398438 -24.441406 L 25.242188 -25.441406 L 24.324219 -26.078125 L 23.125 -26.597656 L 22.523438 -27.039062 L 19.449219 -27.996094 L 17.132812 -28.394531 L 16.054688 -28.4375 L 11.820312 -27.835938 L 8.828125 -26.71875 L 8.226562 -26.28125 L 7.507812 -25.921875 L 6.152344 -24.921875 L 4.195312 -22.644531 L 2.957031 -20.527344 L 2.355469 -19.011719 L 1.675781 -15.933594 L 1.558594 -12.699219 L 1.675781 -11.863281 L 1.878906 -11.144531 L 1.957031 -10.382812 L 2.316406 -8.867188 L 4.152344 -5.230469 L 4.632812 -4.753906 L 5.152344 -4.113281 L 5.75 -3.554688 L 6.191406 -3.035156 L 7.507812 -1.996094 L 10.625 -0.398438 L 11.78125 0 L 12.660156 0.078125 L 14.097656 0.398438 Z M 17.171875 -6.589844 L 14.976562 -6.589844 L 14.097656 -6.710938 L 12.660156 -7.308594 L 12.019531 -7.667969 L 10.941406 -8.546875 L 10.425781 -9.105469 L 9.863281 -9.863281 L 9.664062 -10.503906 L 9.304688 -11.222656 L 8.984375 -12.699219 L 8.984375 -15.136719 L 9.1875 -15.855469 L 9.304688 -16.613281 L 9.625 -17.332031 L 9.863281 -18.050781 L 10.824219 -19.332031 L 12.820312 -20.6875 L 13.339844 -20.886719 L 14.898438 -21.289062 L 16.015625 -21.367188 L 17.933594 -21.128906 L 18.652344 -20.96875 L 19.371094 -20.648438 L 20.609375 -19.769531 L 22.164062 -18.132812 L 22.644531 -16.613281 L 23.003906 -15.855469 L 23.125 -15.136719 L 23.042969 -12.699219 L 22.726562 -11.222656 L 22.445312 -10.503906 L 22.007812 -9.785156 L 21.765625 -9.1875 L 21.207031 -8.546875 L 19.289062 -7.230469 L 18.570312 -7.027344 L 17.972656 -6.75 Z M 17.171875 -6.589844 "/></g></g></g><g fill="#d9d9d9" fill-opacity="1"><g transform="translate(317.038695, 142.164376)"><g><path d="M 7.667969 -1.238281 L 7.988281 -0.398438 L 8.828125 0 L 9.585938 -0.078125 L 10.382812 0 L 11.144531 -0.078125 L 13.617188 -0.078125 L 14.417969 -0.398438 L 14.738281 -1.199219 L 14.699219 -1.957031 L 14.777344 -2.875 L 14.738281 -4.472656 L 14.617188 -5.152344 L 14.738281 -5.992188 L 14.816406 -8.425781 L 14.738281 -9.144531 L 14.855469 -10.824219 L 14.699219 -18.769531 L 14.816406 -19.570312 L 14.738281 -20.449219 L 15.058594 -21.167969 L 15.933594 -21.527344 L 16.613281 -21.566406 L 17.414062 -21.527344 L 18.132812 -21.605469 L 20.328125 -21.566406 L 21.246094 -21.925781 L 21.648438 -22.726562 L 21.566406 -23.5625 L 21.648438 -26.839844 L 21.246094 -27.636719 L 20.449219 -28.035156 L 19.488281 -27.957031 L 18.851562 -28.035156 L 18.09375 -28.035156 L 17.214844 -27.917969 L 16.414062 -27.917969 L 15.617188 -27.996094 L 14.816406 -27.996094 L 13.898438 -27.878906 L 1.996094 -27.957031 L 1.117188 -27.558594 L 0.71875 -26.757812 L 0.679688 -22.765625 L 1.117188 -21.886719 L 1.917969 -21.488281 L 2.957031 -21.605469 L 6.511719 -21.566406 L 7.230469 -21.128906 L 7.628906 -20.367188 L 7.746094 -15.976562 L 7.628906 -14.738281 L 7.707031 -13.976562 L 7.628906 -13.179688 L 7.628906 -11.582031 L 7.746094 -10.425781 L 7.589844 -9.226562 L 7.628906 -8.425781 L 7.589844 -7.589844 L 7.707031 -5.152344 L 7.628906 -4.351562 Z M 7.667969 -1.238281 "/></g></g></g><g fill="#d9d9d9" fill-opacity="1"><g transform="translate(339.363393, 142.164376)"><g><path d="M 1.917969 -1.160156 L 2.316406 -0.320312 L 3.113281 -0.0390625 L 14.976562 0.0390625 L 15.734375 -0.359375 L 16.175781 -1.078125 L 16.175781 -1.957031 L 16.09375 -2.675781 L 16.214844 -5.113281 L 15.65625 -5.792969 L 12.980469 -6.628906 L 12.539062 -7.429688 L 12.621094 -10.703125 L 12.460938 -12.300781 L 12.621094 -13.976562 L 12.539062 -15.175781 L 12.621094 -16.414062 L 12.539062 -17.171875 L 12.621094 -17.972656 L 12.539062 -18.8125 L 12.539062 -20.488281 L 12.980469 -21.207031 L 13.738281 -21.648438 L 14.617188 -21.6875 L 15.375 -22.125 L 15.816406 -22.882812 L 15.816406 -25.242188 L 15.894531 -25.960938 L 15.816406 -26.757812 L 15.496094 -27.558594 L 14.21875 -27.917969 L 9.144531 -27.957031 L 8.265625 -27.878906 L 5.832031 -27.917969 L 5.070312 -27.878906 L 3.515625 -27.957031 L 2.636719 -27.558594 L 2.195312 -26.71875 L 2.195312 -25.960938 L 2.117188 -25.28125 L 2.117188 -24.402344 L 2.195312 -23.605469 L 2.195312 -22.84375 L 2.597656 -22.085938 L 5.03125 -21.246094 L 5.550781 -20.527344 L 5.429688 -17.132812 L 5.472656 -16.453125 L 5.589844 -15.535156 L 5.550781 -13.898438 L 5.472656 -13.101562 L 5.632812 -11.542969 L 5.429688 -10.742188 L 5.589844 -9.027344 L 5.511719 -7.46875 L 5.113281 -6.589844 L 2.476562 -5.75 L 1.996094 -4.992188 L 1.917969 -4.234375 Z M 1.917969 -1.160156 "/></g></g></g><g fill="#d9d9d9" fill-opacity="1"><g transform="translate(357.494734, 142.164376)"><g><path d="M 23.5625 -0.640625 L 24.722656 -0.121094 L 25.761719 0.199219 L 26.679688 -0.238281 L 27.039062 -1.078125 L 27.238281 -11.941406 L 27.078125 -13.058594 L 27.15625 -13.9375 L 27 -18.730469 L 27.117188 -20.328125 L 27.039062 -21.085938 L 27.039062 -22.683594 L 27.199219 -23.484375 L 27.117188 -24.683594 L 27.199219 -26.757812 L 26.71875 -27.476562 L 25.839844 -27.878906 L 25.042969 -27.957031 L 24.28125 -27.957031 L 23.402344 -27.878906 L 22.566406 -27.996094 L 21.847656 -27.917969 L 21.046875 -27.957031 L 20.089844 -27.558594 L 19.691406 -26.71875 L 19.648438 -19.449219 L 19.808594 -18.609375 L 19.808594 -17.851562 L 19.648438 -17.015625 L 19.691406 -15.417969 L 19.488281 -14.777344 L 18.929688 -14.9375 L 17.171875 -16.734375 L 16.574219 -17.214844 L 15.175781 -18.652344 L 14.539062 -19.128906 L 14.097656 -19.691406 L 13.257812 -20.566406 L 12.019531 -21.605469 L 11.582031 -22.207031 L 10.824219 -22.726562 L 10.425781 -23.324219 L 9.746094 -23.804688 L 9.226562 -24.480469 L 7.070312 -26.679688 L 5.472656 -27.757812 L 4.394531 -28.078125 L 3.433594 -27.597656 L 2.914062 -26.839844 L 2.996094 -21.246094 L 2.914062 -20.449219 L 3.035156 -18.8125 L 2.957031 -18.09375 L 2.996094 -17.253906 L 2.875 -16.414062 L 3.035156 -10.703125 L 2.957031 -9.984375 L 2.957031 -9.226562 L 2.875 -8.347656 L 2.875 -7.589844 L 2.996094 -6.75 L 2.957031 -5.113281 L 3.035156 -4.3125 L 2.914062 -2.796875 L 3.035156 -1.996094 L 3.035156 -1.238281 L 3.394531 -0.359375 L 4.152344 0.078125 L 5.511719 0 L 7.507812 0.121094 L 8.347656 0 L 9.265625 0.078125 L 10.066406 -0.320312 L 10.425781 -1.117188 L 10.304688 -1.917969 L 10.425781 -11.703125 L 10.265625 -12.539062 L 10.664062 -13.019531 L 11.183594 -12.898438 L 16.894531 -7.308594 L 17.53125 -6.789062 L 21.40625 -2.914062 L 21.925781 -2.277344 L 22.566406 -1.757812 L 23.042969 -1.160156 Z M 23.5625 -0.640625 "/></g></g></g><g fill="#d9d9d9" fill-opacity="1"><g transform="translate(387.607135, 142.164376)"><g><path d="M 14.617188 0.480469 L 15.65625 0.519531 L 17.8125 0.320312 L 18.609375 0.160156 L 19.371094 0.121094 L 20.050781 -0.078125 L 23.003906 -1.359375 L 23.5625 -1.835938 L 24.882812 -2.675781 L 26.039062 -3.914062 L 27.316406 -5.792969 L 28.238281 -7.628906 L 28.753906 -9.34375 L 28.796875 -10.105469 L 29.035156 -10.902344 L 29.195312 -13.9375 L 29.074219 -14.738281 L 28.597656 -15.535156 L 27.4375 -15.894531 L 17.414062 -15.894531 L 16.175781 -15.457031 L 15.816406 -14.699219 L 15.734375 -11.703125 L 15.894531 -10.941406 L 16.136719 -10.265625 L 16.894531 -9.90625 L 17.652344 -9.90625 L 18.371094 -9.824219 L 20.769531 -9.945312 L 21.328125 -9.503906 L 21.488281 -8.828125 L 21.167969 -8.1875 L 20.007812 -7.070312 L 19.371094 -6.75 L 17.851562 -6.269531 L 17.054688 -6.152344 L 15.894531 -6.109375 L 14.65625 -6.191406 L 13.9375 -6.351562 L 13.21875 -6.628906 L 11.78125 -7.386719 L 10.582031 -8.347656 L 10.144531 -9.027344 L 9.824219 -9.703125 L 9.386719 -10.425781 L 9.105469 -11.183594 L 8.867188 -15.175781 L 9.304688 -16.613281 L 9.464844 -17.414062 L 10.066406 -18.890625 L 11.101562 -20.007812 L 12.421875 -20.925781 L 13.101562 -21.246094 L 14.65625 -21.765625 L 15.777344 -21.804688 L 17.851562 -21.566406 L 18.609375 -21.367188 L 20.609375 -20.128906 L 21.007812 -19.488281 L 21.886719 -18.851562 L 22.765625 -18.453125 L 26.679688 -18.453125 L 27.4375 -18.53125 L 28.117188 -18.769531 L 28.394531 -19.648438 L 27.117188 -22.605469 L 26.558594 -23.164062 L 25.558594 -24.441406 L 24.402344 -25.601562 L 21.6875 -27.277344 L 20.808594 -27.515625 L 20.167969 -27.796875 L 19.371094 -27.917969 L 18.492188 -28.15625 L 14.539062 -28.355469 L 12.101562 -27.957031 L 9.066406 -26.878906 L 8.347656 -26.519531 L 6.351562 -25.160156 L 5.152344 -24.042969 L 4.632812 -23.363281 L 4.234375 -22.726562 L 3.632812 -22.164062 L 3.195312 -21.40625 L 1.957031 -18.371094 L 1.917969 -17.652344 L 1.476562 -15.894531 L 1.558594 -13.898438 L 1.476562 -12.78125 L 1.519531 -11.941406 L 2.195312 -8.867188 L 3.035156 -6.667969 L 3.476562 -5.910156 L 4.914062 -4.113281 L 6.03125 -2.957031 L 8.585938 -1.238281 L 9.304688 -0.878906 L 11.542969 -0.078125 L 13.777344 0.398438 Z M 14.617188 0.480469 "/></g></g></g></svg>